<?xml version="1.0" encoding="UTF-8" standalone="no"?>
<svg width="211px" height="211px" viewBox="0 0 211 211" version="1.1" xmlns="http://www.w3.org/2000/svg" xmlns:xlink="http://www.w3.org/1999/xlink">
    <!-- Generator: Sketch 40.3 (33839) - http://www.bohemiancoding.com/sketch -->
    <title>01</title>
    <desc>Created with Sketch.</desc>
    <defs></defs>
    <g id="Page-1" stroke="none" stroke-width="1" fill="none" fill-rule="evenodd">
        <g id="Artboard" transform="translate(-123.000000, -1524.000000)" fill="#000000">
            <g id="ships&amp;other" transform="translate(120.000000, 1524.000000)">
                <path d="M171.3092,194.699 C167.7992,194.699 164.9442,191.844 164.9442,188.334 C164.9442,184.823 167.7992,181.968 171.3092,181.968 C174.8192,181.968 177.6752,184.823 177.6752,188.334 C177.6752,191.844 174.8192,194.699 171.3092,194.699 L171.3092,194.699 Z M133.7762,178.334 C133.7762,192.894 121.9302,204.741 107.3692,204.741 C92.8082,204.741 80.9612,192.894 80.9612,178.334 C80.9612,163.773 92.8082,151.927 107.3692,151.927 C121.9302,151.927 133.7762,163.773 133.7762,178.334 L133.7762,178.334 Z M107.3632,43.425 L134.9232,70.984 L107.3632,98.544 L79.8042,70.984 L107.3632,43.425 Z M163.8632,67.484 C165.7922,67.484 167.3622,69.054 167.3622,70.984 C167.3622,72.914 165.7922,74.483 163.8632,74.483 C161.9332,74.483 160.3632,72.914 160.3632,70.984 C160.3632,69.054 161.9332,67.484 163.8632,67.484 L163.8632,67.484 Z M49.7592,188.334 C49.7592,191.844 46.9032,194.699 43.3932,194.699 C39.8832,194.699 37.0272,191.844 37.0272,188.334 C37.0272,184.823 39.8832,181.968 43.3932,181.968 C46.9032,181.968 49.7592,184.823 49.7592,188.334 L49.7592,188.334 Z M49.6062,74.483 C47.6762,74.483 46.1062,72.914 46.1062,70.984 C46.1062,69.054 47.6762,67.484 49.6062,67.484 C51.5362,67.484 53.1052,69.054 53.1052,70.984 C53.1052,72.914 51.5362,74.483 49.6062,74.483 L49.6062,74.483 Z M80.8642,29.904 C78.9342,29.904 77.3652,28.335 77.3652,26.405 C77.3652,24.475 78.9342,22.906 80.8642,22.906 C82.7932,22.906 84.3632,24.475 84.3632,26.405 C84.3632,28.335 82.7932,29.904 80.8642,29.904 L80.8642,29.904 Z M107.3632,6 C109.2932,6 110.8632,7.569 110.8632,9.499 C110.8632,11.428 109.2932,12.998 107.3632,12.998 C105.4342,12.998 103.8642,11.428 103.8642,9.499 C103.8642,7.569 105.4342,6 107.3632,6 L107.3632,6 Z M133.3632,22.906 C135.2922,22.906 136.8622,24.475 136.8622,26.405 C136.8622,28.335 135.2922,29.904 133.3632,29.904 C131.4332,29.904 129.8632,28.335 129.8632,26.405 C129.8632,24.475 131.4332,22.906 133.3632,22.906 L133.3632,22.906 Z M173.5182,176.176 C170.7752,161.179 162.9552,147.475 151.3382,137.431 C139.8912,127.535 125.4412,121.811 110.3632,121.139 L110.3632,104.028 L139.9872,74.405 L155.0112,74.405 C156.3882,77.955 159.8322,80.483 163.8632,80.483 C169.1012,80.483 173.3622,76.221 173.3622,70.984 C173.3622,65.746 169.1012,61.484 163.8632,61.484 C159.5192,61.484 155.8562,64.418 154.7282,68.405 L140.8292,68.405 L110.3632,37.939 L110.3632,29.405 L124.3562,29.405 C125.6162,33.175 129.1742,35.904 133.3632,35.904 C137.5512,35.904 141.1092,33.175 142.3682,29.405 L155.5042,29.405 C156.3462,30.374 157.5732,31 158.9582,31 C161.4952,31 163.5522,28.942 163.5522,26.405 C163.5522,23.868 161.4952,21.811 158.9582,21.811 C157.5732,21.811 156.3462,22.436 155.5042,23.405 L142.3682,23.405 C141.1092,19.635 137.5512,16.906 133.3632,16.906 C129.1742,16.906 125.6162,19.635 124.3562,23.405 L110.3632,23.405 L110.3632,18.505 C114.1342,17.245 116.8632,13.687 116.8632,9.499 C116.8632,4.262 112.6012,0 107.3632,0 C102.1252,0 97.8642,4.262 97.8642,9.499 C97.8642,13.687 100.5922,17.245 104.3632,18.505 L104.3632,23.405 L89.8702,23.405 C88.6102,19.635 85.0532,16.906 80.8642,16.906 C76.6752,16.906 73.1182,19.635 71.8582,23.405 L58.2232,23.405 C57.3802,22.436 56.1532,21.811 54.7692,21.811 C52.2312,21.811 50.1742,23.868 50.1742,26.405 C50.1742,28.942 52.2312,31 54.7692,31 C56.1532,31 57.3802,30.374 58.2232,29.405 L71.8582,29.405 C73.1182,33.175 76.6752,35.904 80.8642,35.904 C85.0532,35.904 88.6102,33.175 89.8702,29.405 L104.3632,29.405 L104.3632,37.939 L73.8972,68.405 L58.7402,68.405 C57.6122,64.418 53.9492,61.484 49.6062,61.484 C44.3682,61.484 40.1062,65.746 40.1062,70.984 C40.1062,76.221 44.3682,80.483 49.6062,80.483 C53.6372,80.483 57.0812,77.955 58.4582,74.405 L74.7392,74.405 L104.3632,104.028 L104.3632,121.139 C89.3332,121.811 74.9212,127.508 63.4942,137.35 C51.8312,147.395 43.9722,161.134 41.2212,176.171 C35.4372,177.202 31.0272,182.258 31.0272,188.334 C31.0272,195.152 36.5752,200.699 43.3932,200.699 C50.2112,200.699 55.7592,195.152 55.7592,188.334 C55.7592,182.86 52.1802,178.212 47.2422,176.589 C49.8542,163.157 56.9562,150.901 67.4092,141.896 C77.7482,132.991 90.7712,127.819 104.3632,127.151 L104.3632,146.071 C87.8982,147.593 74.9612,161.478 74.9612,178.334 C74.9612,196.203 89.4992,210.741 107.3692,210.741 C125.2382,210.741 139.7762,196.203 139.7762,178.334 C139.7762,161.475 126.8342,147.587 110.3632,146.07 L110.3632,127.15 C123.9992,127.817 137.0572,133.017 147.4132,141.97 C157.8212,150.968 164.8892,163.186 167.4962,176.576 C162.5392,178.188 158.9442,182.846 158.9442,188.334 C158.9442,195.152 164.4912,200.699 171.3092,200.699 C178.1272,200.699 183.6752,195.152 183.6752,188.334 C183.6752,182.27 179.2842,177.222 173.5182,176.176 Z M103.8639,70.9842 C103.8639,69.0542 105.4339,67.4842 107.3639,67.4842 C109.2929,67.4842 110.8629,69.0542 110.8629,70.9842 C110.8629,72.9142 109.2929,74.4832 107.3639,74.4832 C105.4339,74.4832 103.8639,72.9142 103.8639,70.9842 Z M116.8629,70.9842 C116.8629,65.7462 112.6019,61.4842 107.3639,61.4842 C102.1249,61.4842 97.8639,65.7462 97.8639,70.9842 C97.8639,76.2212 102.1249,80.4832 107.3639,80.4832 C112.6019,80.4832 116.8629,76.2212 116.8629,70.9842 Z M11.485,94.0418 L10.054,95.4728 C9.826,95.4408 9.598,95.4048 9.363,95.4048 C9.129,95.4048 8.901,95.4408 8.673,95.4728 L7.242,94.0418 L3,98.2838 L4.432,99.7158 C4.368,100.1738 4.368,100.6358 4.432,101.0938 L3,102.5258 L7.242,106.7688 L8.673,105.3378 C8.901,105.3688 9.129,105.4048 9.363,105.4048 C9.598,105.4048 9.826,105.3688 10.054,105.3378 L11.485,106.7688 L15.727,102.5258 L14.295,101.0938 C14.358,100.6358 14.359,100.1738 14.295,99.7158 L15.727,98.2838 L11.485,94.0418 Z M26.3634,120.4051 C24.7064,120.4051 23.3634,121.7481 23.3634,123.4051 C23.3634,125.0621 24.7064,126.4051 26.3634,126.4051 C28.0204,126.4051 29.3634,125.0621 29.3634,123.4051 C29.3634,121.7481 28.0204,120.4051 26.3634,120.4051 Z M212.2951,157.7159 L213.7271,156.2839 L209.4851,152.0419 L208.0541,153.4729 C207.8261,153.4409 207.5981,153.4049 207.3631,153.4049 C207.1291,153.4049 206.9011,153.4409 206.6731,153.4729 L205.2421,152.0419 L200.9991,156.2839 L202.4321,157.7159 C202.3681,158.1739 202.3681,158.6359 202.4321,159.0939 L200.9991,160.5259 L205.2421,164.7679 L206.6731,163.3379 C206.9011,163.3689 207.1291,163.4049 207.3631,163.4049 C207.5981,163.4049 207.8261,163.3689 208.0541,163.3379 L209.4851,164.7679 L213.7271,160.5259 L212.2951,159.0939 C212.3581,158.6359 212.3581,158.1739 212.2951,157.7159 Z M194.3634,105.4051 C192.7064,105.4051 191.3634,106.7481 191.3634,108.4051 C191.3634,110.0621 192.7064,111.4051 194.3634,111.4051 C196.0204,111.4051 197.3634,110.0621 197.3634,108.4051 C197.3634,106.7481 196.0204,105.4051 194.3634,105.4051 Z" id="01"></path>
            </g>
        </g>
    </g>
</svg>