<?xml version="1.0" encoding="UTF-8" standalone="no"?>
<svg width="203px" height="208px" viewBox="0 0 203 208" version="1.1" xmlns="http://www.w3.org/2000/svg" xmlns:xlink="http://www.w3.org/1999/xlink">
    <!-- Generator: Sketch 40.3 (33839) - http://www.bohemiancoding.com/sketch -->
    <title>02</title>
    <desc>Created with Sketch.</desc>
    <defs></defs>
    <g id="Page-1" stroke="none" stroke-width="1" fill="none" fill-rule="evenodd">
        <g id="Artboard" transform="translate(-451.000000, -1525.000000)" fill="#000000">
            <g id="ships&amp;other" transform="translate(120.000000, 1524.000000)">
                <path d="M369.602,181.3935 L368.17,182.8255 C367.711,182.7625 367.249,182.7625 366.791,182.8255 L365.359,181.3935 L361.117,185.6355 L362.549,187.0675 C362.486,187.5265 362.486,187.9885 362.549,188.4465 L361.117,189.8785 L365.359,194.1215 L366.791,192.6885 C367.02,192.7205 367.249,192.7545 367.48,192.7545 C367.711,192.7545 367.941,192.7205 368.17,192.6885 L369.602,194.1215 L373.844,189.8785 L372.412,188.4465 C372.475,187.9885 372.475,187.5265 372.412,187.0685 L373.844,185.6355 L369.602,181.3935 Z M341.4804,166 C339.8234,166 338.4804,167.343 338.4804,169 C338.4804,170.657 339.8234,172 341.4804,172 C343.1374,172 344.4804,170.657 344.4804,169 C344.4804,167.343 343.1374,166 341.4804,166 Z M478.869,102.3689 L455.231,125.3959 L446.857,116.7999 L461.899,102.1469 L466.086,106.4439 L478.979,93.8849 L464.326,78.8419 L470.056,73.2589 L465.87,68.9619 L460.139,74.5449 L445.486,59.5019 L432.592,72.0619 L436.779,76.3599 L421.737,91.0129 L413.363,82.4169 L437.001,59.3909 L382.574,3.5189 L331,53.7599 L385.427,109.6309 L409.065,86.6039 L417.438,95.1999 L398.099,114.0399 L402.285,118.3379 L393.69,126.7109 L410.436,143.9019 L419.032,135.5289 L423.219,139.8269 L442.559,120.9869 L450.932,129.5829 L427.294,152.6089 L481.722,208.4809 L533.296,158.2399 L478.869,102.3689 Z M477.646,195.6989 L520.624,153.8309 L524.811,158.1289 L481.833,199.9969 L477.646,195.6989 Z M478.757,110.8539 L482.944,115.1519 L439.965,157.0179 L435.779,152.7209 L478.757,110.8539 Z M509.461,142.3709 L516.438,149.5339 L473.46,191.4019 L466.482,184.2379 L509.461,142.3709 Z M451.13,168.4789 L444.152,161.3169 L487.131,119.4489 L494.109,126.6129 L451.13,168.4789 Z M498.296,130.9099 L505.274,138.0729 L462.295,179.9399 L455.317,172.7779 L498.296,130.9099 Z M406.583,114.1509 L440.966,80.6569 L457.713,97.8489 L423.33,131.3429 L406.583,114.1509 Z M438.6503,95.4775 L421.4593,112.2235 L425.6453,116.5225 L442.8373,99.7765 L438.6503,95.4775 Z M410.548,135.4179 L402.174,126.8219 L406.472,122.6359 L410.659,126.9339 L414.845,131.2319 L410.548,135.4179 Z M441.077,72.1729 L445.374,67.9859 L470.495,93.7729 L466.197,97.9599 L441.077,72.1729 Z M381.351,96.8479 L424.329,54.9809 L428.517,59.2789 L385.539,101.1469 L381.351,96.8479 Z M382.462,12.0029 L386.65,16.3009 L343.671,58.1689 L339.484,53.8709 L382.462,12.0029 Z M413.165,43.5199 L420.143,50.6839 L377.165,92.5509 L370.187,85.3869 L413.165,43.5199 Z M354.836,69.6299 L347.858,62.4659 L390.836,20.5989 L397.814,27.7619 L354.836,69.6299 Z M402,32.0589 L408.979,39.2229 L366,81.0899 L359.022,73.9269 L402,32.0589 Z M507.9804,40 C518.7324,40 527.4804,31.252 527.4804,20.5 C527.4804,9.748 518.7324,1 507.9804,1 C497.2284,1 488.4804,9.748 488.4804,20.5 C488.4804,31.252 497.2284,40 507.9804,40 Z M507.9804,7 C515.4244,7 521.4804,13.056 521.4804,20.5 C521.4804,27.944 515.4244,34 507.9804,34 C500.5364,34 494.4804,27.944 494.4804,20.5 C494.4804,13.056 500.5364,7 507.9804,7 Z M519.602,74.3935 L518.17,75.8255 C517.711,75.7625 517.249,75.7625 516.791,75.8255 L515.359,74.3935 L511.117,78.6355 L512.549,80.0675 C512.486,80.5265 512.486,80.9885 512.549,81.4465 L511.117,82.8785 L515.359,87.1215 L516.791,85.6885 C517.02,85.7205 517.249,85.7545 517.48,85.7545 C517.711,85.7545 517.941,85.7205 518.17,85.6885 L519.602,87.1215 L523.844,82.8785 L522.412,81.4465 C522.475,80.9885 522.475,80.5265 522.412,80.0685 L523.844,78.6355 L519.602,74.3935 Z M476.4804,47.9743 L476.4804,50.0003 L482.4804,50.0003 L482.4804,47.9743 C482.8494,47.6953 483.1754,47.3683 483.4544,47.0003 L485.4804,47.0003 L485.4804,41.0003 L483.4544,41.0003 C483.1754,40.6313 482.8494,40.3043 482.4804,40.0253 L482.4804,38.0003 L476.4804,38.0003 L476.4804,40.0253 C476.1114,40.3043 475.7854,40.6313 475.5064,41.0003 L473.4804,41.0003 L473.4804,47.0003 L475.5064,47.0003 C475.7854,47.3683 476.1114,47.6953 476.4804,47.9743 Z" id="02"></path>
            </g>
        </g>
    </g>
</svg>