<?xml version="1.0" encoding="UTF-8" standalone="no"?>
<svg width="196px" height="196px" viewBox="0 0 196 196" version="1.1" xmlns="http://www.w3.org/2000/svg" xmlns:xlink="http://www.w3.org/1999/xlink">
    <!-- Generator: Sketch 40.3 (33839) - http://www.bohemiancoding.com/sketch -->
    <title>03</title>
    <desc>Created with Sketch.</desc>
    <defs></defs>
    <g id="Page-1" stroke="none" stroke-width="1" fill="none" fill-rule="evenodd">
        <g id="Artboard" transform="translate(-779.000000, -1531.000000)" fill="#000000">
            <g id="ships&amp;other" transform="translate(120.000000, 1524.000000)">
                <path d="M758.8197,107.603 C757.4547,108.966 755.2357,108.966 753.8707,107.603 C752.5067,106.239 752.5067,104.018 753.8707,102.654 C754.5527,101.972 755.4487,101.63 756.3447,101.63 C757.2417,101.63 758.1367,101.972 758.8197,102.654 C760.1837,104.018 760.1837,106.239 758.8197,107.603 M782.037,126.5774 L773.315,117.8564 L786.043,105.1284 L773.551,92.6354 L782.037,84.1494 L799.007,101.1204 L854.161,45.9674 L815.977,7.7834 L760.824,62.9374 L777.794,79.9074 L769.309,88.3934 L756.345,75.4304 L743.617,88.1584 L735.367,79.9074 L752.337,62.9374 L697.184,7.7834 L659,45.9674 L714.154,101.1204 L731.124,84.1494 L739.375,92.4004 L726.647,105.1284 L739.61,118.0914 L731.124,126.5774 L714.154,109.6064 L659,164.7604 L697.184,202.9434 L752.337,147.7904 L735.367,130.8194 L743.852,122.3344 L756.345,134.8264 L769.073,122.0984 L777.794,130.8194 L760.824,147.7904 L815.977,202.9434 L854.161,164.7604 L799.007,109.6064 L782.037,126.5774 Z M815.977,194.4594 L803.249,181.7314 L832.948,152.0324 L845.676,164.7604 L815.977,194.4594 Z M815.977,135.0614 L828.706,147.7904 L799.007,177.4894 L786.278,164.7604 L815.977,135.0614 Z M799.007,118.0914 L811.735,130.8194 L782.036,160.5184 L769.308,147.7904 L799.007,118.0914 Z M735.131,105.1284 L756.345,83.9144 L777.559,105.1284 L756.345,126.3424 L735.131,105.1284 Z M763.0617,98.412 C759.3587,94.707 753.3317,94.707 749.6287,98.412 C745.9237,102.115 745.9237,108.142 749.6287,111.845 C751.4797,113.698 753.9127,114.624 756.3447,114.624 C758.7777,114.624 761.2107,113.698 763.0617,111.845 C766.7657,108.142 766.7657,102.115 763.0617,98.412 Z M731.125,160.5184 L701.426,130.8194 L714.154,118.0914 L743.853,147.7904 L731.125,160.5184 Z M667.485,164.7604 L680.213,152.0324 L709.912,181.7314 L697.184,194.4594 L667.485,164.7604 Z M697.184,135.0614 L726.883,164.7604 L714.154,177.4894 L684.455,147.7904 L697.184,135.0614 Z M701.426,79.9084 L731.125,50.2094 L743.853,62.9374 L714.154,92.6364 L701.426,79.9084 Z M697.184,16.2684 L709.912,28.9964 L680.213,58.6954 L667.485,45.9674 L697.184,16.2684 Z M726.883,45.9664 L697.184,75.6664 L684.455,62.9374 L714.154,33.2384 L726.883,45.9664 Z M782.036,50.2094 L811.735,79.9084 L799.007,92.6364 L769.308,62.9374 L782.036,50.2094 Z M845.676,45.9674 L832.948,58.6954 L803.249,28.9964 L815.977,16.2684 L845.676,45.9674 Z M815.977,75.6664 L786.278,45.9664 L799.007,33.2384 L828.706,62.9374 L815.977,75.6664 Z M752.4594,19.727 L753.8914,18.295 C754.1204,18.327 754.3494,18.361 754.5804,18.361 C754.8114,18.361 755.0404,18.327 755.2694,18.295 L756.7014,19.727 L760.9434,15.485 L759.5114,14.053 C759.5754,13.595 759.5754,13.133 759.5114,12.675 L760.9434,11.243 L756.7014,7 L755.2694,8.433 C754.8114,8.369 754.3494,8.369 753.8914,8.433 L752.4594,7 L748.2174,11.243 L749.6494,12.675 C749.5864,13.133 749.5864,13.595 749.6494,14.053 L748.2174,15.485 L752.4594,19.727 Z M765.5805,33.3637 C767.2375,33.3637 768.5805,32.0207 768.5805,30.3637 C768.5805,28.7067 767.2375,27.3637 765.5805,27.3637 C763.9235,27.3637 762.5805,28.7067 762.5805,30.3637 C762.5805,32.0207 763.9235,33.3637 765.5805,33.3637 Z" id="03"></path>
            </g>
        </g>
    </g>
</svg>