<?xml version="1.0" encoding="UTF-8" standalone="no"?>
<svg width="211px" height="196px" viewBox="0 0 211 196" version="1.1" xmlns="http://www.w3.org/2000/svg" xmlns:xlink="http://www.w3.org/1999/xlink">
    <!-- Generator: Sketch 40.3 (33839) - http://www.bohemiancoding.com/sketch -->
    <title>04</title>
    <desc>Created with Sketch.</desc>
    <defs></defs>
    <g id="Page-1" stroke="none" stroke-width="1" fill="none" fill-rule="evenodd">
        <g id="Artboard" transform="translate(-123.000000, -1846.000000)" fill="#000000">
            <g id="ships&amp;other" transform="translate(120.000000, 1524.000000)">
                <path d="M78.5754,433.98 C78.7874,433.015 79.3634,432.19 80.1964,431.658 C80.7994,431.273 81.4834,431.074 82.1814,431.074 C82.4484,431.074 82.7174,431.103 82.9834,431.162 C83.9484,431.374 84.7734,431.95 85.3054,432.783 C85.8384,433.615 86.0134,434.605 85.8024,435.57 C85.5904,436.535 85.0134,437.36 84.1804,437.892 C83.3484,438.424 82.3604,438.602 81.3934,438.388 C80.4294,438.176 79.6034,437.6 79.0714,436.767 C78.5394,435.935 78.3634,434.945 78.5754,433.98 L78.5754,433.98 Z M207.8424,470.802 L154.2284,470.802 L176.5874,462.206 C178.4284,464.02 180.8894,465.034 183.3994,465.034 C185.1864,465.033 186.9944,464.556 188.6084,463.524 C190.7914,462.128 192.3004,459.974 192.8574,457.443 C193.4144,454.913 192.9524,452.321 191.5564,450.138 C190.1614,447.955 187.9994,446.448 185.4694,445.891 C182.9384,445.333 180.3424,445.796 178.1594,447.193 C177.1174,447.859 176.2554,448.697 175.5664,449.64 L146.4864,442.37 C146.3874,440.784 145.8994,439.202 144.9844,437.771 C142.1034,433.265 136.0954,431.943 131.5884,434.824 C127.9854,437.126 126.4254,441.371 127.4144,445.307 L87.8044,470.802 L68.8424,470.802 L68.8424,447.914 L75.9014,442.087 C77.1124,443.146 78.5324,443.892 80.1474,444.248 C80.8464,444.402 81.5294,444.478 82.2284,444.478 C84.0594,444.478 85.8434,443.957 87.4244,442.947 C89.6064,441.551 91.1104,439.389 91.6664,436.859 C92.2244,434.329 91.7584,431.734 90.3634,429.55 C88.9674,427.368 86.8044,425.859 84.2744,425.302 C81.7434,424.745 79.1484,425.208 76.9644,426.603 C74.7824,427.999 73.2734,430.161 72.7164,432.691 C72.4084,434.09 72.5084,435.507 72.8094,436.865 L68.8424,440.17 L68.8424,402.802 L155.4464,402.802 L204.7414,402.802 L207.8424,402.802 L207.8424,470.802 Z M204.9274,494.023 C204.9274,503.453 197.2554,511.124 187.8254,511.124 C178.3954,511.124 170.7234,503.453 170.7234,494.023 C170.7234,484.593 178.3954,476.921 187.8254,476.921 C197.2554,476.921 204.9274,484.593 204.9274,494.023 L204.9274,494.023 Z M154.4164,494.023 C154.4164,503.453 146.7444,511.124 137.3144,511.124 C127.8854,511.124 120.2134,503.453 120.2134,494.023 C120.2134,484.593 127.8854,476.921 137.3144,476.921 C146.7444,476.921 154.4164,484.593 154.4164,494.023 L154.4164,494.023 Z M181.3914,452.249 C181.9944,451.864 182.6794,451.665 183.3764,451.665 C183.6434,451.665 183.9124,451.694 184.1794,451.752 C185.1444,451.965 185.9694,452.541 186.5004,453.373 L186.5014,453.374 C187.0334,454.206 187.2094,455.196 186.9974,456.162 C186.7854,457.126 186.2094,457.952 185.3764,458.484 C183.6594,459.583 181.3664,459.079 180.2664,457.359 C179.1684,455.64 179.6724,453.347 181.3914,452.249 L181.3914,452.249 Z M134.8204,439.878 C135.4354,439.485 136.1254,439.297 136.8064,439.297 C138.0274,439.297 139.2244,439.9 139.9294,441.003 C141.0284,442.722 140.5234,445.015 138.8044,446.114 C137.9714,446.646 136.9794,446.821 136.0174,446.61 C135.0524,446.397 134.2274,445.822 133.6954,444.989 C132.5964,443.27 133.1004,440.977 134.8204,439.878 L134.8204,439.878 Z M98.8704,470.802 L130.6034,450.389 C131.7824,451.373 133.1854,452.1 134.7274,452.439 C135.4284,452.594 136.1324,452.685 136.8324,452.685 C138.6624,452.685 140.4584,452.171 142.0374,451.161 C143.2734,450.371 144.2604,449.344 144.9964,448.178 L173.6954,455.355 C173.6944,455.872 173.7304,456.331 173.8124,456.846 L137.6074,470.802 L98.8704,470.802 Z M103.9044,494.023 C103.9044,503.453 96.2334,511.124 86.8044,511.124 C77.3744,511.124 69.7024,503.453 69.7024,494.023 C69.7024,484.593 77.3744,476.921 86.8044,476.921 C96.2334,476.921 103.9044,484.593 103.9044,494.023 L103.9044,494.023 Z M95.0504,384.248 C102.2834,384.248 108.2524,389.802 108.9824,396.802 L81.1174,396.802 C81.8474,389.802 87.8164,384.248 95.0504,384.248 L95.0504,384.248 Z M161.8424,396.802 L198.8424,396.802 L198.8424,383.802 L161.8424,383.802 L161.8424,396.802 Z M10.7484,440.928 C10.0504,440.229 9.6654,439.3 9.6654,438.312 C9.6654,437.324 10.0504,436.395 10.7494,435.696 C11.4474,434.997 12.3764,434.612 13.3644,434.612 C14.3524,434.612 15.2814,434.997 15.9794,435.696 L15.9804,435.696 C16.6794,436.395 17.0634,437.324 17.0634,438.312 C17.0634,439.3 16.6794,440.229 15.9804,440.928 C14.5824,442.325 12.1464,442.325 10.7484,440.928 L10.7484,440.928 Z M78.8424,359.802 L109.8424,359.802 L109.8424,328.802 L78.8424,328.802 L78.8424,359.802 Z M213.8424,396.802 L204.8424,396.802 L204.8424,377.802 L155.8424,377.802 L155.8424,396.802 L114.9854,396.802 C114.3024,386.802 107.0814,379.663 97.8424,378.364 L97.8424,365.802 L115.8424,365.802 L115.8424,322.802 L72.8424,322.802 L72.8424,365.802 L91.8424,365.802 L91.8424,378.428 C82.8024,379.894 75.7874,387.802 75.1154,396.802 L62.8424,396.802 L62.8424,445.065 L38.8074,464.6 L21.5224,443.624 C23.9854,439.864 23.5464,434.755 20.2444,431.454 C18.4124,429.621 15.9664,428.612 13.3754,428.612 C10.7844,428.612 8.3424,429.622 6.5114,431.454 C2.7294,435.235 2.7264,441.389 6.5084,445.17 C8.3994,447.062 10.8824,448.007 13.3654,448.007 C14.5304,448.007 15.6924,447.791 16.7964,447.375 L37.9674,473.028 L62.8424,452.808 L62.8424,476.802 L71.2884,476.802 C66.6314,480.802 63.7024,487.192 63.7024,493.963 C63.7024,506.701 74.0654,517.094 86.8044,517.094 C99.5414,517.094 109.9044,506.686 109.9044,493.949 C109.9044,487.177 106.9754,480.802 102.3184,476.802 L121.7994,476.802 C117.1424,480.802 114.2134,487.192 114.2134,493.963 C114.2134,506.701 124.5764,517.094 137.3144,517.094 C150.0534,517.094 160.4164,506.686 160.4164,493.949 C160.4164,487.177 157.4874,480.802 152.8294,476.802 L172.3104,476.802 C167.6524,480.802 164.7234,487.192 164.7234,493.963 C164.7234,506.701 175.0874,517.094 187.8254,517.094 C200.5634,517.094 210.9274,506.686 210.9274,493.949 C210.9274,487.177 207.9984,480.802 203.3404,476.802 L213.8424,476.802 L213.8424,396.802 Z M94.5347,340.9432 C92.8267,340.9432 91.4417,342.3282 91.4417,344.0362 C91.4417,345.7442 92.8267,347.1282 94.5347,347.1282 C96.2427,347.1282 97.6277,345.7442 97.6277,344.0362 C97.6277,342.3282 96.2427,340.9432 94.5347,340.9432 Z M84.1867,491.4068 C84.9087,490.6848 85.8557,490.3248 86.8037,490.3248 C87.7507,490.3248 88.6987,490.6848 89.4197,491.4058 C90.8627,492.8488 90.8627,495.1968 89.4197,496.6378 C87.9777,498.0808 85.6307,498.0818 84.1867,496.6388 C82.7447,495.1968 82.7447,492.8488 84.1867,491.4068 Z M86.8027,503.7178 C89.2877,503.7178 91.7717,502.7718 93.6627,500.8818 C97.4437,497.0998 97.4447,490.9468 93.6637,487.1638 L93.6627,487.1628 C89.8787,483.3828 83.7267,483.3838 79.9437,487.1638 C76.1627,490.9468 76.1637,497.0998 79.9447,500.8828 C81.8357,502.7718 84.3197,503.7178 86.8027,503.7178 Z M134.1965,491.4058 C134.8955,490.7078 135.8245,490.3228 136.8125,490.3228 C137.8005,490.3228 138.7295,490.7078 139.4285,491.4058 C140.8715,492.8488 140.8715,495.1968 139.4285,496.6388 C138.0305,498.0358 135.5945,498.0368 134.1965,496.6378 C133.4975,495.9398 133.1125,495.0108 133.1125,494.0228 C133.1125,493.0348 133.4975,492.1048 134.1965,491.4058 Z M136.8125,503.7188 C139.2965,503.7188 141.7805,502.7728 143.6715,500.8818 C147.4525,497.0998 147.4535,490.9468 143.6725,487.1638 L143.6715,487.1638 C139.8895,483.3808 133.7355,483.3808 129.9545,487.1638 C128.1215,488.9958 127.1125,491.4318 127.1125,494.0228 C127.1125,496.6138 128.1225,499.0508 129.9545,500.8818 C131.8445,502.7728 134.3295,503.7188 136.8125,503.7188 Z M185.2092,491.4058 C185.9312,490.6848 186.8782,490.3238 187.8252,490.3238 C188.7722,490.3238 189.7202,490.6848 190.4412,491.4058 C191.1412,492.1048 191.5252,493.0348 191.5252,494.0228 C191.5252,495.0108 191.1412,495.9398 190.4412,496.6388 C189.0432,498.0358 186.6072,498.0358 185.2092,496.6388 C183.7672,495.1968 183.7672,492.8488 185.2092,491.4058 Z M187.8252,503.7188 C190.3092,503.7188 192.7932,502.7728 194.6842,500.8828 C196.5162,499.0508 197.5252,496.6138 197.5252,494.0228 C197.5252,491.4318 196.5172,488.9958 194.6842,487.1638 C190.9032,483.3818 184.7502,483.3818 180.9662,487.1638 C177.1852,490.9468 177.1862,497.0998 180.9672,500.8818 C182.8572,502.7728 185.3412,503.7188 187.8252,503.7188 Z M34.684,341.802 L18.842,322 L3,341.802 L18.842,361.605 L34.684,341.802 Z M18.842,331.605 L27,341.802 L18.842,352 L10.684,341.802 L18.842,331.605 Z" id="04"></path>
            </g>
        </g>
    </g>
</svg>