<?xml version="1.0" encoding="UTF-8" standalone="no"?>
<svg width="195px" height="213px" viewBox="0 0 195 213" version="1.1" xmlns="http://www.w3.org/2000/svg" xmlns:xlink="http://www.w3.org/1999/xlink">
    <!-- Generator: Sketch 40.3 (33839) - http://www.bohemiancoding.com/sketch -->
    <title>05</title>
    <desc>Created with Sketch.</desc>
    <defs></defs>
    <g id="Page-1" stroke="none" stroke-width="1" fill="none" fill-rule="evenodd">
        <g id="Artboard" transform="translate(-454.000000, -1837.000000)" fill="#000000">
            <g id="ships&amp;other" transform="translate(120.000000, 1524.000000)">
                <path d="M481.3657,411.1719 C477.8557,411.1719 474.9997,408.3169 474.9997,404.8059 C474.9997,401.2959 477.8557,398.4409 481.3657,398.4409 C484.8757,398.4409 487.7307,401.2959 487.7307,404.8059 C487.7307,408.3169 484.8757,411.1719 481.3657,411.1719 L481.3657,411.1719 Z M474.9997,446.8499 C467.8277,448.8239 461.7847,458.0109 456.9997,474.2399 L456.9997,404.4409 L456.9997,400.2949 L469.1067,406.3489 C469.5877,410.1849 471.8307,413.4729 474.9997,415.3869 L474.9997,446.8499 Z M465.9057,511.1039 L461.2427,506.4409 L470.1807,506.4409 L465.9057,511.1039 Z M425.2427,506.4409 L447.4707,506.4409 L436.0567,517.2539 L425.2427,506.4409 Z M406.9057,511.1039 L402.2427,506.4409 L411.1807,506.4409 L406.9057,511.1039 Z M384.9997,404.8059 C384.9997,401.2959 387.8557,398.4409 391.3657,398.4409 C394.8757,398.4409 397.7307,401.2959 397.7307,404.8059 C397.7307,408.3169 394.8757,411.1719 391.3657,411.1719 C387.8557,411.1719 384.9997,408.3169 384.9997,404.8059 L384.9997,404.8059 Z M403.6727,405.9589 L414.9997,400.2949 L414.9997,404.4409 L414.9997,474.7239 C410.0807,457.9809 404.1667,448.8049 396.9997,446.8459 L396.9997,415.7999 C400.6657,413.9129 403.2727,410.2549 403.6727,405.9589 L403.6727,405.9589 Z M396.9997,500.4409 L396.9997,453.3519 C405.0647,458.2269 411.7297,481.7279 414.5547,500.4409 L396.9997,500.4409 Z M420.9997,500.4409 L450.9997,500.4409 L450.9997,404.4409 L420.9997,404.4409 L420.9997,500.4409 Z M475.0007,500.4409 L457.4277,500.4409 C460.1307,481.6779 466.7487,458.0899 475.0047,453.3089 C475.0077,462.3499 475.0047,485.3799 475.0007,500.4409 L475.0007,500.4409 Z M420.9997,398.4409 L450.9997,398.4409 L450.9997,392.4409 L420.9997,392.4409 L420.9997,398.4409 Z M426.9997,386.4409 L444.9997,386.4409 L444.9997,380.4409 L426.9997,380.4409 L426.9997,386.4409 Z M435.9997,333.8809 L440.9677,350.4409 L431.0327,350.4409 L435.9997,333.8809 Z M426.9997,374.4409 L444.9997,374.4409 L444.9997,368.4409 L426.9997,368.4409 L426.9997,374.4409 Z M426.9997,362.4409 L444.9997,362.4409 L444.9997,356.4409 L426.9997,356.4409 L426.9997,362.4409 Z M481.3657,392.4409 C476.2277,392.4409 471.8147,395.5909 469.9497,400.0609 L456.9997,393.5859 L456.9997,386.4409 L450.9997,386.4409 L450.9997,350.4409 L447.2327,350.4409 L435.9997,312.9999 L424.7677,350.4409 L420.9997,350.4409 L420.9997,386.4409 L414.9997,386.4409 L414.9997,393.5859 L402.6447,399.7639 C400.7107,395.4539 396.3877,392.4409 391.3657,392.4409 C384.5477,392.4409 378.9997,397.9869 378.9997,404.8059 C378.9997,411.5009 384.3517,416.9579 390.9997,417.1529 L390.9997,446.4409 L390.9997,449.4409 L390.9997,506.4409 L393.7577,506.4409 L407.0947,519.7769 L418.0947,507.7769 L435.9437,525.6269 L454.4297,508.1129 L466.0947,519.7769 L478.3197,506.4409 L480.9987,506.4409 L481.0057,457.8779 L481.0037,451.7589 C481.0037,450.9509 481.0007,450.1589 480.9227,449.4409 L480.9997,449.4409 L480.9997,417.1529 C481.1227,417.1569 481.2427,417.1719 481.3657,417.1719 C488.1837,417.1719 493.7307,411.6239 493.7307,404.8059 C493.7307,397.9869 488.1837,392.4409 481.3657,392.4409 Z M361,385.0472 L361,383.4402 L355,383.4402 L355,385.4772 C354.672,385.7642 354.368,386.0782 354.124,386.4402 L352,386.4402 L352,392.4402 L354.473,392.4402 C354.636,392.6332 354.81,392.8122 355,392.9772 L355,395.4402 L361,395.4402 L361,393.4082 C361.406,393.1422 361.758,392.8092 362.071,392.4402 L364,392.4402 L364,386.4402 L362.42,386.4402 C362.046,385.8852 361.56,385.4142 361,385.0472 Z M527.6302,332.0232 L529.0622,330.5912 L524.8192,326.3482 L523.3862,327.7822 C522.9292,327.7192 522.4682,327.7192 522.0112,327.7822 L520.5772,326.3482 L516.3342,330.5912 L517.7672,332.0232 C517.7032,332.4812 517.7032,332.9432 517.7672,333.4012 L516.3342,334.8342 L520.5772,339.0762 L522.0092,337.6442 C522.2382,337.6762 522.4672,337.7102 522.6982,337.7102 C522.9292,337.7102 523.1582,337.6762 523.3872,337.6442 L524.8192,339.0762 L529.0622,334.8342 L527.6302,333.4012 C527.6932,332.9432 527.6932,332.4812 527.6302,332.0232 Z M514.8789,369.2608 L513.4479,370.6918 C513.2199,370.6598 512.9919,370.6238 512.7569,370.6238 C512.5229,370.6238 512.2949,370.6598 512.0669,370.6918 L510.6359,369.2608 L506.3939,373.5028 L507.8249,374.9338 C507.7929,375.1618 507.7569,375.3898 507.7569,375.6238 C507.7569,375.8588 507.7929,376.0868 507.8249,376.3148 L506.3939,377.7458 L510.6359,381.9888 L512.0669,380.5568 C512.2959,380.5878 512.5229,380.6238 512.7569,380.6238 C512.9919,380.6238 513.2189,380.5878 513.4469,380.5568 L514.8789,381.9888 L519.1209,377.7458 L517.6899,376.3148 C517.7219,376.0868 517.7569,375.8588 517.7569,375.6238 C517.7569,375.3898 517.7219,375.1618 517.6899,374.9338 L519.1209,373.5028 L514.8789,369.2608 Z M353.5,317.4405 C342.748,317.4405 334,326.1885 334,336.9405 C334,347.6925 342.748,356.4405 353.5,356.4405 C364.252,356.4405 373,347.6925 373,336.9405 C373,326.1885 364.252,317.4405 353.5,317.4405 Z M353.5,350.4405 C346.056,350.4405 340,344.3845 340,336.9405 C340,329.4965 346.056,323.4405 353.5,323.4405 C360.944,323.4405 367,329.4965 367,336.9405 C367,344.3845 360.944,350.4405 353.5,350.4405 Z" id="05"></path>
            </g>
        </g>
    </g>
</svg>