<?xml version="1.0" encoding="UTF-8" standalone="no"?>
<svg width="198px" height="210px" viewBox="0 0 198 210" version="1.1" xmlns="http://www.w3.org/2000/svg" xmlns:xlink="http://www.w3.org/1999/xlink">
    <!-- Generator: Sketch 40.3 (33839) - http://www.bohemiancoding.com/sketch -->
    <title>06</title>
    <desc>Created with Sketch.</desc>
    <defs></defs>
    <g id="Page-1" stroke="none" stroke-width="1" fill="none" fill-rule="evenodd">
        <g id="Artboard" transform="translate(-778.000000, -1838.000000)" fill="#000000">
            <g id="ships&amp;other" transform="translate(120.000000, 1524.000000)">
                <path d="M749.1412,483.0664 C749.2572,482.1384 749.7272,481.3114 750.4652,480.7374 C751.0852,480.2544 751.8322,480.0004 752.6062,480.0004 C752.7522,480.0004 752.9002,480.0084 753.0472,480.0274 C753.9742,480.1434 754.8022,480.6144 755.3752,481.3514 C755.9492,482.0884 756.2022,483.0054 756.0852,483.9334 C755.9702,484.8614 755.4992,485.6884 754.7622,486.2624 C754.0232,486.8364 753.1032,487.0874 752.1792,486.9724 C751.2522,486.8564 750.4252,486.3854 749.8512,485.6484 C749.2772,484.9114 749.0252,483.9944 749.1412,483.0664 M750.3629,314 C723.8959,314 702.3629,335.532 702.3629,362 C702.3629,381.927 729.6069,435.677 742.1819,458 L723.3629,458 L723.3629,460.513 L707.2009,509 L723.3629,509 L724.5089,509 L732.0089,524 L773.2169,524 L780.7169,509 L781.8629,509 L798.0259,509 L781.3629,460.513 L781.3629,458 L758.5449,458 C771.1199,435.678 798.3629,381.926 798.3629,362 C798.3629,335.532 776.8309,314 750.3629,314 Z M749.0889,458 C737.0139,437.155 711.0729,386.001 708.5769,365 L792.1499,365 C789.6539,386.001 763.7119,437.156 751.6379,458 L749.0889,458 Z M729.3629,503 L775.3629,503 L775.3629,464 L729.3629,464 L729.3629,503 Z M751.4352,492.9254 C751.8352,492.9764 752.2352,493.0014 752.6332,493.0014 C754.7322,493.0014 756.7612,492.3084 758.4452,490.9984 C760.4482,489.4404 761.7242,487.1964 762.0392,484.6774 C762.3542,482.1604 761.6692,479.6704 760.1112,477.6684 C758.5542,475.6654 756.3092,474.3884 753.7912,474.0744 C751.2762,473.7564 748.7842,474.4434 746.7812,476.0024 C744.7782,477.5594 743.5022,479.8034 743.1872,482.3224 C742.8722,484.8394 743.5572,487.3294 745.1152,489.3324 C746.6732,491.3354 748.9172,492.6114 751.4352,492.9254 Z M789.7009,503 L781.3629,503 L781.3629,479.487 L789.7009,503 Z M769.5089,518 L735.7169,518 L731.2169,509 L774.0089,509 L769.5089,518 Z M715.5259,503 L723.3629,479.487 L723.3629,503 L715.5259,503 Z M738.3659,321.755 L710.1189,350.003 C714.1589,336.477 724.8399,325.795 738.3659,321.755 Z M753.3629,321.242 L791.1209,359 L753.3629,359 L753.3629,321.242 Z M747.3629,359 L709.6059,359 L747.3629,321.242 L747.3629,359 Z M790.6079,350.003 L762.3609,321.755 C775.8869,325.795 786.5679,336.477 790.6079,350.003 Z M835.8634,368 C825.1114,368 816.3634,376.748 816.3634,387.5 C816.3634,398.252 825.1114,407 835.8634,407 C846.6154,407 855.3634,398.252 855.3634,387.5 C855.3634,376.748 846.6154,368 835.8634,368 Z M835.8634,401 C828.4194,401 822.3634,394.944 822.3634,387.5 C822.3634,380.056 828.4194,374 835.8634,374 C843.3074,374 849.3634,380.056 849.3634,387.5 C849.3634,394.944 843.3074,401 835.8634,401 Z M804.3634,425 C802.7064,425 801.3634,426.343 801.3634,428 C801.3634,429.657 802.7064,431 804.3634,431 C806.0204,431 807.3634,429.657 807.3634,428 C807.3634,426.343 806.0204,425 804.3634,425 Z M837.485,471.6367 L836.054,473.0677 C835.826,473.0357 835.598,472.9997 835.363,472.9997 C835.129,472.9997 834.901,473.0357 834.673,473.0677 L833.242,471.6367 L829,475.8787 L830.432,477.3107 C830.368,477.7687 830.368,478.2307 830.432,478.6887 L829,480.1207 L833.242,484.3637 L834.673,482.9327 C834.901,482.9637 835.129,482.9997 835.363,482.9997 C835.598,482.9997 835.826,482.9637 836.054,482.9327 L837.485,484.3637 L841.727,480.1207 L840.295,478.6887 C840.358,478.2307 840.359,477.7687 840.295,477.3107 L841.727,475.8787 L837.485,471.6367 Z M666.485,347.6367 L665.054,349.0677 C664.826,349.0357 664.598,348.9997 664.363,348.9997 C664.129,348.9997 663.901,349.0357 663.673,349.0677 L662.242,347.6367 L658,351.8787 L659.432,353.3107 C659.368,353.7687 659.368,354.2307 659.432,354.6887 L658,356.1207 L662.242,360.3637 L663.673,358.9327 C663.901,358.9637 664.129,358.9997 664.363,358.9997 C664.598,358.9997 664.826,358.9637 665.054,358.9327 L666.485,360.3637 L670.727,356.1207 L669.295,354.6887 C669.358,354.2307 669.359,353.7687 669.295,353.3107 L670.727,351.8787 L666.485,347.6367 Z" id="06"></path>
            </g>
        </g>
    </g>
</svg>