<?xml version="1.0" encoding="UTF-8" standalone="no"?>
<svg width="215px" height="209px" viewBox="0 0 215 209" version="1.1" xmlns="http://www.w3.org/2000/svg" xmlns:xlink="http://www.w3.org/1999/xlink">
    <!-- Generator: Sketch 40.3 (33839) - http://www.bohemiancoding.com/sketch -->
    <title>07</title>
    <desc>Created with Sketch.</desc>
    <defs></defs>
    <g id="Page-1" stroke="none" stroke-width="1" fill="none" fill-rule="evenodd">
        <g id="Artboard" transform="translate(-121.000000, -2153.000000)" fill="#000000">
            <g id="ships&amp;other" transform="translate(120.000000, 1524.000000)">
                <path d="M27.3631,661.6069 C29.0201,661.6069 30.3631,660.2639 30.3631,658.6069 C30.3631,656.9499 29.0201,655.6069 27.3631,655.6069 C25.7061,655.6069 24.3631,656.9499 24.3631,658.6069 C24.3631,660.2639 25.7061,661.6069 27.3631,661.6069 Z M182.0951,700.6069 L177.2871,700.6069 C175.7091,663.9479 145.4041,634.6069 108.3631,634.6069 C71.3221,634.6069 41.0171,663.9479 39.4391,700.6069 L34.6311,700.6069 L1.4991,758.0349 L6.0001,758.5849 C6.4831,758.6439 42.1571,762.9729 75.4051,765.2459 C76.2621,782.6839 90.7161,796.6069 108.3631,796.6069 C126.0141,796.6069 140.4721,782.6759 141.3221,765.2319 C174.4511,762.9549 210.2371,758.6439 210.7241,758.5859 L215.2291,758.0389 L182.0951,700.6069 Z M108.3631,760.6069 C77.9711,760.6069 26.6601,754.9459 11.2381,753.1609 L38.0951,706.6069 L178.6311,706.6069 L205.4861,753.1579 C189.9971,754.9389 138.3581,760.6069 108.3631,760.6069 Z M108.3631,790.6069 C94.1591,790.6069 82.4901,779.5789 81.4471,765.6379 C91.1571,766.2289 100.4541,766.6069 108.3631,766.6069 C116.2171,766.6069 125.5271,766.2239 135.2801,765.6249 C134.2431,779.5729 122.5711,790.6069 108.3631,790.6069 Z M108.3631,640.6069 C142.0951,640.6069 169.7151,667.2569 171.2871,700.6069 L45.4391,700.6069 C47.0111,667.2569 74.6311,640.6069 108.3631,640.6069 Z M108.3652,718.6069 C108.3182,718.6069 108.2702,718.6079 108.2222,718.6079 C104.6132,718.6449 101.2352,720.0859 98.7102,722.6649 C96.1842,725.2429 94.8142,728.6379 94.8512,732.2469 C94.9282,739.6499 100.9762,745.6069 108.3632,745.6069 L108.5032,745.6069 C115.9542,745.6069 121.9522,739.4169 121.8752,731.9669 C121.7972,724.5649 115.7512,718.6069 108.3652,718.6069 Z M108.4412,739.6069 L108.3632,739.6069 C104.2562,739.6069 100.8942,736.2989 100.8512,732.1839 C100.8302,730.1779 101.5912,728.2899 102.9962,726.8559 C104.4002,725.4219 106.2782,724.6069 108.2852,724.6069 L108.3652,724.6069 C110.3412,724.6069 112.2052,725.3679 113.6202,726.7529 C115.0532,728.1569 115.8542,730.0229 115.8752,732.0289 C115.9182,736.1709 112.5842,739.6069 108.4412,739.6069 Z M141.3631,727.6069 C139.7061,727.6069 138.3631,728.9499 138.3631,730.6069 C138.3631,732.2639 139.7061,733.6069 141.3631,733.6069 C143.0201,733.6069 144.3631,732.2639 144.3631,730.6069 C144.3631,728.9499 143.0201,727.6069 141.3631,727.6069 Z M165.3631,727.6069 C163.7061,727.6069 162.3631,728.9499 162.3631,730.6069 C162.3631,732.2639 163.7061,733.6069 165.3631,733.6069 C167.0201,733.6069 168.3631,732.2639 168.3631,730.6069 C168.3631,728.9499 167.0201,727.6069 165.3631,727.6069 Z M51.3631,727.6069 C49.7061,727.6069 48.3631,728.9499 48.3631,730.6069 C48.3631,732.2639 49.7061,733.6069 51.3631,733.6069 C53.0201,733.6069 54.3631,732.2639 54.3631,730.6069 C54.3631,728.9499 53.0201,727.6069 51.3631,727.6069 Z M75.3631,727.6069 C73.7061,727.6069 72.3631,728.9499 72.3631,730.6069 C72.3631,732.2639 73.7061,733.6069 75.3631,733.6069 C77.0201,733.6069 78.3631,732.2639 78.3631,730.6069 C78.3631,728.9499 77.0201,727.6069 75.3631,727.6069 Z M105.3628,835.607 L111.3628,835.607 L111.3628,805.607 L105.3628,805.607 L105.3628,835.607 Z M57.867,833.9429 L62.859,837.2709 L86.859,801.2709 L81.867,797.9429 L57.867,833.9429 Z M129.867,801.271 L153.867,837.271 L158.859,833.943 L134.859,797.943 L129.867,801.271 Z M65.5389,778.7222 L23.5389,790.7222 L25.1869,796.4922 L67.1869,784.4922 L65.5389,778.7222 Z M149.5389,784.4917 L191.5389,796.4917 L193.1869,790.7217 L151.1869,778.7217 L149.5389,784.4917 Z M5.242,641.728 L6.675,640.295 C6.903,640.327 7.132,640.361 7.362,640.361 C7.593,640.361 7.822,640.327 8.051,640.295 L9.484,641.728 L13.726,637.486 L12.295,636.054 C12.358,635.595 12.358,635.133 12.295,634.675 L13.726,633.243 L9.484,629 L8.052,630.433 C7.594,630.37 7.132,630.37 6.674,630.433 L5.242,629 L1,633.243 L2.431,634.674 C2.368,635.133 2.368,635.596 2.431,636.054 L1,637.486 L5.242,641.728 Z M185.242,654.728 L186.675,653.295 C186.903,653.327 187.132,653.361 187.362,653.361 C187.593,653.361 187.822,653.327 188.051,653.295 L189.484,654.728 L193.726,650.486 L192.295,649.054 C192.358,648.595 192.358,648.133 192.295,647.675 L193.726,646.243 L189.484,642 L188.052,643.433 C187.594,643.37 187.132,643.37 186.675,643.433 L185.242,642 L181,646.243 L182.431,647.674 C182.368,648.133 182.368,648.596 182.431,649.054 L181,650.486 L185.242,654.728 Z" id="07"></path>
            </g>
        </g>
    </g>
</svg>