<?xml version="1.0" encoding="UTF-8" standalone="no"?>
<svg width="201px" height="214px" viewBox="0 0 201 214" version="1.1" xmlns="http://www.w3.org/2000/svg" xmlns:xlink="http://www.w3.org/1999/xlink">
    <!-- Generator: Sketch 40.3 (33839) - http://www.bohemiancoding.com/sketch -->
    <title>08</title>
    <desc>Created with Sketch.</desc>
    <defs></defs>
    <g id="Page-1" stroke="none" stroke-width="1" fill="none" fill-rule="evenodd">
        <g id="Artboard" transform="translate(-452.000000, -2150.000000)" fill="#000000">
            <g id="ships&amp;other" transform="translate(120.000000, 1524.000000)">
                <path d="M428.1406,795.0591 C428.2566,794.1311 428.7276,793.3041 429.4646,792.7301 C430.0856,792.2471 430.8326,791.9931 431.6066,791.9931 C431.7526,791.9931 431.9006,792.0011 432.0476,792.0201 C433.9616,792.2591 435.3256,794.0121 435.0856,795.9271 C434.9696,796.8551 434.4996,797.6811 433.7616,798.2551 C433.0236,798.8301 432.1046,799.0821 431.1796,798.9651 C429.2656,798.7261 427.9026,796.9731 428.1406,795.0591 M499.5519,733 L491.0739,626 L475.9999,626 L475.9999,698.979 L436.4809,713 L425.5189,713 L385.9999,698.979 L385.9999,626 L370.9259,626 L362.4479,733 L385.9999,733 L385.9999,725.344 L409.9999,744.544 L409.9999,756.708 C395.9999,764.307 387.1949,778.84 387.1949,795.493 C387.1949,819.979 407.1219,839.9 431.6079,839.9 C456.0939,839.9 476.0079,819.979 476.0079,795.493 C476.0079,778.362 465.9999,763.476 451.9999,756.073 L451.9999,744.51 L475.9999,725.344 L475.9999,733 L499.5519,733 Z M450.1729,738.314 L441.0709,717.823 L475.9999,705.35 L475.9999,717.661 L450.1729,738.314 Z M415.9999,751 L415.9999,743.673 L426.9489,719 L435.0509,719 L445.9999,743.77 L445.9999,751 L415.9999,751 Z M470.0219,795.493 C470.0219,816.67 452.7919,833.9 431.6129,833.9 C410.4359,833.9 393.2059,816.67 393.2059,795.493 C393.2059,774.315 410.4359,757.085 431.6129,757.085 C452.7919,757.085 470.0219,774.315 470.0219,795.493 Z M422.1876,794.3161 C421.5386,799.5121 425.2396,804.2691 430.4356,804.9181 C430.8356,804.9691 431.2356,804.9941 431.6326,804.9941 C433.7326,804.9941 435.7616,804.3011 437.4456,802.9921 C439.4486,801.4331 440.7246,799.1891 441.0386,796.6711 C441.6896,791.4741 437.9896,786.7161 432.7916,786.0671 C430.2766,785.7481 427.7846,786.4361 425.7816,787.9951 C423.7786,789.5521 422.5016,791.7961 422.1876,794.3161 Z M385.9999,705.35 L420.9349,717.823 L411.8219,738.314 L385.9999,717.661 L385.9999,705.35 Z M379.9999,727 L368.9439,727 L376.4669,632 L379.9999,632 L379.9999,696.836 L379.9999,696.829 L379.9999,720.527 L379.9999,720.544 L379.9999,727 Z M481.9999,632 L485.5329,632 L493.0559,727 L481.9999,727 L481.9999,720.544 L481.9999,720.527 L481.9999,696.829 L481.9999,696.836 L481.9999,632 Z M363.1211,778.3931 L361.6881,779.8261 C361.2311,779.7631 360.7691,779.7631 360.3121,779.8261 L358.8791,778.3931 L354.6371,782.6351 L356.0681,784.0671 C356.0051,784.5251 356.0051,784.9881 356.0681,785.4471 L354.6371,786.8781 L358.8791,791.1211 L360.3111,789.6881 C360.5401,789.7191 360.7691,789.7531 360.9991,789.7531 C361.2301,789.7531 361.4591,789.7191 361.6881,789.6881 L363.1211,791.1211 L367.3631,786.8781 L365.9321,785.4471 C365.9951,784.9881 365.9951,784.5261 365.9321,784.0671 L367.3631,782.6351 L363.1211,778.3931 Z M335,762.9995 C333.343,762.9995 332,764.3425 332,765.9995 C332,767.6565 333.343,768.9995 335,768.9995 C336.657,768.9995 338,767.6565 338,765.9995 C338,764.3425 336.657,762.9995 335,762.9995 Z M533,633.9995 L530.974,633.9995 C530.695,633.6305 530.369,633.3045 530,633.0255 L530,630.9995 L524,630.9995 L524,633.0255 C523.631,633.3045 523.305,633.6305 523.026,633.9995 L521,633.9995 L521,639.9995 L523.026,639.9995 C523.305,640.3685 523.631,640.6945 524,640.9735 L524,642.9995 L530,642.9995 L530,640.9735 C530.369,640.6945 530.695,640.3685 530.974,639.9995 L533,639.9995 L533,633.9995 Z" id="08"></path>
            </g>
        </g>
    </g>
</svg>