<?xml version="1.0" encoding="UTF-8" standalone="no"?>
<svg width="191px" height="202px" viewBox="0 0 191 202" version="1.1" xmlns="http://www.w3.org/2000/svg" xmlns:xlink="http://www.w3.org/1999/xlink">
    <!-- Generator: Sketch 40.3 (33839) - http://www.bohemiancoding.com/sketch -->
    <title>09</title>
    <desc>Created with Sketch.</desc>
    <defs></defs>
    <g id="Page-1" stroke="none" stroke-width="1" fill="none" fill-rule="evenodd">
        <g id="Artboard" transform="translate(-781.000000, -2156.000000)" fill="#000000">
            <g id="ships&amp;other" transform="translate(120.000000, 1524.000000)">
                <path d="M667.3638,757.1718 C667.3638,758.7338 668.6298,760.0008 670.1928,760.0008 C671.7548,760.0008 673.0208,758.7338 673.0208,757.1718 C673.0208,755.6098 671.7548,754.3438 670.1928,754.3438 C668.6298,754.3438 667.3638,755.6098 667.3638,757.1718 Z M773.6188,632.0004 L754.3638,632.0004 L754.3638,718.5744 C748.3638,716.8374 743.2158,715.8854 737.3558,715.8854 C731.5018,715.8854 725.3638,716.8354 720.3638,718.5694 L720.3638,632.0004 L701.0798,632.0004 L683.7668,764.0024 L683.7758,763.8784 C683.5538,765.8644 683.4278,767.8164 683.4278,769.8604 C683.4278,799.5894 707.6138,823.7434 737.3418,823.7434 C767.0698,823.7434 791.2558,799.5584 791.2558,769.8304 C791.2558,767.8594 791.1418,766.0004 790.9348,764.0004 L814.3638,764.0004 L814.3638,696.0004 L782.1048,696.0004 L773.6188,632.0004 Z M808.3638,702.0004 L808.3638,758.0004 L790.1748,758.0004 L782.8898,702.0004 L808.3638,702.0004 Z M773.3988,801.2994 L747.6628,775.5634 C748.6208,773.8564 749.1728,771.8914 749.1728,769.7984 C749.1728,767.7054 748.6208,765.7404 747.6628,764.0334 L773.3988,738.2974 C780.7718,746.7274 785.2558,757.7454 785.2558,769.7984 C785.2558,781.8514 780.7718,792.8704 773.3988,801.2994 Z M705.8408,805.8554 L731.5768,780.1194 C733.2848,781.0774 735.2488,781.6294 737.3418,781.6294 C739.5978,781.6294 741.7008,780.9834 743.4968,779.8824 L769.1788,805.5644 C760.7078,813.1134 749.5538,817.7124 737.3418,817.7124 C725.2888,817.7124 714.2708,813.2294 705.8408,805.8554 Z M737.342,799.9698 C735.78,799.9698 734.513,801.2358 734.513,802.7978 C734.513,804.3608 735.78,805.6268 737.342,805.6268 C738.904,805.6268 740.17,804.3608 740.17,802.7978 C740.17,801.2358 738.904,799.9698 737.342,799.9698 Z M689.4278,769.7984 C689.4278,757.5864 694.0278,746.4324 701.5758,737.9614 L727.2578,763.6434 C726.1578,765.4394 725.5118,767.5424 725.5118,769.7984 C725.5118,772.0544 726.1578,774.1574 727.2588,775.9534 L701.5768,801.6354 C694.0278,793.1644 689.4278,782.0104 689.4278,769.7984 Z M706.3458,638.0004 L714.3638,638.0004 L714.3638,720.9454 C706.3638,725.0084 698.3598,731.5664 692.9388,739.3724 L706.3458,638.0004 Z M731.5118,769.7984 C731.5118,766.5834 734.1268,763.9684 737.3418,763.9684 C740.5568,763.9684 743.1728,766.5834 743.1728,769.7984 C743.1728,773.0134 740.5568,775.6294 737.3418,775.6294 C734.1268,775.6294 731.5118,773.0134 731.5118,769.7984 Z M769.1788,734.0334 L743.4968,759.7144 C741.7008,758.6144 739.5978,757.9684 737.3418,757.9684 C735.2488,757.9684 733.2848,758.5204 731.5768,759.4774 L705.8408,733.7414 C714.2708,726.3684 725.2888,721.8854 737.3418,721.8854 C749.5538,721.8854 760.7078,726.4844 769.1788,734.0334 Z M760.3638,638.0004 L768.3538,638.0004 L781.7788,739.3984 C776.3588,731.5854 768.3638,725.0204 760.3638,720.9524 L760.3638,638.0004 Z M670.3638,772.0004 L664.3638,772.0004 C664.3638,798.0534 678.7848,821.6084 701.9988,833.4754 L704.7298,828.1334 C683.5318,817.2974 670.3638,795.7884 670.3638,772.0004 Z M840.8636,672.9474 L830.5216,685.8754 L840.8636,698.8034 L851.2056,685.8754 L840.8636,672.9474 Z M838.2056,685.8754 L840.8636,682.5534 L843.5216,685.8754 L840.8636,689.1974 L838.2056,685.8754 Z M665.2422,688.3637 L666.6732,686.9327 C666.9012,686.9647 667.1292,687.0007 667.3642,687.0007 C667.5982,687.0007 667.8262,686.9647 668.0542,686.9327 L669.4852,688.3637 L673.7272,684.1217 L672.2952,682.6897 C672.3592,682.2317 672.3592,681.7697 672.2952,681.3117 L673.7272,679.8797 L669.4852,675.6367 L668.0542,677.0677 C667.8262,677.0367 667.5982,677.0007 667.3642,677.0007 C667.1292,677.0007 666.9012,677.0367 666.6732,677.0677 L665.2422,675.6367 L661.0002,679.8797 L662.4322,681.3117 C662.3692,681.7697 662.3692,682.2317 662.4322,682.6897 L661.0002,684.1217 L665.2422,688.3637 Z M826.3638,636.026 L826.3638,634 L820.3638,634 L820.3638,636.026 C819.9948,636.305 819.6688,636.632 819.3898,637 L817.3638,637 L817.3638,643 L819.3898,643 C819.6688,643.369 819.9948,643.696 820.3638,643.975 L820.3638,646 L826.3638,646 L826.3638,643.975 C826.7328,643.696 827.0588,643.369 827.3378,643 L829.3638,643 L829.3638,637 L827.3378,637 C827.0588,636.632 826.7328,636.305 826.3638,636.026 Z" id="09"></path>
            </g>
        </g>
    </g>
</svg>