<?xml version="1.0" encoding="UTF-8" standalone="no"?>
<svg width="216px" height="197px" viewBox="0 0 216 197" version="1.1" xmlns="http://www.w3.org/2000/svg" xmlns:xlink="http://www.w3.org/1999/xlink">
    <!-- Generator: Sketch 40.3 (33839) - http://www.bohemiancoding.com/sketch -->
    <title>10</title>
    <desc>Created with Sketch.</desc>
    <defs></defs>
    <g id="Page-1" stroke="none" stroke-width="1" fill="none" fill-rule="evenodd">
        <g id="Artboard" transform="translate(-120.000000, -2475.000000)" fill="#000000">
            <g id="ships&amp;other" transform="translate(120.000000, 1524.000000)">
                <path d="M210,1068.1317 L156,1074.2277 L156,1066.9997 L135,1066.9997 L135,1076.6927 L107.999,1079.7877 L81,1076.7127 L81,1066.9997 L59,1066.9997 L59,1074.2637 L6,1068.1297 L6,1040.9997 L73.243,1040.9997 L108,1006.2427 L142.757,1040.9997 L210,1040.9997 L210,1068.1317 L210,1068.1317 Z M141,1111.9997 L150,1111.9997 L150,1072.9997 L141,1072.9997 L141,1111.9997 L141,1111.9997 Z M65,1111.9997 L75,1111.9997 L75,1072.9997 L65,1072.9997 L65,1111.9997 L65,1111.9997 Z M107.667,991.8077 C109.597,991.8077 111.167,993.3777 111.167,995.3077 C111.167,997.2367 109.597,998.8077 107.667,998.8077 C105.738,998.8077 104.167,997.2367 104.167,995.3077 C104.167,993.3777 105.738,991.8077 107.667,991.8077 L107.667,991.8077 Z M216,1034.9997 L145.243,1034.9997 L113.343,1003.0037 C115.659,1001.2697 117.167,998.4647 117.167,995.3557 C117.167,990.1177 112.906,985.8317 107.667,985.8317 C102.429,985.8317 98.167,990.0817 98.167,995.3197 C98.167,998.5997 99.839,1001.5857 102.374,1003.2937 L70.757,1034.9997 L0,1034.9997 L0,1073.4857 L59,1080.3017 L59,1117.9997 L81,1117.9997 L81,1082.7507 L108.001,1085.8267 L135,1082.7317 L135,1117.9997 L156,1117.9997 L156,1080.2667 L216,1073.4837 L216,1034.9997 Z M107.6675,1056.5233 C104.4525,1056.5233 101.8365,1053.9073 101.8365,1050.6923 C101.8365,1047.4773 104.4525,1044.8623 107.6675,1044.8623 C110.8825,1044.8623 113.4975,1047.4773 113.4975,1050.6923 C113.4975,1053.9073 110.8825,1056.5233 107.6675,1056.5233 Z M107.6675,1038.8623 C101.1445,1038.8623 95.8365,1044.1693 95.8365,1050.6923 C95.8365,1057.2153 101.1445,1062.5233 107.6675,1062.5233 C114.1905,1062.5233 119.4975,1057.2153 119.4975,1050.6923 C119.4975,1044.1693 114.1905,1038.8623 107.6675,1038.8623 Z M15,1057 L45,1057 L45,1051 L15,1051 L15,1057 Z M171,1057 L201,1057 L201,1051 L171,1051 L171,1057 Z M201.8784,999.121 L203.3104,997.689 C203.5394,997.721 203.7684,997.755 203.9994,997.755 C204.2304,997.755 204.4604,997.721 204.6894,997.689 L206.1214,999.121 L210.3634,994.879 L208.9314,993.446 C208.9944,992.988 208.9944,992.526 208.9314,992.068 L210.3634,990.636 L206.1214,986.393 L204.6894,987.826 C204.2314,987.762 203.7694,987.762 203.3104,987.826 L201.8784,986.393 L197.6364,990.636 L199.0684,992.068 C199.0054,992.526 199.0054,992.988 199.0684,993.447 L197.6364,994.879 L201.8784,999.121 Z M167.3218,973.9253 C167.7218,973.9763 168.1218,974.0013 168.5198,974.0013 C170.6188,974.0013 172.6478,973.3083 174.3318,971.9983 C176.3348,970.4403 177.6108,968.1963 177.9258,965.6773 C178.2408,963.1603 177.5558,960.6703 175.9978,958.6683 C174.4408,956.6653 172.1958,955.3883 169.6778,955.0743 C167.1648,954.7573 164.6718,955.4443 162.6678,957.0023 C160.6648,958.5593 159.3888,960.8033 159.0738,963.3223 C158.7588,965.8393 159.4438,968.3293 161.0018,970.3323 C162.5598,972.3353 164.8038,973.6113 167.3218,973.9253 Z M165.0278,964.0663 C165.1438,963.1383 165.6138,962.3113 166.3518,961.7373 C166.9718,961.2543 167.7188,961.0003 168.4928,961.0003 C168.6388,961.0003 168.7868,961.0083 168.9338,961.0273 C169.8608,961.1433 170.6888,961.6143 171.2618,962.3513 C171.8358,963.0883 172.0888,964.0053 171.9718,964.9333 C171.8568,965.8613 171.3858,966.6883 170.6488,967.2623 C169.9098,967.8373 168.9918,968.0893 168.0658,967.9723 C167.1388,967.8563 166.3118,967.3853 165.7378,966.6483 C165.1638,965.9113 164.9118,964.9943 165.0278,964.0663 Z M19,960.9743 L19,963.0003 L25,963.0003 L25,960.9743 C25.369,960.6953 25.695,960.3683 25.974,960.0003 L28,960.0003 L28,954.0003 L25.974,954.0003 C25.695,953.6313 25.369,953.3043 25,953.0253 L25,951.0003 L19,951.0003 L19,953.0253 C18.631,953.3043 18.305,953.6313 18.026,954.0003 L16,954.0003 L16,960.0003 L18.026,960.0003 C18.305,960.3683 18.631,960.6953 19,960.9743 Z M38.1216,1134.3935 L36.6896,1135.8255 C36.2306,1135.7625 35.7686,1135.7625 35.3106,1135.8255 L33.8786,1134.3935 L29.6366,1138.6355 L31.0686,1140.0675 C31.0056,1140.5265 31.0056,1140.9885 31.0686,1141.4465 L29.6366,1142.8785 L33.8786,1147.1215 L35.3106,1145.6885 C35.5396,1145.7205 35.7686,1145.7545 35.9996,1145.7545 C36.2306,1145.7545 36.4606,1145.7205 36.6896,1145.6885 L38.1216,1147.1215 L42.3636,1142.8785 L40.9316,1141.4465 C40.9946,1140.9885 40.9946,1140.5265 40.9316,1140.0685 L42.3636,1138.6355 L38.1216,1134.3935 Z M10,1108.9999 C8.343,1108.9999 7,1110.3429 7,1111.9999 C7,1113.6569 8.343,1114.9999 10,1114.9999 C11.657,1114.9999 13,1113.6569 13,1111.9999 C13,1110.3429 11.657,1108.9999 10,1108.9999 Z" id="10"></path>
            </g>
        </g>
    </g>
</svg>