<?xml version="1.0" encoding="UTF-8" standalone="no"?>
<svg width="192px" height="204px" viewBox="0 0 192 204" version="1.1" xmlns="http://www.w3.org/2000/svg" xmlns:xlink="http://www.w3.org/1999/xlink">
    <!-- Generator: Sketch 40.3 (33839) - http://www.bohemiancoding.com/sketch -->
    <title>11</title>
    <desc>Created with Sketch.</desc>
    <defs></defs>
    <g id="Page-1" stroke="none" stroke-width="1" fill="none" fill-rule="evenodd">
        <g id="Artboard" transform="translate(-456.000000, -2471.000000)" fill="#000000">
            <g id="ships&amp;other" transform="translate(120.000000, 1524.000000)">
                <path d="M503.5791,1105.9336 C503.4631,1106.8616 502.9921,1107.6886 502.2551,1108.2626 C501.5171,1108.8366 500.6001,1109.0896 499.6731,1108.9726 C498.7451,1108.8566 497.9181,1108.3856 497.3441,1107.6486 C496.7701,1106.9116 496.5181,1105.9946 496.6341,1105.0666 C496.7501,1104.1386 497.2211,1103.3116 497.9581,1102.7376 C498.5781,1102.2546 499.3251,1101.9996 500.0991,1101.9996 C500.2451,1101.9996 500.3921,1102.0086 500.5401,1102.0276 C501.4681,1102.1436 502.2951,1102.6146 502.8691,1103.3516 C503.4421,1104.0886 503.6941,1105.0056 503.5791,1105.9336 M434.2731,1060.9996 C405.5051,1060.9996 381.9241,1038.3846 380.3611,1009.9996 L421.4371,1009.9996 C422.8081,1016.0206 428.1991,1020.9996 434.6041,1020.9996 L434.7471,1020.9996 C441.1161,1019.9996 446.4101,1015.9546 447.7681,1009.9996 L488.1861,1009.9996 C486.6231,1038.3846 463.0421,1060.9996 434.2731,1060.9996 M442.1181,1006.9226 C442.1611,1011.0636 438.8271,1013.9996 434.6841,1014.9996 L434.6041,1014.9996 C430.4991,1014.9996 427.1381,1011.1926 427.0951,1007.0776 C427.0521,1002.9356 430.3861,999.9996 434.5281,998.9996 L434.6081,998.9996 C438.7141,998.9996 442.0751,1002.8076 442.1181,1006.9226 M434.2731,952.9996 C463.0421,952.9996 486.6231,975.6156 488.1861,1003.9996 L447.7761,1003.9996 C446.4051,997.9796 441.0131,992.9996 434.6081,992.9996 L434.4661,992.9996 C428.0971,993.9996 422.8031,998.0456 421.4451,1003.9996 L380.3611,1003.9996 C381.9241,975.6156 405.5051,952.9996 434.2731,952.9996 M488.5401,1138.0276 C489.4681,1138.1436 490.2951,1138.6146 490.8691,1139.3516 C491.4421,1140.0886 491.6941,1141.0056 491.5791,1141.9336 C491.4631,1142.8616 490.9921,1143.6886 490.2551,1144.2626 C489.5161,1144.8356 488.5981,1145.0896 487.6731,1144.9726 C486.7451,1144.8566 485.9181,1144.3856 485.3441,1143.6486 C484.7701,1142.9116 484.5181,1141.9946 484.6341,1141.0666 C484.7501,1140.1386 485.2211,1139.3116 485.9581,1138.7376 C486.5781,1138.2546 487.3251,1137.9996 488.0991,1137.9996 C488.2451,1137.9996 488.3921,1138.0086 488.5401,1138.0276 M384.5791,1141.9336 C384.4631,1142.8616 383.9921,1143.6886 383.2551,1144.2626 C382.5171,1144.8356 381.5981,1145.0896 380.6731,1144.9726 C379.7451,1144.8566 378.9181,1144.3856 378.3441,1143.6486 C377.7701,1142.9116 377.5181,1141.9946 377.6341,1141.0666 C377.7501,1140.1386 378.2211,1139.3116 378.9581,1138.7376 C379.5781,1138.2546 380.3251,1137.9996 381.0991,1137.9996 C381.2451,1137.9996 381.3921,1138.0086 381.5401,1138.0276 C382.4681,1138.1436 383.2951,1138.6146 383.8691,1139.3516 C384.4421,1140.0886 384.6941,1141.0056 384.5791,1141.9336 M372.5791,1105.9336 C372.4631,1106.8616 371.9921,1107.6886 371.2551,1108.2626 C370.5171,1108.8366 369.6001,1109.0896 368.6731,1108.9726 C367.7451,1108.8566 366.9181,1108.3856 366.3441,1107.6486 C365.7701,1106.9116 365.5181,1105.9946 365.6341,1105.0666 C365.7501,1104.1386 366.2211,1103.3116 366.9581,1102.7376 C367.5781,1102.2546 368.3251,1101.9996 369.0991,1101.9996 C369.2451,1101.9996 369.3921,1102.0086 369.5401,1102.0276 C370.4681,1102.1436 371.2951,1102.6146 371.8691,1103.3516 C372.4421,1104.0886 372.6941,1105.0056 372.5791,1105.9336 M501.2841,1096.0746 C500.5821,1095.9846 499.8841,1095.9826 499.1961,1096.0466 L482.6861,1042.3876 C489.9631,1032.4586 494.2731,1020.2256 494.2731,1006.9996 C494.2731,973.9156 467.3571,946.9996 434.2731,946.9996 C401.1891,946.9996 374.2731,973.9156 374.2731,1006.9996 C374.2731,1020.2256 378.5841,1032.4596 385.8621,1042.3886 L369.3651,1096.0026 C367.1671,1095.9366 365.0321,1096.6336 363.2741,1098.0016 C361.2711,1099.5596 359.9951,1101.8046 359.6811,1104.3226 C359.3651,1106.8396 360.0501,1109.3296 361.6081,1111.3316 C363.1661,1113.3346 365.4111,1114.6116 367.9291,1114.9256 C368.3291,1114.9766 368.7281,1115.0006 369.1261,1115.0006 C371.2261,1115.0006 373.2551,1114.3086 374.9381,1112.9976 C376.9411,1111.4406 378.2181,1109.1956 378.5321,1106.6776 C378.8481,1104.1606 378.1631,1101.6706 376.6041,1099.6676 C376.1331,1099.0616 375.5931,1098.5316 375.0071,1098.0656 L390.4401,1047.9096 C394.3781,1052.1266 398.9131,1055.7746 403.9131,1058.7206 L381.3651,1132.0026 C379.1671,1131.9366 377.0321,1132.6336 375.2741,1134.0016 C373.2711,1135.5596 371.9951,1137.8046 371.6811,1140.3226 C371.3651,1142.8396 372.0501,1145.3296 373.6081,1147.3316 C375.1661,1149.3346 377.4111,1150.6116 379.9291,1150.9256 C380.3291,1150.9766 380.7281,1151.0006 381.1261,1151.0006 C383.2261,1151.0006 385.2551,1150.3086 386.9381,1148.9976 C388.9411,1147.4406 390.2181,1145.1956 390.5321,1142.6776 C390.8481,1140.1606 390.1631,1137.6706 388.6041,1135.6676 C388.1331,1135.0616 387.5931,1134.5316 387.0071,1134.0656 L409.3211,1061.5436 C416.9261,1065.0366 425.3721,1066.9996 434.2731,1066.9996 C443.1751,1066.9996 451.6211,1065.0366 459.2251,1061.5436 L481.6781,1134.5146 C480.0211,1136.0346 478.9621,1138.0666 478.6811,1140.3226 C478.3651,1142.8396 479.0501,1145.3296 480.6081,1147.3316 C482.1661,1149.3346 484.4111,1150.6116 486.9291,1150.9256 C487.3291,1150.9766 487.7281,1151.0006 488.1261,1151.0006 C490.2261,1151.0006 492.2551,1150.3086 493.9381,1148.9976 C495.9411,1147.4406 497.2181,1145.1956 497.5321,1142.6776 C497.8481,1140.1606 497.1631,1137.6706 495.6041,1135.6676 C494.0471,1133.6646 491.8021,1132.3886 489.2841,1132.0746 C488.5821,1131.9846 487.8841,1131.9826 487.1961,1132.0466 L464.6341,1058.7206 C469.6341,1055.7746 474.1691,1052.1266 478.1081,1047.9096 L493.6781,1098.5146 C492.0211,1100.0336 490.9621,1102.0666 490.6811,1104.3226 C490.3651,1106.8396 491.0501,1109.3296 492.6081,1111.3316 C494.1661,1113.3346 496.4111,1114.6116 498.9291,1114.9256 C499.3291,1114.9766 499.7281,1115.0006 500.1261,1115.0006 C502.2261,1115.0006 504.2551,1114.3086 505.9381,1112.9976 C507.9411,1111.4406 509.2181,1109.1956 509.5321,1106.6776 C509.8481,1104.1606 509.1631,1101.6706 507.6041,1099.6676 C506.0471,1097.6646 503.8021,1096.3886 501.2841,1096.0746 Z M385.1238,951.9794 C386.1338,950.7874 385.9858,949.0024 384.7948,947.9934 C383.6028,946.9834 381.8178,947.1304 380.8078,948.3224 C379.7978,949.5144 379.9458,951.2984 381.1368,952.3084 C382.3288,953.3184 384.1138,953.1714 385.1238,951.9794 Z M373.5107,961.5752 L368.9327,957.6962 C352.0897,977.5722 347.8647,1004.8662 357.9047,1028.9282 L363.4417,1026.6172 C354.2737,1004.6462 358.1317,979.7232 373.5107,961.5752 Z M527.6064,960 L526.0274,960 C525.6534,959.445 525.1674,958.973 524.6064,958.606 L524.6064,957 L518.6064,957 L518.6064,959.038 C518.2784,959.324 517.9744,959.638 517.7304,960 L515.6064,960 L515.6064,966 L518.0804,966 C518.2434,966.192 518.4164,966.371 518.6064,966.537 L518.6064,969 L524.6064,969 L524.6064,966.968 C525.0124,966.702 525.3644,966.369 525.6774,966 L527.6064,966 L527.6064,960 Z M344.4854,1049.8203 L343.0534,1051.2523 C342.5954,1051.1883 342.1324,1051.1883 341.6744,1051.2523 L340.2424,1049.8203 L336.0004,1054.0623 L337.4324,1055.4943 C337.3684,1055.9533 337.3694,1056.4153 337.4324,1056.8733 L336.0004,1058.3053 L340.2424,1062.5483 L341.6744,1061.1153 C341.9034,1061.1473 342.1334,1061.1813 342.3644,1061.1813 C342.5954,1061.1813 342.8244,1061.1473 343.0534,1061.1153 L344.4854,1062.5483 L348.7274,1058.3053 L347.2954,1056.8733 C347.3584,1056.4153 347.3584,1055.9533 347.2954,1055.4943 L348.7274,1054.0623 L344.4854,1049.8203 Z M509.6064,978 C507.9494,978 506.6064,979.343 506.6064,981 C506.6064,982.657 507.9494,984 509.6064,984 C511.2634,984 512.6064,982.657 512.6064,981 C512.6064,979.343 511.2634,978 509.6064,978 Z" id="11"></path>
            </g>
        </g>
    </g>
</svg>