<?xml version="1.0" encoding="UTF-8" standalone="no"?>
<svg width="206px" height="204px" viewBox="0 0 206 204" version="1.1" xmlns="http://www.w3.org/2000/svg" xmlns:xlink="http://www.w3.org/1999/xlink">
    <!-- Generator: Sketch 40.3 (33839) - http://www.bohemiancoding.com/sketch -->
    <style type="text/css">
        .cor{fill:url(#MyGradient)}
      </style>
      <defs>
        <linearGradient id="MyGradient">
          <stop offset="5%" stop-color="#584b88" />
          <stop offset="95%" stop-color="#ae4bcf" />
        </linearGradient>
      </defs>
    <title>12</title>
    <desc>Created with Sketch.</desc>
    <defs></defs>
    <g id="Page-1" stroke="none" stroke-width="1" fill="none" fill-rule="evenodd">
        <g id="Artboard" transform="translate(-773.000000, -2471.000000)" fill="#000000">
            <g id="ships&amp;other" transform="translate(120.000000, 1524.000000)">
                <path class="cor" d="M694.3145,1069.82 L737.2425,1111.74 L741.4335,1107.447 L698.5055,1065.527 L694.3145,1069.82 Z M802.273,1057.8996 L794.986,1065.3626 L780.916,1062.7216 L797.106,1046.1426 L784.902,1034.2246 C788.154,1033.9306 791.156,1032.5036 793.434,1030.1216 C798.583,1024.7366 798.392,1016.1666 793.008,1011.0176 C787.624,1005.8666 779.054,1006.0576 773.903,1011.4426 C771.631,1013.8186 770.402,1016.8156 770.197,1019.8646 L757.996,1007.9496 L742.074,1024.2546 L739.244,1010.9286 L746.532,1003.4656 L690.728,948.9696 L653,987.6046 L708.805,1042.0996 L716.124,1034.6046 L729.513,1037.1186 L713.622,1053.3916 L722.445,1062.0066 L713.192,1071.4826 L734.656,1092.4416 L743.909,1082.9666 L752.732,1091.5826 L768.891,1075.0356 L771.865,1089.0396 L764.547,1096.5336 L820.352,1151.0296 L858.079,1112.3956 L802.273,1057.8996 Z M820.25,1142.5456 L807.436,1130.0316 L836.78,1099.9826 L849.595,1112.4966 L820.25,1142.5456 Z M802.375,1066.3846 L815.316,1079.0226 L785.973,1109.0706 L773.031,1096.4326 L802.375,1066.3846 Z M773.929,1069.8766 L775.878,1067.8806 L789.948,1070.5216 L776.903,1083.8806 L773.929,1069.8766 Z M752.631,1083.0986 L722.106,1053.2896 L758.098,1016.4346 L788.622,1046.2436 L752.631,1083.0986 Z M721.161,1029.4456 L734.206,1016.0876 L737.036,1029.4136 L734.551,1031.9596 L721.161,1029.4456 Z M708.703,1033.6146 L695.826,1021.0396 L725.17,990.9906 L738.048,1003.5666 L708.703,1033.6146 Z M690.829,957.4536 L703.707,970.0296 L674.362,1000.0786 L661.484,987.5026 L690.829,957.4536 Z M720.878,986.7986 L691.533,1016.8476 L678.655,1004.2706 L707.999,974.2216 L720.878,986.7986 Z M832.487,1095.7906 L803.143,1125.8396 L790.265,1113.2626 L819.609,1083.2146 L832.487,1095.7906 Z M734.555,1083.9576 L721.677,1071.3816 L725.869,1067.0886 L738.747,1079.6646 L734.555,1083.9576 Z M778.239,1015.5896 C779.713,1014.0496 781.69,1013.2736 783.67,1013.2736 C785.538,1013.2736 787.408,1013.9636 788.861,1015.3536 C791.854,1018.2166 791.96,1022.9816 789.098,1025.9756 C787.711,1027.4246 785.842,1028.2476 783.836,1028.2926 C781.821,1028.3216 779.927,1027.5986 778.476,1026.2106 C775.482,1023.3476 775.376,1018.5826 778.239,1015.5896 Z M715.665,1118.4109 L717.741,1112.7819 C712.199,1110.7369 707.227,1107.5889 702.965,1103.4259 C698.866,1099.4239 695.686,1094.7359 693.513,1089.4959 L687.97,1091.7949 C690.456,1097.7879 694.091,1103.1449 698.772,1107.7189 C703.643,1112.4739 709.326,1116.0719 715.665,1118.4109 Z M670.5742,1087.2204 L665.0332,1089.5194 C669.8512,1101.1324 676.8922,1111.5104 685.9612,1120.3664 C695.3972,1129.5814 706.4072,1136.5504 718.6852,1141.0804 L720.7622,1135.4514 C709.2802,1131.2154 698.9822,1124.6964 690.1522,1116.0734 C681.6682,1107.7874 675.0812,1098.0794 670.5742,1087.2204 Z M838.3721,985.9997 C849.1241,985.9997 857.8721,977.2517 857.8721,966.4997 C857.8721,955.7477 849.1241,946.9997 838.3721,946.9997 C827.6201,946.9997 818.8721,955.7477 818.8721,966.4997 C818.8721,977.2517 827.6201,985.9997 838.3721,985.9997 Z M838.3721,952.9997 C845.8161,952.9997 851.8721,959.0557 851.8721,966.4997 C851.8721,973.9437 845.8161,979.9997 838.3721,979.9997 C830.9281,979.9997 824.8721,973.9437 824.8721,966.4997 C824.8721,959.0557 830.9281,952.9997 838.3721,952.9997 Z M806.8721,993.9741 L806.8721,996.0001 L812.8721,996.0001 L812.8721,993.9741 C813.2411,993.6951 813.5671,993.3681 813.8461,993.0001 L815.8721,993.0001 L815.8721,987.0001 L813.8461,987.0001 C813.5671,986.6311 813.2411,986.3041 812.8721,986.0251 L812.8721,984.0001 L806.8721,984.0001 L806.8721,986.0251 C806.5031,986.3041 806.1771,986.6311 805.8981,987.0001 L803.8721,987.0001 L803.8721,993.0001 L805.8981,993.0001 C806.1771,993.3681 806.5031,993.6951 806.8721,993.9741 Z" id="12"></path>
            </g>
        </g>
    </g>
</svg>