<?xml version="1.0" encoding="UTF-8" standalone="no"?>
<svg width="206px" height="185px" viewBox="0 0 206 185" version="1.1" xmlns="http://www.w3.org/2000/svg" xmlns:xlink="http://www.w3.org/1999/xlink">
    <!-- Generator: Sketch 40.3 (33839) - http://www.bohemiancoding.com/sketch -->
    <title>01</title>
    <desc>Created with Sketch.</desc>
    <defs></defs>
    <g id="Page-1" stroke="none" stroke-width="1" fill="none" fill-rule="evenodd">
        <g id="Artboard" transform="translate(-125.000000, -2892.000000)" fill="#000000">
            <g id="plants" transform="translate(125.000000, 2883.000000)">
                <path d="M26.3877,89.278 L99.6937,99.751 L99.6937,99.752 L99.6937,136.404 L26.3877,89.278 Z M99.6937,64.894 L99.6937,88.761 L51.9587,58.075 L99.6937,64.894 Z M99.6937,39.55 L99.6937,53.829 L71.1377,35.471 L99.6937,39.55 Z M102.6937,15 C104.6237,15 106.1937,16.569 106.1937,18.499 C106.1937,20.428 104.6237,21.998 102.6937,21.998 C100.7637,21.998 99.1947,20.428 99.1947,18.499 C99.1947,16.569 100.7637,15 102.6937,15 L102.6937,15 Z M105.6937,53.829 L105.6937,39.55 L134.2497,35.471 L105.6937,53.829 Z M105.6937,88.761 L105.6937,64.894 L153.4287,58.075 L105.6937,88.761 Z M105.6937,136.404 L105.6937,99.752 L105.6937,99.751 L178.9997,89.278 L105.6937,136.404 Z M205.3877,79.448 L110.1027,93.061 L179.8167,48.245 L109.9497,58.226 L160.6377,25.641 L105.6937,33.49 L105.6937,27.505 C109.4647,26.245 112.1937,22.687 112.1937,18.499 C112.1937,13.261 107.9317,9 102.6937,9 C97.4557,9 93.1947,13.261 93.1947,18.499 C93.1947,22.687 95.9227,26.245 99.6937,27.505 L99.6937,33.49 L44.7497,25.641 L95.4377,58.226 L25.5717,48.245 L95.2857,93.061 L-0.0003,79.448 L99.6937,143.537 L99.6937,147.394 L99.6937,189.738 L105.6937,189.738 L105.6937,147.394 L105.6937,143.537 L205.3877,79.448 Z M35.2953,176.237 C33.8203,175.293 32.0723,174.738 30.1943,174.738 C28.6223,174.738 27.1413,175.128 25.8343,175.807 L18.6943,163.907 L4.1213,188.194 L9.2663,191.282 L18.6943,175.569 L21.5483,180.326 C21.0053,181.52 20.6953,182.842 20.6953,184.237 C20.6953,189.475 24.9563,193.737 30.1943,193.737 C35.4323,193.737 39.6943,189.475 39.6943,184.237 C39.6943,183.224 39.5303,182.249 39.2353,181.332 L48.6943,165.569 L64.1213,191.282 L69.2663,188.194 L48.6943,153.907 L35.2953,176.237 Z M30.1943,187.737 C28.2653,187.737 26.6953,186.167 26.6953,184.237 C26.6953,182.307 28.2653,180.738 30.1943,180.738 C32.1243,180.738 33.6943,182.307 33.6943,184.237 C33.6943,186.167 32.1243,187.737 30.1943,187.737 Z M177.5534,175.807 C176.2464,175.128 174.7654,174.738 173.1934,174.738 C171.3154,174.738 169.5674,175.293 168.0924,176.237 L154.6934,153.907 L134.1214,188.194 L139.2664,191.282 L154.6934,165.569 L164.1524,181.332 C163.8574,182.249 163.6934,183.224 163.6934,184.237 C163.6934,189.475 167.9554,193.737 173.1934,193.737 C178.4314,193.737 182.6924,189.475 182.6924,184.237 C182.6924,182.842 182.3824,181.52 181.8394,180.326 L184.6934,175.569 L194.1214,191.282 L199.2664,188.194 L184.6934,163.907 L177.5534,175.807 Z M173.1934,187.737 C171.2634,187.737 169.6934,186.167 169.6934,184.237 C169.6934,182.307 171.2634,180.738 173.1934,180.738 C175.1224,180.738 176.6924,182.307 176.6924,184.237 C176.6924,186.167 175.1224,187.737 173.1934,187.737 Z" id="01"></path>
            </g>
        </g>
    </g>
</svg>