<?xml version="1.0" encoding="UTF-8" standalone="no"?>
<svg width="212px" height="169px" viewBox="0 0 212 169" version="1.1" xmlns="http://www.w3.org/2000/svg" xmlns:xlink="http://www.w3.org/1999/xlink">
    <!-- Generator: Sketch 40.3 (33839) - http://www.bohemiancoding.com/sketch -->
    <title>02</title>
    <desc>Created with Sketch.</desc>
    <defs></defs>
    <g id="Page-1" stroke="none" stroke-width="1" fill="none" fill-rule="evenodd">
        <g id="Artboard" transform="translate(-446.000000, -2900.000000)" fill="#000000">
            <g id="plants" transform="translate(125.000000, 2883.000000)">
                <path d="M514.8235,79.915 C510.4005,72.26 505.4095,65.886 500.0045,60.897 L517.0695,31.507 L511.8805,28.493 L495.3255,57.006 C488.2985,51.766 480.6925,48.733 472.7995,48.12 L472.7995,17 L466.7995,17 L466.7995,48.134 C458.7365,48.776 450.9645,51.994 443.8325,57.432 L427.0475,29.456 L421.9025,32.544 L439.1895,61.355 C429.0655,70.847 420.5315,85.048 414.7245,102.781 C412.1215,102.414 409.4775,102.178 406.7995,102.076 L406.7995,71 L400.7995,71 L400.7995,102.076 C392.6985,102.385 384.9105,103.927 377.6185,106.534 L361.3725,79.456 L356.2275,82.544 L371.9875,108.81 C362.8105,112.927 354.5735,118.761 347.6805,125.91 L324.5995,108.6 L321.0005,113.4 L343.6535,130.39 C332.5055,143.882 325.7995,161.172 325.7995,180 C325.7995,181.045 325.8375,182.082 325.8775,183.117 L325.9905,186 L481.6085,186 L481.7215,183.117 C481.7625,182.082 481.7995,181.045 481.7995,180 C481.7995,173.804 481.0515,167.782 479.6805,162 L532.6715,162 L532.7385,159.068 C532.7705,157.665 532.7995,156.262 532.7995,154.846 C532.7995,126.589 526.4165,99.978 514.8235,79.915 Z M526.7935,156 L478.0055,156 C474.9425,146.552 470.1365,137.882 463.9465,130.39 L486.5995,113.4 L483.0005,108.6 L459.9195,125.91 C453.0115,118.747 444.7545,112.902 435.5555,108.784 L451.3945,81.507 L446.2055,78.493 L429.9335,106.518 C426.9305,105.447 423.8425,104.562 420.6845,103.862 C430.9795,73.049 449.6725,54 469.7995,54 C501.2295,54 526.7995,99.239 526.7995,154.846 C526.7995,155.231 526.7975,155.616 526.7935,156 Z M506.3037,142.6641 L511.2957,139.3361 L499.2957,121.3361 L494.3037,124.6641 L506.3037,142.6641 Z M331.7995,180 C331.7995,140.299 364.0985,108 403.7995,108 C443.5015,108 475.7995,140.299 475.7995,180 L331.7995,180 Z M350.3037,163.3359 L355.2957,166.6639 L367.2957,148.6639 L362.3037,145.3359 L350.3037,163.3359 Z M381.1763,131.374 L399.0383,143.579 L402.4233,138.626 L384.5613,126.421 L381.1763,131.374 Z M405.1763,162.626 L408.5613,167.579 L426.4233,155.374 L423.0383,150.421 L405.1763,162.626 Z M434.3037,134.6641 L446.3037,152.6641 L451.2957,149.3361 L439.2957,131.3361 L434.3037,134.6641 Z M468.1763,70.374 L486.0383,82.579 L489.4233,77.626 L471.5613,65.421 L468.1763,70.374 Z M456.3037,105.3359 L461.2957,108.6639 L473.2957,90.6639 L468.3037,87.3359 L456.3037,105.3359 Z" id="02"></path>
            </g>
        </g>
    </g>
</svg>