<?xml version="1.0" encoding="UTF-8" standalone="no"?>
<svg width="194px" height="201px" viewBox="0 0 194 201" version="1.1" xmlns="http://www.w3.org/2000/svg" xmlns:xlink="http://www.w3.org/1999/xlink">
    <!-- Generator: Sketch 40.3 (33839) - http://www.bohemiancoding.com/sketch -->
    <title>03</title>
    <desc>Created with Sketch.</desc>
    <defs></defs>
    <g id="Page-1" stroke="none" stroke-width="1" fill="none" fill-rule="evenodd">
        <g id="Artboard" transform="translate(-779.000000, -2883.000000)" fill="#000000">
            <g id="plants" transform="translate(125.000000, 2883.000000)">
                <path d="M726.8912,201 L695.3962,201 L695.3652,198.031 C695.3492,196.525 695.3352,195.02 695.3352,193.5 C695.3352,139.726 699.0862,78 728.3352,78 C745.0372,78 754.9652,97.082 759.0902,138.621 C760.0112,108.736 761.7722,83.344 764.3602,62.783 C769.7532,19.95 778.3242,0 791.3352,0 C804.4132,0 813.0042,19.95 818.3712,62.785 C822.3282,94.366 824.3352,137.646 824.3352,191.423 C824.3352,193.636 824.3202,195.83 824.3042,198.021 L824.2832,201 L792.7782,201 L726.8912,201 L726.8912,201 Z M818.3242,195 L795.0002,195 L795.0002,7.235 C800.3102,10.83 807.4262,23.698 812.4182,63.531 C816.3442,94.865 818.3352,137.895 818.3352,191.423 C818.3352,192.62 818.3312,193.812 818.3242,195 L818.3242,195 Z M764.3452,195 C764.3392,193.812 764.3352,192.62 764.3352,191.423 C764.3352,138.077 766.3462,95.049 770.3132,63.533 C775.7552,20.305 783.6362,8.834 789.0002,6.509 L789.0002,195 L764.3452,195 L764.3452,195 Z M755.3312,195 L732.0002,195 L732.0002,84.544 C747.6882,89.206 755.3352,124.963 755.3352,193.5 C755.3352,194.001 755.3332,194.501 755.3312,195 L755.3312,195 Z M701.3392,195 C701.3372,194.501 701.3352,194.001 701.3352,193.5 C701.3352,167.222 701.3362,88.855 726.0002,84.22 L726.0002,195 L701.3392,195 Z M654,201 L660,201 L660,123 L654,123 L654,201 Z M674,201 L680,201 L680,171 L674,171 L674,201 Z M842,201 L848,201 L848,141 L842,141 L842,201 Z" id="03"></path>
            </g>
        </g>
    </g>
</svg>