<?xml version="1.0" encoding="UTF-8" standalone="no"?>
<svg width="181px" height="184px" viewBox="0 0 181 184" version="1.1" xmlns="http://www.w3.org/2000/svg" xmlns:xlink="http://www.w3.org/1999/xlink">
    <!-- Generator: Sketch 40.3 (33839) - http://www.bohemiancoding.com/sketch -->
    <title>04</title>
    <desc>Created with Sketch.</desc>
    <defs></defs>
    <g id="Page-1" stroke="none" stroke-width="1" fill="none" fill-rule="evenodd">
        <g id="Artboard" transform="translate(-138.000000, -3201.000000)" fill="#000000">
            <g id="plants" transform="translate(125.000000, 2883.000000)">
                <path d="M167.229,495.955 C157.304,495.955 149.229,487.88 149.229,477.955 C149.229,468.03 157.304,459.955 167.229,459.955 C177.154,459.955 185.229,468.03 185.229,477.955 C185.229,487.88 177.154,495.955 167.229,495.955 L167.229,495.955 Z M110.673,495.955 L182.138,414.281 L172.096,454.452 C170.524,454.127 168.896,453.955 167.229,453.955 C153.996,453.955 143.229,464.722 143.229,477.955 C143.229,485.118 146.387,491.554 151.38,495.955 L110.673,495.955 Z M53.714,437.566 L101.062,338.221 L101.062,491.041 L53.714,437.566 Z M46.38,495.955 L25.124,414.326 L97.399,495.955 L46.38,495.955 Z M107.062,338.15 L154.401,436.868 L107.062,490.971 L107.062,338.15 Z M177.791,456.41 L193.986,391.629 L158.7,431.956 L104.054,318 L49.393,432.686 L13,391.584 L41.744,501.955 L97.451,501.955 L110.725,501.955 L167.062,501.955 L167.062,501.951 C167.118,501.951 167.173,501.955 167.229,501.955 C180.462,501.955 191.229,491.188 191.229,477.955 C191.229,468.51 185.742,460.325 177.791,456.41 L177.791,456.41 Z" id="04"></path>
            </g>
        </g>
    </g>
</svg>