<?xml version="1.0" encoding="UTF-8" standalone="no"?>
<svg width="186px" height="209px" viewBox="0 0 186 209" version="1.1" xmlns="http://www.w3.org/2000/svg" xmlns:xlink="http://www.w3.org/1999/xlink">
    <!-- Generator: Sketch 40.3 (33839) - http://www.bohemiancoding.com/sketch -->
    <title>05</title>
    <desc>Created with Sketch.</desc>
    <defs></defs>
    <g id="Page-1" stroke="none" stroke-width="1" fill="none" fill-rule="evenodd">
        <g id="Artboard" transform="translate(-459.000000, -3189.000000)" fill="#000000">
            <g id="plants" transform="translate(125.000000, 2883.000000)">
                <path d="M510.5,367.001 C505.262,367.001 501.001,371.263 501.001,376.501 C501.001,376.833 501.019,377.16 501.052,377.483 L430,409.365 L430,344.694 C439.167,343.105 446.167,335.114 446.167,325.5 C446.167,314.748 437.419,306 426.667,306 C415.915,306 407.167,314.748 407.167,325.5 C407.167,335.345 414.508,343.488 424,344.795 L424,374.365 L352.961,342.489 C352.98,342.248 352.998,342.007 352.998,341.761 C352.998,336.523 348.737,332.262 343.499,332.262 C338.261,332.262 334,336.523 334,341.761 C334,346.998 338.261,351.26 343.499,351.26 C346.339,351.26 348.885,350 350.627,348.019 L424,380.942 L424,441.44 L372.848,419.392 C372.94,418.861 372.998,418.318 372.998,417.761 C372.998,412.523 368.737,408.262 363.499,408.262 C358.261,408.262 354,412.523 354,417.761 C354,422.998 358.261,427.26 363.499,427.26 C366.004,427.26 368.278,426.278 369.977,424.688 L424,447.974 L424,461.055 C410.663,461.607 398.43,466.297 389.318,474.403 C379.225,483.38 373.667,496.022 373.667,510 C373.667,510.71 373.692,511.414 373.72,512.117 L373.832,515 L479.5,515 L479.614,512.119 C479.642,511.415 479.667,510.711 479.667,510 C479.667,496.022 474.109,483.38 464.016,474.403 C455.056,466.433 443.077,461.775 430,461.096 L430,415.942 L503.54,382.943 C505.276,384.818 507.75,386 510.5,386 C515.738,386 520,381.738 520,376.501 C520,371.263 515.738,367.001 510.5,367.001 Z M510.5,380 C508.571,380 507.001,378.431 507.001,376.501 C507.001,374.571 508.571,373.001 510.5,373.001 C512.43,373.001 514,374.571 514,376.501 C514,378.431 512.43,380 510.5,380 Z M473.656,509 L379.678,509 C380.199,484.602 399.799,467 426.667,467 C453.535,467 473.135,484.602 473.656,509 Z M413.167,325.5 C413.167,318.056 419.223,312 426.667,312 C434.111,312 440.167,318.056 440.167,325.5 C440.167,332.944 434.111,339 426.667,339 C419.223,339 413.167,332.944 413.167,325.5 Z M429.4955,325.5 C429.4955,323.938 428.2295,322.671 426.6665,322.671 C425.1045,322.671 423.8385,323.938 423.8385,325.5 C423.8385,327.062 425.1045,328.329 426.6665,328.329 C428.2295,328.329 429.4955,327.062 429.4955,325.5 Z M363.499,421.26 C361.569,421.26 360,419.69 360,417.761 C360,415.831 361.569,414.262 363.499,414.262 C365.428,414.262 366.998,415.831 366.998,417.761 C366.998,419.69 365.428,421.26 363.499,421.26 Z M343.499,345.26 C341.569,345.26 340,343.69 340,341.761 C340,339.831 341.569,338.262 343.499,338.262 C345.428,338.262 346.998,339.831 346.998,341.761 C346.998,343.69 345.428,345.26 343.499,345.26 Z" id="05"></path>
            </g>
        </g>
    </g>
</svg>