<?xml version="1.0" encoding="UTF-8" standalone="no"?>
<svg width="180px" height="201px" viewBox="0 0 180 201" version="1.1" xmlns="http://www.w3.org/2000/svg" xmlns:xlink="http://www.w3.org/1999/xlink">
    <!-- Generator: Sketch 40.3 (33839) - http://www.bohemiancoding.com/sketch -->
    <style type="text/css">
        .cor{fill:url(#MyGradient)}
      </style>
      <defs>
        <linearGradient id="MyGradient">
          <stop offset="5%" stop-color="#584b88" />
          <stop offset="95%" stop-color="#ae4bcf" />
        </linearGradient>
      </defs>
    <title>06</title>
    <desc>Created with Sketch.</desc>
    <defs></defs>
    <g id="Page-1" stroke="none" stroke-width="1" fill="none" fill-rule="evenodd">
        <g id="Artboard" transform="translate(-786.000000, -3193.000000)" fill="#000000">
            <g id="plants" transform="translate(125.000000, 2883.000000)">
                <path class="cor" d="M835,496 C835,500.963 830.962,505 826,505 L676,505 C671.038,505 667,500.963 667,496 L667,492.16 C667,487.197 671.038,483 676,483 L691.84,483 L810.16,483 L826,483 C830.962,483 835,487.197 835,492.16 L835,496 Z M680.92,466 C680.92,459.979 685.818,455 691.84,455 L719.68,455 L782.32,455 L810.16,455 C816.182,455 821.08,459.979 821.08,466 C821.08,472.021 816.182,477 810.16,477 L691.84,477 C685.818,477 680.92,472.021 680.92,466 L680.92,466 Z M708.76,438 C708.76,431.979 713.659,427 719.68,427 L782.32,427 C788.341,427 793.24,431.979 793.24,438 C793.24,444.021 788.341,449 782.32,449 L719.68,449 C713.659,449 708.76,444.021 708.76,438 L708.76,438 Z M694.84,410.5 C694.84,404.478 699.738,400 705.76,400 L726.64,400 L775.36,400 L796.24,400 C802.262,400 807.16,404.478 807.16,410.5 C807.16,416.521 802.262,421 796.24,421 L782.32,421 L719.68,421 L705.76,421 C699.738,421 694.84,416.521 694.84,410.5 L694.84,410.5 Z M715.72,383 C715.72,376.979 720.619,372 726.64,372 L733.6,372 L768.4,372 L775.36,372 C781.381,372 786.28,376.979 786.28,383 C786.28,389.021 781.381,394 775.36,394 L726.64,394 C720.619,394 715.72,389.021 715.72,383 L715.72,383 Z M733.6,344 L747.52,344 L754.48,344 L768.4,344 C774.421,344 779.32,348.979 779.32,355 C779.32,361.021 774.421,366 768.4,366 L733.6,366 C727.579,366 722.68,361.021 722.68,355 C722.68,348.979 727.579,344 733.6,344 L733.6,344 Z M736.6,327 C736.6,320.979 741.499,316 747.52,316 L754.48,316 C760.501,316 765.4,320.979 765.4,327 C765.4,333.021 760.501,338 754.48,338 L747.52,338 C741.499,338 736.6,333.021 736.6,327 L736.6,327 Z M826,477 L823.063,477 C825.564,474 827.08,470.161 827.08,466 C827.08,456.67 819.49,449 810.16,449 L795.223,449 C797.724,446 799.24,442.161 799.24,438 C799.24,433.839 797.724,430 795.223,427 L796.24,427 C805.57,427 813.16,419.83 813.16,410.5 C813.16,401.169 805.57,394 796.24,394 L788.263,394 C790.763,391 792.28,387.061 792.28,382.9 C792.28,375.382 787.349,368.912 780.554,366.714 C783.498,363.668 785.32,359.505 785.32,354.945 C785.32,345.615 777.729,338 768.4,338 L767.383,338 C769.883,335 771.4,331.161 771.4,327 C771.4,317.67 763.81,310 754.48,310 L747.52,310 C738.19,310 730.6,317.67 730.6,327 C730.6,331.161 732.117,335 734.617,338 L733.6,338 C724.271,338 716.68,345.57 716.68,354.9 C716.68,359.46 718.502,363.588 721.446,366.634 C714.651,368.832 709.72,375.387 709.72,382.905 C709.72,387.066 711.237,391 713.737,394 L705.76,394 C696.43,394 688.84,401.169 688.84,410.5 C688.84,419.83 696.43,427 705.76,427 L706.777,427 C704.276,430 702.76,433.839 702.76,438 C702.76,442.161 704.276,446 706.777,449 L691.84,449 C682.51,449 674.92,456.67 674.92,466 C674.92,470.161 676.436,474 678.937,477 L676,477 C667.729,477 661,483.889 661,492.16 L661,496 C661,504.271 667.729,511 676,511 L826,511 C834.271,511 841,504.271 841,496 L841,492.16 C841,483.889 834.271,477 826,477 L826,477 Z" id="06"></path>
            </g>
        </g>
    </g>
</svg>