<?xml version="1.0" encoding="UTF-8" standalone="no"?>
<svg width="206px" height="194px" viewBox="0 0 206 194" version="1.1" xmlns="http://www.w3.org/2000/svg" xmlns:xlink="http://www.w3.org/1999/xlink">
    <!-- Generator: Sketch 40.3 (33839) - http://www.bohemiancoding.com/sketch -->
    <title>07</title>
    <desc>Created with Sketch.</desc>
    <defs></defs>
    <g id="Page-1" stroke="none" stroke-width="1" fill="none" fill-rule="evenodd">
        <g id="Artboard" transform="translate(-125.000000, -3510.000000)" fill="#000000">
            <g id="plants" transform="translate(125.000000, 2883.000000)">
                <path d="M99.9999,710.3632 L99.9999,796.0982 L78.1099,714.4052 L72.3149,715.9572 L93.6849,795.7062 L52.3199,724.0602 L47.1239,727.0602 L88.2739,798.3342 L29.4299,739.4902 L25.1869,743.7322 L81.0339,799.5792 L12.7579,760.1602 L9.7579,765.3552 L81.4039,806.7202 L1.6549,785.3512 L0.1029,791.1462 L86.7479,814.3622 L-0.0001,814.3622 L-0.0001,820.3632 L204.9999,820.3632 L204.9999,814.3622 L119.0699,814.3622 L205.7149,791.1462 L204.1619,785.3512 L126.7779,806.0872 L197.3259,765.3552 L194.3259,760.1602 L123.0529,801.3092 L180.6299,743.7322 L176.3869,739.4902 L117.5459,798.3332 L158.6939,727.0602 L153.4989,724.0602 L112.1339,795.7062 L133.5029,715.9572 L127.7079,714.4052 L105.9999,795.4192 L105.9999,710.3632 L99.9999,710.3632 Z M173.8789,689.7263 L175.3109,688.2943 C175.5399,688.3263 175.7689,688.3603 175.9999,688.3603 C176.2309,688.3603 176.4599,688.3263 176.6889,688.2943 L178.1209,689.7263 L182.3629,685.4843 L180.9309,684.0523 C180.9949,683.5943 180.9949,683.1323 180.9309,682.6743 L182.3629,681.2423 L178.1209,676.9993 L176.6889,678.4323 C176.2309,678.3683 175.7689,678.3683 175.3109,678.4323 L173.8789,676.9993 L169.6369,681.2423 L171.0689,682.6743 C171.0059,683.1323 171.0059,683.5943 171.0689,684.0523 L169.6369,685.4843 L173.8789,689.7263 Z M130.8789,639.7263 L132.3109,638.2943 C132.5399,638.3263 132.7689,638.3603 132.9999,638.3603 C133.2309,638.3603 133.4599,638.3263 133.6889,638.2943 L135.1209,639.7263 L139.3629,635.4843 L137.9309,634.0523 C137.9949,633.5943 137.9949,633.1323 137.9309,632.6743 L139.3629,631.2423 L135.1209,626.9993 L133.6889,628.4323 C133.2309,628.3683 132.7689,628.3683 132.3109,628.4323 L130.8789,626.9993 L126.6369,631.2423 L128.0689,632.6743 C128.0059,633.1323 128.0059,633.5943 128.0689,634.0523 L126.6369,635.4843 L130.8789,639.7263 Z M27.8789,700.7263 L29.3109,699.2943 C29.5399,699.3263 29.7689,699.3603 29.9999,699.3603 C30.2309,699.3603 30.4599,699.3263 30.6889,699.2943 L32.1209,700.7263 L36.3629,696.4843 L34.9309,695.0523 C34.9949,694.5943 34.9949,694.1323 34.9309,693.6743 L36.3629,692.2423 L32.1209,687.9993 L30.6889,689.4323 C30.2309,689.3683 29.7689,689.3683 29.3109,689.4323 L27.8789,687.9993 L23.6369,692.2423 L25.0689,693.6743 C25.0059,694.1323 25.0059,694.5943 25.0689,695.0523 L23.6369,696.4843 L27.8789,700.7263 Z" id="07"></path>
            </g>
        </g>
    </g>
</svg>