<?xml version="1.0" encoding="UTF-8" standalone="no"?>
<svg width="209px" height="183px" viewBox="0 0 209 183" version="1.1" xmlns="http://www.w3.org/2000/svg" xmlns:xlink="http://www.w3.org/1999/xlink">
    <!-- Generator: Sketch 40.3 (33839) - http://www.bohemiancoding.com/sketch -->
    <title>08</title>
    <desc>Created with Sketch.</desc>
    <defs></defs>
    <g id="Page-1" stroke="none" stroke-width="1" fill="none" fill-rule="evenodd">
        <g id="Artboard" transform="translate(-448.000000, -3515.000000)" fill="#000000">
            <g id="plants" transform="translate(125.000000, 2883.000000)">
                <path d="M339.0625,643.8299 C339.0625,640.6149 341.6775,637.9999 344.8925,637.9999 C348.1075,637.9999 350.7225,640.6149 350.7225,643.8299 C350.7225,647.0449 348.1075,649.6599 344.8925,649.6599 C341.6775,649.6599 339.0625,647.0449 339.0625,643.8299 L339.0625,643.8299 Z M366.7855,673.2579 L363.7855,668.0619 L347.3925,677.5259 L347.3925,655.3889 C352.7185,654.2379 356.7225,649.4949 356.7225,643.8299 C356.7225,637.3069 351.4165,631.9999 344.8925,631.9999 C338.3695,631.9999 333.0625,637.3069 333.0625,643.8299 C333.0625,649.1349 336.5725,653.6349 341.3925,655.1309 L341.3925,676.9489 L325.9995,668.0619 L323.0005,673.2579 L341.3925,683.8759 L341.3925,700.9489 L325.9995,692.0619 L323.0005,697.2579 L341.3925,707.8759 L341.3925,724.9489 L325.9995,716.0619 L323.0005,721.2579 L341.3925,731.8759 L341.3925,748.9489 L325.9995,740.0619 L323.0005,745.2579 L341.3925,755.8759 L341.3925,772.9489 L325.9995,764.0619 L323.0005,769.2579 L341.3925,779.8759 L341.3925,796.9489 L325.9995,788.0619 L323.0005,793.2579 L341.3925,803.8759 L341.3925,814.6599 L347.3925,814.6599 L347.3925,804.4539 L366.7855,793.2579 L363.7855,788.0619 L347.3925,797.5259 L347.3925,780.4539 L366.7855,769.2579 L363.7855,764.0619 L347.3925,773.5259 L347.3925,756.4539 L366.7855,745.2579 L363.7855,740.0619 L347.3925,749.5259 L347.3925,732.4539 L366.7855,721.2579 L363.7855,716.0619 L347.3925,725.5259 L347.3925,708.4539 L366.7855,697.2579 L363.7855,692.0619 L347.3925,701.5259 L347.3925,684.4539 L366.7855,673.2579 Z M447.7855,673.2579 L444.7855,668.0619 L428.3925,677.5259 L428.3925,655.3889 C433.7185,654.2379 437.7225,649.4949 437.7225,643.8299 C437.7225,637.3069 432.4165,631.9999 425.8925,631.9999 C419.3695,631.9999 414.0625,637.3069 414.0625,643.8299 C414.0625,649.1349 417.5725,653.6349 422.3925,655.1309 L422.3925,676.9489 L406.9995,668.0619 L404.0005,673.2579 L422.3925,683.8759 L422.3925,700.9489 L406.9995,692.0619 L404.0005,697.2579 L422.3925,707.8759 L422.3925,724.9489 L406.9995,716.0619 L404.0005,721.2579 L422.3925,731.8759 L422.3925,748.9489 L406.9995,740.0619 L404.0005,745.2579 L422.3925,755.8759 L422.3925,772.9489 L406.9995,764.0619 L404.0005,769.2579 L422.3925,779.8759 L422.3925,796.9489 L406.9995,788.0619 L404.0005,793.2579 L422.3925,803.8759 L422.3925,814.6599 L428.3925,814.6599 L428.3925,804.4539 L447.7855,793.2579 L444.7855,788.0619 L428.3925,797.5259 L428.3925,780.4539 L447.7855,769.2579 L444.7855,764.0619 L428.3925,773.5259 L428.3925,756.4539 L447.7855,745.2579 L444.7855,740.0619 L428.3925,749.5259 L428.3925,732.4539 L447.7855,721.2579 L444.7855,716.0619 L428.3925,725.5259 L428.3925,708.4539 L447.7855,697.2579 L444.7855,692.0619 L428.3925,701.5259 L428.3925,684.4539 L447.7855,673.2579 Z M420.0625,643.8299 C420.0625,640.6149 422.6775,637.9999 425.8925,637.9999 C429.1075,637.9999 431.7225,640.6149 431.7225,643.8299 C431.7225,647.0449 429.1075,649.6599 425.8925,649.6599 C422.6775,649.6599 420.0625,647.0449 420.0625,643.8299 Z M531.7855,697.2579 L528.7855,692.0619 L512.3925,701.5259 L512.3925,684.4539 L531.7855,673.2579 L528.7855,668.0619 L512.3925,677.5259 L512.3925,655.3889 C517.7185,654.2379 521.7225,649.4949 521.7225,643.8299 C521.7225,637.3069 516.4165,631.9999 509.8925,631.9999 C503.3695,631.9999 498.0625,637.3069 498.0625,643.8299 C498.0625,649.1349 501.5725,653.6349 506.3925,655.1309 L506.3925,676.9489 L490.9995,668.0619 L488.0005,673.2579 L506.3925,683.8759 L506.3925,700.9489 L490.9995,692.0619 L488.0005,697.2579 L506.3925,707.8759 L506.3925,724.9489 L490.9995,716.0619 L488.0005,721.2579 L506.3925,731.8759 L506.3925,748.9489 L490.9995,740.0619 L488.0005,745.2579 L506.3925,755.8759 L506.3925,772.9489 L490.9995,764.0619 L488.0005,769.2579 L506.3925,779.8759 L506.3925,796.9489 L490.9995,788.0619 L488.0005,793.2579 L506.3925,803.8759 L506.3925,814.6599 L512.3925,814.6599 L512.3925,804.4539 L531.7855,793.2579 L528.7855,788.0619 L512.3925,797.5259 L512.3925,780.4539 L531.7855,769.2579 L528.7855,764.0619 L512.3925,773.5259 L512.3925,756.4539 L531.7855,745.2579 L528.7855,740.0619 L512.3925,749.5259 L512.3925,732.4539 L531.7855,721.2579 L528.7855,716.0619 L512.3925,725.5259 L512.3925,708.4539 L531.7855,697.2579 Z M504.0625,643.8299 C504.0625,640.6149 506.6775,637.9999 509.8925,637.9999 C513.1075,637.9999 515.7225,640.6149 515.7225,643.8299 C515.7225,647.0449 513.1075,649.6599 509.8925,649.6599 C506.6775,649.6599 504.0625,647.0449 504.0625,643.8299 Z" id="08"></path>
            </g>
        </g>
    </g>
</svg>