<?xml version="1.0" encoding="UTF-8" standalone="no"?>
<svg width="205px" height="193px" viewBox="0 0 205 193" version="1.1" xmlns="http://www.w3.org/2000/svg" xmlns:xlink="http://www.w3.org/1999/xlink">
    <!-- Generator: Sketch 40.3 (33839) - http://www.bohemiancoding.com/sketch -->
    <title>09</title>
    <desc>Created with Sketch.</desc>
    <defs></defs>
    <g id="Page-1" stroke="none" stroke-width="1" fill="none" fill-rule="evenodd">
        <g id="Artboard" transform="translate(-774.000000, -3510.000000)" fill="#000000">
            <g id="plants" transform="translate(125.000000, 2883.000000)">
                <path d="M796.7285,813.999 L760.1215,813.999 L830.9995,758.698 L796.7285,813.999 Z M760.0175,806.469 L800.5595,725.386 L794.5435,779.531 L760.0175,806.469 Z M706.0695,813.999 L671.7975,758.698 L742.6765,813.999 L706.0695,813.999 Z M702.2385,725.386 L742.7795,806.469 L708.2545,779.531 L702.2385,725.386 Z M751.3985,633 C753.3285,633 754.8985,634.57 754.8985,636.5 C754.8985,638.43 753.3285,639.999 751.3985,639.999 C749.4695,639.999 747.8995,638.43 747.8995,636.5 C747.8995,634.57 749.4695,633 751.3985,633 L751.3985,633 Z M801.1535,774.374 L810.2385,692.612 L754.3985,804.291 L754.3985,645.506 C758.1695,644.246 760.8985,640.688 760.8985,636.5 C760.8985,631.262 756.6375,627 751.3985,627 C746.1605,627 741.8995,631.262 741.8995,636.5 C741.8995,640.688 744.6275,644.246 748.3985,645.506 L748.3985,804.291 L692.5595,692.612 L701.6445,774.374 L648.9995,733.3 L702.7285,819.999 L742.6765,819.999 L760.1215,819.999 L800.0695,819.999 L853.7975,733.3 L801.1535,774.374 Z" id="09"></path>
            </g>
        </g>
    </g>
</svg>