<?xml version="1.0" encoding="UTF-8" standalone="no"?>
<svg width="175px" height="207px" viewBox="0 0 175 207" version="1.1" xmlns="http://www.w3.org/2000/svg" xmlns:xlink="http://www.w3.org/1999/xlink">
    <!-- Generator: Sketch 40.3 (33839) - http://www.bohemiancoding.com/sketch -->
    <title>10</title>
    <desc>Created with Sketch.</desc>
    <defs></defs>
    <g id="Page-1" stroke="none" stroke-width="1" fill="none" fill-rule="evenodd">
        <g id="Artboard" transform="translate(-141.000000, -3809.000000)" fill="#000000">
            <g id="plants" transform="translate(125.000000, 2883.000000)">
                <path d="M142.5,944 L142.5,1010 L64.5,1010 L64.5,944 L84.076,944 C84.038,944.497 84,944.994 84,945.5 C84,956.252 92.748,965 103.5,965 C114.252,965 123,956.252 123,945.5 C123,944.994 122.962,944.497 122.924,944 L142.5,944 Z M103.5,932 C110.944,932 117,938.056 117,945.5 C117,952.944 110.944,959 103.5,959 C96.056,959 90,952.944 90,945.5 C90,938.056 96.056,932 103.5,932 L103.5,932 Z M103.5,926 C95.405,926 88.449,930.961 85.504,938 L58.5,938 L58.5,1016 L100.5,1016 L100.5,1133 L106.5,1133 L106.5,1016 L148.5,1016 L148.5,938 L121.496,938 C118.551,930.961 111.595,926 103.5,926 Z M35.5,1057 C24.748,1057 16,1065.748 16,1076.5 C16,1086.229 23.171,1094.294 32.5,1095.745 L32.5,1133 L38.5,1133 L38.5,1095.745 C47.829,1094.294 55,1086.229 55,1076.5 C55,1065.748 46.252,1057 35.5,1057 Z M35.5,1090 C28.056,1090 22,1083.944 22,1076.5 C22,1069.056 28.056,1063 35.5,1063 C42.944,1063 49,1069.056 49,1076.5 C49,1083.944 42.944,1090 35.5,1090 Z M35.5,1073.6714 C33.938,1073.6714 32.671,1074.9374 32.671,1076.5004 C32.671,1078.0624 33.938,1079.3284 35.5,1079.3284 C37.062,1079.3284 38.329,1078.0624 38.329,1076.5004 C38.329,1074.9374 37.062,1073.6714 35.5,1073.6714 Z M191,1046.5 C191,1035.748 182.252,1027 171.5,1027 C160.748,1027 152,1035.748 152,1046.5 C152,1056.229 159.171,1064.294 168.5,1065.745 L168.5,1133 L174.5,1133 L174.5,1065.745 C183.829,1064.294 191,1056.229 191,1046.5 Z M171.5,1060 C164.056,1060 158,1053.944 158,1046.5 C158,1039.056 164.056,1033 171.5,1033 C178.944,1033 185,1039.056 185,1046.5 C185,1053.944 178.944,1060 171.5,1060 Z M171.5,1043.6714 C169.938,1043.6714 168.671,1044.9374 168.671,1046.5004 C168.671,1048.0624 169.938,1049.3284 171.5,1049.3284 C173.062,1049.3284 174.329,1048.0624 174.329,1046.5004 C174.329,1044.9374 173.062,1043.6714 171.5,1043.6714 Z M103.5,948.3286 C105.062,948.3286 106.329,947.0616 106.329,945.4996 C106.329,943.9376 105.062,942.6716 103.5,942.6716 C101.938,942.6716 100.671,943.9376 100.671,945.4996 C100.671,947.0616 101.938,948.3286 103.5,948.3286 Z" id="10"></path>
            </g>
        </g>
    </g>
</svg>