<?xml version="1.0" encoding="UTF-8" standalone="no"?>
<svg width="168px" height="207px" viewBox="0 0 168 207" version="1.1" xmlns="http://www.w3.org/2000/svg" xmlns:xlink="http://www.w3.org/1999/xlink">
    <!-- Generator: Sketch 40.3 (33839) - http://www.bohemiancoding.com/sketch -->
    <title>11</title>
    <desc>Created with Sketch.</desc>
    <defs></defs>
    <g id="Page-1" stroke="none" stroke-width="1" fill="none" fill-rule="evenodd">
        <g id="Artboard" transform="translate(-468.000000, -3809.000000)" fill="#000000">
            <g id="plants" transform="translate(125.000000, 2883.000000)">
                <path d="M454,1088 L460,1088 L460,1082 L454,1082 L454,1088 Z M394,1076 L400,1076 L400,1070 L394,1070 L394,1076 Z M349,1034 L505,1034 L505,998 L349,998 L349,1034 Z M413.167,945.5 C413.167,938.056 419.223,932 426.667,932 C434.111,932 440.167,938.056 440.167,945.5 C440.167,952.944 434.111,959 426.667,959 C419.223,959 413.167,952.944 413.167,945.5 L413.167,945.5 Z M430,1040 L511,1040 L511,992 L430,992 L430,964.694 C439.167,963.105 446.167,955.114 446.167,945.5 C446.167,934.748 437.419,926 426.667,926 C415.915,926 407.167,934.748 407.167,945.5 C407.167,955.345 414.508,963.488 424,964.796 L424,992 L343,992 L343,1040 L424,1040 L424,1091 L406,1077.5 L406,1064 L388,1064 L388,1082 L402,1082 L424,1098.5 L424,1133 L430,1133 L430,1116.242 L452.242,1094 L466,1094 L466,1076 L448,1076 L448,1089.758 L430,1107.758 L430,1040 Z M429.496,945.5 C429.496,943.938 428.23,942.671 426.667,942.671 C425.105,942.671 423.839,943.938 423.839,945.5 C423.839,947.062 425.105,948.329 426.667,948.329 C428.23,948.329 429.496,947.062 429.496,945.5 Z" id="11"></path>
            </g>
        </g>
    </g>
</svg>