<?xml version="1.0" encoding="UTF-8" standalone="no"?>
<svg width="172px" height="209px" viewBox="0 0 172 209" version="1.1" xmlns="http://www.w3.org/2000/svg" xmlns:xlink="http://www.w3.org/1999/xlink">
    <!-- Generator: Sketch 40.3 (33839) - http://www.bohemiancoding.com/sketch -->
    <title>12</title>
    <desc>Created with Sketch.</desc>
    <defs></defs>
    <g id="Page-1" stroke="none" stroke-width="1" fill="none" fill-rule="evenodd">
        <g id="Artboard" transform="translate(-790.000000, -3808.000000)" fill="#000000">
            <g id="plants" transform="translate(125.000000, 2883.000000)">
                <path d="M739.765,1016.028 L689.001,980 L738.129,1079.9 L665,1028 L717.117,1133.978 L814.326,1133.978 L787.636,1115.035 L836.829,1015 L792.261,1046.631 L836.829,956 L787.755,990.829 L695.001,925 L739.765,1016.028 Z M710.829,943.592 L782.572,994.508 L747.951,1019.078 L710.829,943.592 Z M751.191,1024.137 L821.001,974.592 L784.878,1048.046 L751.191,1024.137 Z M704.831,998.591 L782.39,1053.636 L744.962,1080.199 L704.831,998.591 Z M746.94,1086.153 L821.001,1033.592 L782.679,1111.517 L746.94,1086.153 Z M680.83,1046.592 L795.505,1127.977 L720.853,1127.977 L680.83,1046.592 Z" id="12"></path>
            </g>
        </g>
    </g>
</svg>