<?xml version="1.0" encoding="UTF-8" standalone="no"?>
<svg width="210px" height="207px" viewBox="0 0 210 207" version="1.1" xmlns="http://www.w3.org/2000/svg" xmlns:xlink="http://www.w3.org/1999/xlink">
    <!-- Generator: Sketch 40.3 (33839) - http://www.bohemiancoding.com/sketch -->
    <title>01</title>
    <desc>Created with Sketch.</desc>
    <defs></defs>
    <g id="Page-1" stroke="none" stroke-width="1" fill="none" fill-rule="evenodd">
        <g id="Artboard" transform="translate(-123.000000, -138.000000)" fill="#000000">
            <g id="celestial-bodies" transform="translate(123.000000, 136.000000)">
                <path d="M142.629,179.335 C129.878,172.574 115.484,169 101,169 C86.915,169 72.918,172.389 60.431,178.794 C43.598,169.009 30.499,153.49 23.845,134.917 C37.347,137.254 73.631,143 104,143 C137.272,143 167.879,137.583 180.088,135.117 C173.287,153.947 159.855,169.621 142.629,179.335 L142.629,179.335 Z M67.059,182.26 C77.683,177.501 89.309,175 101,175 C113.058,175 125.045,177.662 135.936,182.716 C125.568,187.381 114.087,190 102,190 C89.522,190 77.687,187.214 67.059,182.26 L67.059,182.26 Z M182.143,128.561 C173.554,130.411 140.402,137 104,137 C71.357,137 31.638,130.235 21.832,128.47 C20.244,122.546 19.304,116.363 19.077,110 L184.924,110 C184.696,116.396 183.746,122.609 182.143,128.561 L182.143,128.561 Z M17.451,91.267 L20.4,91.813 C20.798,89.664 21.29,87.54 21.854,85.439 C30.437,83.59 63.593,77 100,77 C132.648,77 172.371,83.766 182.172,85.53 C182.726,87.601 183.208,89.695 183.6,91.813 L186.55,91.267 L183.6,91.814 C183.858,93.205 184.086,94.675 184.296,96.307 C184.63,98.899 184.841,101.474 184.937,104 L19.063,104 C19.16,101.474 19.371,98.899 19.705,96.307 C19.914,94.675 20.142,93.205 20.4,91.814 L17.451,91.267 Z M40.671,51.106 C46.8,44.388 53.896,38.772 61.781,34.396 C61.947,34.48 62.117,34.558 62.284,34.642 C62.658,34.829 63.035,35.011 63.412,35.193 C63.834,35.396 64.257,35.597 64.683,35.793 C65.062,35.969 65.443,36.14 65.825,36.31 C66.253,36.501 66.683,36.688 67.115,36.872 C67.498,37.035 67.883,37.196 68.269,37.354 C68.704,37.532 69.141,37.706 69.578,37.877 C69.966,38.028 70.355,38.178 70.745,38.324 C71.185,38.489 71.627,38.649 72.07,38.807 C72.462,38.947 72.854,39.085 73.248,39.219 C73.695,39.371 74.142,39.518 74.591,39.663 C74.985,39.79 75.38,39.917 75.776,40.039 C76.229,40.179 76.683,40.312 77.137,40.444 C77.534,40.559 77.93,40.674 78.329,40.784 C78.787,40.91 79.247,41.03 79.707,41.149 C80.105,41.252 80.503,41.355 80.902,41.453 C81.367,41.566 81.833,41.672 82.299,41.777 C82.697,41.868 83.095,41.96 83.495,42.045 C83.966,42.145 84.438,42.236 84.91,42.329 C85.309,42.407 85.707,42.487 86.106,42.56 C86.584,42.647 87.064,42.724 87.543,42.803 C87.939,42.869 88.333,42.937 88.73,42.997 C89.219,43.071 89.71,43.135 90.2,43.2 C90.589,43.253 90.978,43.309 91.368,43.356 C91.873,43.417 92.38,43.467 92.887,43.519 C93.263,43.558 93.638,43.602 94.014,43.636 C94.545,43.684 95.078,43.72 95.611,43.759 C95.965,43.785 96.318,43.816 96.672,43.837 C97.267,43.873 97.864,43.896 98.46,43.92 C98.751,43.932 99.041,43.95 99.332,43.959 C100.221,43.986 101.111,44 102,44 C102.89,44 103.78,43.986 104.669,43.959 C104.96,43.95 105.25,43.932 105.541,43.92 C106.137,43.896 106.733,43.873 107.329,43.837 C107.683,43.816 108.036,43.785 108.39,43.759 C108.922,43.72 109.455,43.684 109.987,43.636 C110.363,43.602 110.738,43.558 111.113,43.52 C111.62,43.467 112.127,43.417 112.633,43.356 C113.023,43.309 113.411,43.253 113.8,43.201 C114.291,43.135 114.782,43.071 115.271,42.997 C115.667,42.937 116.062,42.869 116.458,42.803 C116.937,42.724 117.417,42.647 117.895,42.56 C118.294,42.487 118.692,42.407 119.09,42.329 C119.563,42.236 120.035,42.145 120.506,42.045 C120.906,41.96 121.303,41.868 121.702,41.777 C122.168,41.672 122.634,41.566 123.098,41.453 C123.498,41.355 123.896,41.252 124.294,41.149 C124.754,41.03 125.214,40.91 125.672,40.784 C126.07,40.674 126.467,40.559 126.863,40.444 C127.318,40.312 127.772,40.179 128.225,40.039 C128.621,39.917 129.015,39.79 129.41,39.663 C129.859,39.518 130.306,39.371 130.753,39.219 C131.146,39.085 131.538,38.947 131.93,38.807 C132.374,38.649 132.816,38.488 133.257,38.323 C133.646,38.177 134.035,38.028 134.422,37.877 C134.86,37.706 135.297,37.532 135.732,37.354 C136.118,37.196 136.502,37.035 136.886,36.872 C137.318,36.688 137.748,36.501 138.176,36.31 C138.558,36.14 138.939,35.969 139.318,35.793 C139.744,35.597 140.167,35.396 140.589,35.193 C140.966,35.011 141.343,34.829 141.717,34.642 C141.884,34.558 142.054,34.48 142.22,34.396 C150.104,38.772 157.201,44.388 163.33,51.106 C170.787,59.279 176.481,68.792 180.158,79.083 C166.658,76.746 130.371,71 100,71 C66.73,71 36.123,76.416 23.913,78.882 C27.593,68.668 33.262,59.226 40.671,51.106 L40.671,51.106 Z M135.356,30.995 C135.236,31.047 135.116,31.1 134.996,31.152 C133.838,31.653 132.67,32.135 131.49,32.582 C131.378,32.625 131.264,32.664 131.152,32.706 C130.006,33.135 128.85,33.537 127.687,33.915 C127.522,33.968 127.359,34.025 127.194,34.077 C126.002,34.457 124.8,34.804 123.592,35.129 C123.356,35.193 123.12,35.256 122.883,35.317 C121.674,35.631 120.459,35.922 119.237,36.181 C119.06,36.219 118.881,36.252 118.703,36.288 C117.501,36.535 116.294,36.758 115.082,36.952 C114.974,36.97 114.866,36.99 114.758,37.007 C113.506,37.202 112.248,37.362 110.988,37.499 C110.748,37.526 110.509,37.553 110.27,37.577 C109.034,37.701 107.795,37.799 106.554,37.868 C106.334,37.88 106.114,37.888 105.895,37.898 C104.598,37.959 103.3,38 102,38 C100.701,38 99.403,37.959 98.106,37.898 C97.886,37.888 97.667,37.88 97.447,37.868 C96.206,37.799 94.967,37.701 93.731,37.577 C93.492,37.553 93.253,37.526 93.013,37.499 C91.753,37.362 90.495,37.202 89.243,37.007 C89.135,36.99 89.027,36.97 88.919,36.952 C87.707,36.758 86.499,36.535 85.297,36.288 C85.12,36.252 84.941,36.219 84.764,36.181 C83.541,35.922 82.327,35.631 81.118,35.317 C80.881,35.256 80.645,35.193 80.409,35.129 C79.2,34.804 77.999,34.457 76.807,34.077 C76.642,34.025 76.479,33.968 76.314,33.915 C75.15,33.537 73.995,33.135 72.849,32.706 C72.737,32.664 72.623,32.625 72.511,32.582 C71.33,32.135 70.163,31.653 69.005,31.152 C68.884,31.1 68.764,31.047 68.644,30.995 C79.109,26.406 90.524,24 102,24 C113.476,24 124.891,26.406 135.356,30.995 L135.356,30.995 Z M189.5,90.72 C186.485,74.441 178.969,59.344 167.763,47.062 C162.066,40.819 155.579,35.481 148.447,31.108 L148.651,31 L143.658,28.35 L142.252,27.603 L142.225,27.618 C129.825,21.327 115.957,18 102,18 C88.044,18 74.176,21.327 61.776,27.618 L61.749,27.603 L60.343,28.35 L55.35,31 L55.554,31.108 C48.422,35.481 41.934,40.819 36.238,47.062 C25.032,59.344 17.516,74.441 14.501,90.72 C14.223,92.22 13.978,93.797 13.753,95.54 C13.254,99.42 13,103.276 13,107 C13,156.075 52.926,196 102,196 C151.075,196 191,156.075 191,107 C191,103.276 190.747,99.42 190.247,95.54 C190.023,93.797 189.778,92.22 189.5,90.72 Z M174,32 C182.271,32 189,25.271 189,17 C189,8.729 182.271,2 174,2 C165.729,2 159,8.729 159,17 C159,25.271 165.729,32 174,32 Z M174,8 C178.962,8 183,12.038 183,17 C183,21.962 178.962,26 174,26 C169.038,26 165,21.962 165,17 C165,12.038 169.038,8 174,8 Z M27.974,188 L30,188 L30,182 L27.974,182 C27.695,181.631 27.368,181.305 27,181.026 L27,179 L21,179 L21,181.026 C20.631,181.305 20.304,181.631 20.025,182 L18,182 L18,188 L20.025,188 C20.304,188.369 20.631,188.695 21,188.974 L21,191 L27,191 L27,188.974 C27.368,188.695 27.695,188.369 27.974,188 Z M210,44 L207.974,44 C207.695,43.631 207.369,43.305 207,43.026 L207,41 L201,41 L201,43.026 C200.631,43.305 200.305,43.631 200.026,44 L198,44 L198,50 L200.026,50 C200.305,50.369 200.631,50.695 201,50.974 L201,53 L207,53 L207,50.974 C207.369,50.695 207.695,50.369 207.974,50 L210,50 L210,44 Z M33,203 C31.343,203 30,204.343 30,206 C30,207.657 31.343,209 33,209 C34.657,209 36,207.657 36,206 C36,204.343 34.657,203 33,203 Z M3,191 C1.343,191 0,192.343 0,194 C0,195.657 1.343,197 3,197 C4.657,197 6,195.657 6,194 C6,192.343 4.657,191 3,191 Z" id="01"></path>
            </g>
        </g>
    </g>
</svg>