<?xml version="1.0" encoding="UTF-8" standalone="no"?>
<svg width="206px" height="210px" viewBox="0 0 206 210" version="1.1" xmlns="http://www.w3.org/2000/svg" xmlns:xlink="http://www.w3.org/1999/xlink">
    <!-- Generator: Sketch 40.3 (33839) - http://www.bohemiancoding.com/sketch -->
    <title>02</title>
    <desc>Created with Sketch.</desc>
    <defs></defs>
    <g id="Page-1" stroke="none" stroke-width="1" fill="none" fill-rule="evenodd">
        <g id="Artboard" transform="translate(-450.000000, -136.000000)" fill="#000000">
            <g id="celestial-bodies" transform="translate(123.000000, 136.000000)">
                <path d="M333.364,62.9996 C333.598,62.9996 333.826,62.9636 334.054,62.9326 L335.486,64.3636 L339.728,60.1216 L338.297,58.6896 C338.328,58.4616 338.364,58.2336 338.364,57.9996 C338.364,57.7656 338.328,57.5376 338.297,57.3096 L339.728,55.8776 L335.486,51.6356 L334.054,53.0666 C333.826,53.0356 333.598,52.9996 333.364,52.9996 C333.13,52.9996 332.902,53.0356 332.674,53.0666 L331.242,51.6356 L327,55.8776 L328.431,57.3096 C328.4,57.5376 328.364,57.7656 328.364,57.9996 C328.364,58.2336 328.4,58.4616 328.431,58.6896 L327,60.1216 L331.242,64.3636 L332.674,62.9326 C332.902,62.9636 333.13,62.9996 333.364,62.9996 Z M513.364,200.0252 L513.364,197.9992 L507.364,197.9992 L507.364,200.0252 C506.995,200.3042 506.669,200.6312 506.39,200.9992 L504.364,200.9992 L504.364,206.9992 L506.39,206.9992 C506.669,207.3682 506.995,207.6952 507.364,207.9742 L507.364,209.9992 L513.364,209.9992 L513.364,207.9742 C513.733,207.6952 514.059,207.3682 514.338,206.9992 L516.364,206.9992 L516.364,200.9992 L514.338,200.9992 C514.059,200.6312 513.733,200.3042 513.364,200.0252 Z M357.364,9.974 L357.364,12 L363.364,12 L363.364,9.974 C363.733,9.695 364.059,9.368 364.338,9 L366.364,9 L366.364,3 L364.338,3 C364.059,2.631 363.733,2.304 363.364,2.025 L363.364,0 L357.364,0 L357.364,2.025 C356.995,2.304 356.669,2.631 356.39,3 L354.364,3 L354.364,9 L356.39,9 C356.669,9.368 356.995,9.695 357.364,9.974 Z M530.5069,26.0708 C525.5209,19.6148 511.5409,22.0228 488.9909,33.1698 C476.1769,22.5658 460.6229,15.7478 443.7219,13.5758 C420.1459,10.5438 396.7969,16.8768 377.9809,31.4078 C344.5179,57.2478 334.5679,102.3838 351.6249,139.2278 C335.1139,158.2518 329.2619,171.1718 334.2469,177.6268 C336.0689,179.9868 339.0909,181.1648 343.2959,181.1638 C350.5919,181.1638 361.4569,177.6088 375.7739,170.5318 C391.9729,183.8848 412.1419,190.8138 432.4769,190.8138 C451.4729,190.8138 470.6099,184.7718 486.7739,172.2908 C505.5889,157.7608 517.6199,136.7738 520.6509,113.1948 C522.8229,96.2978 520.1609,79.5288 513.1449,64.4518 C529.6449,45.4378 535.4899,32.5238 530.5069,26.0708 Z M514.6999,112.4298 C511.8739,134.4188 500.6539,153.9918 483.1069,167.5418 C468.0309,179.1838 450.1879,184.8178 432.4699,184.8168 C414.3549,184.8148 396.3759,178.9168 381.6329,167.5328 C401.6169,157.0038 425.2439,141.4428 448.8659,123.2018 C472.4949,104.9558 493.5309,86.0248 508.7709,69.3488 C514.5139,82.7848 516.6119,97.5558 514.6999,112.4298 Z M338.9959,173.9598 C337.3679,171.8528 338.9639,163.4148 354.5509,145.0328 C356.6969,148.8948 359.1549,152.6448 361.9349,156.2458 C364.7159,159.8468 367.7219,163.1738 370.9159,166.2258 C349.1879,176.6578 340.6229,176.0668 338.9959,173.9598 Z M350.0539,91.2678 C352.8799,69.2788 364.0999,49.7068 381.6479,36.1568 C396.7239,24.5138 414.5659,18.8818 432.2829,18.8818 C457.1369,18.8818 481.7399,29.9728 498.0699,51.1198 C501.1009,55.0448 503.7269,59.1908 505.9809,63.4938 C490.8679,80.3428 469.4289,99.7428 445.1989,118.4528 C420.9649,137.1668 396.7709,153.0058 376.6469,163.3668 C373.0719,160.1258 369.7339,156.5278 366.6839,152.5788 C353.1339,135.0318 347.2279,113.2578 350.0539,91.2678 Z M525.7579,29.7378 C527.3849,31.8458 525.7909,40.2808 510.2099,58.6568 C508.0469,54.7788 505.5829,51.0328 502.8189,47.4528 C500.0539,43.8728 497.0529,40.5418 493.8469,37.4678 C515.5349,27.0528 524.1189,27.6138 525.7579,29.7378 Z M497.364,14.9996 C499.021,14.9996 500.364,13.6566 500.364,11.9996 C500.364,10.3426 499.021,8.9996 497.364,8.9996 C495.707,8.9996 494.364,10.3426 494.364,11.9996 C494.364,13.6566 495.707,14.9996 497.364,14.9996 Z" id="02"></path>
            </g>
        </g>
    </g>
</svg>