<?xml version="1.0" encoding="UTF-8" standalone="no"?>
<svg width="198px" height="204px" viewBox="0 0 198 204" version="1.1" xmlns="http://www.w3.org/2000/svg" xmlns:xlink="http://www.w3.org/1999/xlink">
    <!-- Generator: Sketch 40.3 (33839) - http://www.bohemiancoding.com/sketch -->
    <title>03</title>
    <desc>Created with Sketch.</desc>
    <defs></defs>
    <g id="Page-1" stroke="none" stroke-width="1" fill="none" fill-rule="evenodd">
        <g id="Artboard" transform="translate(-777.000000, -139.000000)" fill="#000000">
            <g id="celestial-bodies" transform="translate(123.000000, 136.000000)">
                <path d="M852,48 C852,36.42 842.579,27 831,27 C827.342,27 823.822,27.954 820.674,29.749 C802.26,12.481 778.323,3 753,3 C730.424,3 708.528,10.753 690.993,24.856 C688.265,22.412 684.711,21 681,21 C672.729,21 666,27.729 666,36 C666,40.222 667.732,44.125 670.74,46.927 C659.787,63.244 654,82.217 654,102 C654,156.589 698.411,201 753,201 C760.584,201 768.128,200.132 775.467,198.429 C777.906,203.589 783.111,207 789,207 C797.272,207 804,200.271 804,192 C804,190.403 803.739,188.818 803.239,187.306 C833.383,169.523 852,137.093 852,102 C852,88.855 849.468,76.115 844.474,64.091 C849.226,60.121 852,54.273 852,48 Z M800.261,182.107 L800.246,182.092 C799.933,181.737 799.6,181.404 799.258,181.082 C799.192,181.02 799.127,180.958 799.06,180.897 C798.717,180.586 798.361,180.292 797.992,180.015 C797.925,179.964 797.856,179.918 797.789,179.868 C797.433,179.611 797.068,179.367 796.692,179.141 C796.652,179.117 796.613,179.09 796.572,179.066 C796.171,178.831 795.758,178.62 795.337,178.422 C795.247,178.38 795.157,178.339 795.066,178.298 C794.643,178.11 794.213,177.938 793.774,177.789 C793.718,177.77 793.661,177.755 793.605,177.737 C793.194,177.604 792.777,177.489 792.354,177.391 C792.273,177.372 792.193,177.351 792.112,177.334 C791.66,177.237 791.202,177.163 790.74,177.109 C790.642,177.097 790.545,177.089 790.446,177.079 C789.968,177.032 789.486,177 789,177 C780.729,177 774,183.729 774,192 C774,192.203 774.005,192.408 774.014,192.612 C767.151,194.197 760.094,195 753,195 C701.72,195 660,153.28 660,102 C660,83.34 665.467,65.442 675.836,50.075 C675.863,50.085 675.891,50.091 675.917,50.101 C676.292,50.236 676.67,50.359 677.053,50.464 C677.121,50.483 677.19,50.496 677.258,50.514 C677.576,50.597 677.897,50.669 678.22,50.731 C678.343,50.754 678.468,50.775 678.592,50.795 C678.876,50.842 679.161,50.88 679.448,50.91 C679.567,50.922 679.686,50.937 679.805,50.947 C680.202,50.979 680.601,51 681,51 C689.272,51 696,44.271 696,36 C696,35.504 695.968,35.013 695.92,34.525 C695.906,34.387 695.888,34.251 695.871,34.114 C695.822,33.727 695.758,33.345 695.68,32.965 C695.657,32.856 695.64,32.746 695.615,32.638 C695.507,32.169 695.376,31.706 695.223,31.251 C695.187,31.143 695.144,31.039 695.105,30.932 C694.975,30.572 694.831,30.218 694.673,29.868 C694.64,29.794 694.616,29.716 694.581,29.642 C711.078,16.313 731.723,9 753,9 C776.462,9 798.658,17.665 815.859,33.466 C812.101,37.349 810,42.486 810,48 C810,59.58 819.421,69 831,69 C833.871,69 836.689,68.413 839.3,67.284 C843.748,78.314 846,89.975 846,102 C846,134.94 828.541,165.391 800.261,182.107 Z M753.0003,39.0001 C718.2623,39.0001 690.0003,67.2621 690.0003,102.0001 C690.0003,136.7381 718.2623,165.0001 753.0003,165.0001 C787.7383,165.0001 816.0003,136.7381 816.0003,102.0001 C816.0003,67.2621 787.7383,39.0001 753.0003,39.0001 Z M753.0003,159.0001 C721.5703,159.0001 696.0003,133.4301 696.0003,102.0001 C696.0003,70.5701 721.5703,45.0001 753.0003,45.0001 C784.4303,45.0001 810.0003,70.5701 810.0003,102.0001 C810.0003,133.4301 784.4303,159.0001 753.0003,159.0001 Z M772.2874,61.3321 L769.7134,66.7521 C775.8334,69.6591 781.1224,74.1411 785.0084,79.7121 L789.9304,76.2801 C785.4474,69.8541 779.3474,64.6861 772.2874,61.3321 Z M789,201 C784.856,201 781.268,198.187 780.275,194.159 C780.092,193.421 780,192.695 780,192 C780,187.038 784.037,183 789,183 C792.212,183 795.204,184.74 796.808,187.54 L796.813,187.549 C797.589,188.907 798,190.447 798,192 C798,196.962 793.963,201 789,201 Z M681,27 C683.905,27 686.558,28.358 688.279,30.726 C689.405,32.276 690,34.1 690,36 C690,40.962 685.963,45 681,45 C679.378,45 677.779,44.552 676.372,43.705 L676.37,43.703 C673.634,42.054 672,39.174 672,36 C672,31.038 676.037,27 681,27 Z M822.088,35.959 C824.698,34.023 827.78,33 831,33 C839.272,33 846,39.729 846,48 C846,53.091 843.44,57.794 839.151,60.58 C836.712,62.163 833.894,63 831,63 C822.729,63 816,56.271 816,48 C816,43.217 818.219,38.829 822.088,35.959 Z M789.0003,87.0001 C789.0003,88.6571 790.3433,90.0001 792.0003,90.0001 C793.6573,90.0001 795.0003,88.6571 795.0003,87.0001 C795.0003,85.3431 793.6573,84.0001 792.0003,84.0001 C790.3433,84.0001 789.0003,85.3431 789.0003,87.0001 Z" id="03"></path>
            </g>
        </g>
    </g>
</svg>