<?xml version="1.0" encoding="UTF-8" standalone="no"?>
<svg width="207px" height="204px" viewBox="0 0 207 204" version="1.1" xmlns="http://www.w3.org/2000/svg" xmlns:xlink="http://www.w3.org/1999/xlink">
    <!-- Generator: Sketch 40.3 (33839) - http://www.bohemiancoding.com/sketch -->
    <title>04</title>
    <desc>Created with Sketch.</desc>
    <defs></defs>
    <g id="Page-1" stroke="none" stroke-width="1" fill="none" fill-rule="evenodd">
        <g id="Artboard" transform="translate(-125.000000, -449.000000)" fill="#000000">
            <g id="celestial-bodies" transform="translate(123.000000, 136.000000)">
                <path d="M110,320 C60.925,320 21,359.925 21,409 C21,458.075 60.925,498 110,498 C159.075,498 199,458.075 199,409 C199,359.925 159.075,320 110,320 Z M110,492 C64.233,492 27,454.766 27,409 C27,363.234 64.233,326 110,326 C155.767,326 193,363.234 193,409 C193,454.766 155.767,492 110,492 Z M202.6602,374.0625 L208.2732,371.9445 C199.2832,348.1125 181.9312,328.3625 159.4142,316.3315 L156.5862,321.6235 C177.8202,332.9685 194.1822,351.5915 202.6602,374.0625 Z M156.5472,434.1905 C153.5062,431.5825 149.6292,430.3115 145.6352,430.6235 C141.6392,430.9305 138.0042,432.7755 135.3972,435.8175 C132.7892,438.8595 131.5222,442.7345 131.8302,446.7295 C132.1382,450.7245 133.9822,454.3605 137.0242,456.9685 C139.7662,459.3195 143.1862,460.5805 146.7622,460.5805 C147.1512,460.5805 147.5442,460.5655 147.9362,460.5355 C151.9312,460.2285 155.5672,458.3835 158.1742,455.3415 C160.7822,452.2995 162.0492,448.4235 161.7412,444.4285 C161.4332,440.4345 159.5892,436.7975 156.5472,434.1905 Z M153.6182,451.4365 C152.0552,453.2615 149.8732,454.3685 147.4752,454.5525 C145.0762,454.7365 142.7542,453.9765 140.9292,452.4125 C139.1032,450.8485 137.9972,448.6665 137.8122,446.2695 C137.6282,443.8725 138.3882,441.5475 139.9532,439.7225 C141.5162,437.8965 143.6982,436.7905 146.0962,436.6055 C146.3312,436.5875 146.5652,436.5785 146.8002,436.5785 C148.9442,436.5785 150.9972,437.3355 152.6422,438.7465 C154.4682,440.3105 155.5742,442.4925 155.7592,444.8895 C155.9432,447.2865 155.1832,449.6105 153.6182,451.4365 Z M137.9375,424.9839 L143.9195,424.5239 L142.6185,407.6039 L136.6355,408.0639 L137.9375,424.9839 Z M108.8096,449.7471 L109.2706,455.7291 L126.1906,454.4281 L125.7296,448.4451 L108.8096,449.7471 Z M59.5579,372.9761 C51.3499,371.9551 43.8399,377.7931 42.8139,386.0001 C42.3159,389.9761 43.3979,393.9071 45.8569,397.0701 C48.3169,400.2321 51.8609,402.2481 55.8369,402.7451 C56.4659,402.8231 57.0899,402.8621 57.7079,402.8621 C65.1559,402.8621 71.6339,397.2991 72.5809,389.7211 C73.6069,381.5141 67.7649,374.0021 59.5579,372.9761 Z M66.6279,388.9771 C66.0129,393.9011 61.5109,397.4101 56.5809,396.7911 C54.1949,396.4931 52.0689,395.2841 50.5929,393.3861 C49.1169,391.4881 48.4689,389.1291 48.7669,386.7441 C49.3819,381.8201 53.8799,378.3071 58.8139,378.9301 C63.7379,379.5461 67.2429,384.0531 66.6279,388.9771 Z M134.5193,370.0014 C136.6193,370.0014 138.6483,369.3084 140.3323,367.9984 C142.3353,366.4404 143.6113,364.1954 143.9253,361.6784 C144.2413,359.1604 143.5563,356.6704 141.9983,354.6684 C140.4403,352.6654 138.1963,351.3884 135.6773,351.0734 C133.1643,350.7624 130.6713,351.4444 128.6683,353.0024 C126.6653,354.5594 125.3883,356.8044 125.0743,359.3214 C124.7583,361.8394 125.4433,364.3294 127.0023,366.3324 C128.5593,368.3354 130.8033,369.6114 133.3223,369.9264 C133.7223,369.9764 134.1223,370.0014 134.5193,370.0014 Z M131.7373,362.6484 C131.1643,361.9104 130.9123,360.9934 131.0273,360.0654 C131.1433,359.1384 131.6143,358.3114 132.3513,357.7374 C132.9713,357.2544 133.7183,357.0004 134.4923,357.0004 C134.6383,357.0004 134.7863,357.0094 134.9333,357.0274 C135.8613,357.1434 136.6883,357.6134 137.2623,358.3514 C137.8363,359.0894 138.0883,360.0064 137.9723,360.9344 C137.8563,361.8614 137.3853,362.6884 136.6483,363.2624 C135.9113,363.8364 134.9923,364.0884 134.0663,363.9724 C133.1383,363.8564 132.3113,363.3864 131.7373,362.6484 Z M57.6777,423.0741 C55.1617,422.7641 52.6707,423.4441 50.6677,425.0021 C48.6647,426.5591 47.3887,428.8041 47.0747,431.3221 C46.7587,433.8391 47.4437,436.3291 49.0017,438.3321 C50.5597,440.3351 52.8037,441.6111 55.3227,441.9261 C55.7227,441.9761 56.1217,442.0011 56.5197,442.0011 C58.6187,442.0011 60.6487,441.3081 62.3317,439.9981 C64.3347,438.4401 65.6117,436.1961 65.9257,433.6781 C66.2417,431.1611 65.5567,428.6711 63.9977,426.6681 C62.4407,424.6651 60.1967,423.3891 57.6777,423.0741 Z M59.9727,432.9341 C59.8567,433.8611 59.3857,434.6881 58.6487,435.2621 C57.9107,435.8361 56.9917,436.0881 56.0667,435.9721 C55.1387,435.8561 54.3117,435.3861 53.7377,434.6481 C53.1637,433.9111 52.9117,432.9941 53.0277,432.0661 C53.1437,431.1391 53.6147,430.3111 54.3517,429.7381 C54.9717,429.2551 55.7187,429.0001 56.4927,429.0001 C56.6387,429.0001 56.7857,429.0091 56.9337,429.0281 C57.8617,429.1431 58.6887,429.6141 59.2627,430.3511 C59.8357,431.0891 60.0877,432.0061 59.9727,432.9341 Z M176.9977,403.6681 C175.4407,401.6651 173.1967,400.3891 170.6777,400.0741 C168.1627,399.7621 165.6707,400.4441 163.6677,402.0021 C161.6647,403.5591 160.3887,405.8041 160.0747,408.3221 C159.7587,410.8391 160.4437,413.3291 162.0017,415.3321 C163.5597,417.3351 165.8037,418.6111 168.3227,418.9261 C168.7227,418.9761 169.1217,419.0011 169.5197,419.0011 C171.6187,419.0011 173.6487,418.3081 175.3317,416.9981 C177.3347,415.4401 178.6117,413.1961 178.9257,410.6781 C179.2417,408.1611 178.5567,405.6711 176.9977,403.6681 Z M172.9727,409.9341 C172.8567,410.8611 172.3857,411.6881 171.6487,412.2621 C170.9107,412.8361 169.9917,413.0871 169.0667,412.9721 C168.1387,412.8561 167.3117,412.3861 166.7377,411.6481 C166.1637,410.9111 165.9117,409.9941 166.0277,409.0661 C166.1437,408.1391 166.6147,407.3111 167.3517,406.7381 C167.9717,406.2551 168.7187,406.0001 169.4927,406.0001 C169.6387,406.0001 169.7857,406.0091 169.9337,406.0281 C170.8617,406.1431 171.6887,406.6141 172.2627,407.3511 C172.8357,408.0891 173.0877,409.0061 172.9727,409.9341 Z M71.7021,403.8423 L82.1211,417.2383 L86.8571,413.5543 L76.4381,400.1583 L71.7021,403.8423 Z M69.9951,369.1196 L73.6791,373.8556 L87.0751,363.4366 L83.3911,358.7006 L69.9951,369.1196 Z M11,453.0256 L11,450.9996 L5,450.9996 L5,453.0256 C4.631,453.3046 4.305,453.6316 4.026,453.9996 L2,453.9996 L2,459.9996 L4.026,459.9996 C4.305,460.3686 4.631,460.6956 5,460.9746 L5,462.9996 L11,462.9996 L11,460.9746 C11.369,460.6956 11.695,460.3686 11.974,459.9996 L14,459.9996 L14,453.9996 L11.974,453.9996 C11.695,453.6316 11.369,453.3046 11,453.0256 Z M34.1211,492.6362 L32.6891,494.0682 C32.2311,494.0052 31.7691,494.0052 31.3111,494.0682 L29.8791,492.6362 L25.6371,496.8782 L27.0671,498.3092 C27.0361,498.5372 27.0001,498.7652 27.0001,499.0002 C27.0001,499.2342 27.0361,499.4622 27.0671,499.6902 L25.6371,501.1212 L29.8791,505.3642 L31.3111,503.9312 C31.5401,503.9632 31.7691,503.9972 32.0001,503.9972 C32.2311,503.9972 32.4601,503.9632 32.6891,503.9312 L34.1211,505.3642 L38.3631,501.1212 L36.9321,499.6902 C36.9641,499.4622 37.0001,499.2342 37.0001,499.0002 C37.0001,498.7652 36.9641,498.5372 36.9321,498.3092 L38.3631,496.8782 L34.1211,492.6362 Z M203,507.0256 L203,504.9996 L197,504.9996 L197,507.0256 C196.631,507.3046 196.305,507.6316 196.026,507.9996 L194,507.9996 L194,513.9996 L196.026,513.9996 C196.305,514.3686 196.631,514.6956 197,514.9746 L197,516.9996 L203,516.9996 L203,514.9746 C203.369,514.6956 203.695,514.3686 203.974,513.9996 L206,513.9996 L206,507.9996 L203.974,507.9996 C203.695,507.6316 203.369,507.3046 203,507.0256 Z M149,319 C150.657,319 152,317.657 152,316 C152,314.343 150.657,313 149,313 C147.343,313 146,314.343 146,316 C146,317.657 147.343,319 149,319 Z" id="04"></path>
            </g>
        </g>
    </g>
</svg>