<?xml version="1.0" encoding="UTF-8" standalone="no"?>
<svg width="205px" height="204px" viewBox="0 0 205 204" version="1.1" xmlns="http://www.w3.org/2000/svg" xmlns:xlink="http://www.w3.org/1999/xlink">
    <!-- Generator: Sketch 40.3 (33839) - http://www.bohemiancoding.com/sketch -->
    <title>05</title>
    <desc>Created with Sketch.</desc>
    <defs></defs>
    <g id="Page-1" stroke="none" stroke-width="1" fill="none" fill-rule="evenodd">
        <g id="Artboard" transform="translate(-450.000000, -449.000000)" fill="#000000">
            <g id="celestial-bodies" transform="translate(123.000000, 136.000000)">
                <path d="M505.198484,394.311676 C501.063484,396.095676 496.670484,396.999676 492.142484,396.999676 C473.946484,396.999676 459.142484,382.196676 459.142484,363.999676 C459.142484,359.115676 460.190484,354.405676 462.257484,350.002676 C467.674484,338.458676 479.405484,330.999676 492.142484,330.999676 C510.339484,330.999676 525.142484,345.803676 525.142484,363.999676 C525.142484,377.187676 517.314484,389.085676 505.198484,394.311676 Z M378.142584,425.000176 L480.142584,425.000176 L480.142584,419.000176 L378.142584,419.000176 L378.142584,425.000176 Z M491.553484,478.999676 L390.142484,478.999676 L390.142484,484.999676 L486.390484,484.999676 C471.251484,500.992676 449.850484,510.999676 426.142484,510.999676 C389.828484,510.999676 358.907484,487.546676 347.675484,454.999676 L420.142484,454.999676 L420.142484,448.999676 L345.840484,448.999676 C344.084484,442.289676 343.142484,435.253676 343.142484,427.999676 C343.142484,426.993676 343.183484,425.997676 343.218484,424.999676 L366.142484,424.999676 L366.142484,418.999676 L343.639484,418.999676 C344.433484,411.671676 346.195484,404.633676 348.776484,397.999676 L426.142484,397.999676 L426.142484,391.999676 L351.364484,391.999676 C355.162484,384.142676 360.179484,376.986676 366.142484,370.740676 L366.142484,370.999676 L414.142484,370.999676 L414.142484,364.999676 L372.196484,364.999676 C386.717484,352.548676 405.559484,344.999676 426.142484,344.999676 C436.309484,344.999676 446.201484,346.807676 455.594484,350.377676 C455.514484,350.589676 455.446484,350.804676 455.370484,351.018676 C455.291484,351.239676 455.212484,351.461676 455.138484,351.683676 C454.986484,352.136676 454.846484,352.592676 454.712484,353.050676 C454.662484,353.219676 454.607484,353.388676 454.560484,353.558676 C454.386484,354.182676 454.227484,354.810676 454.085484,355.442676 C454.053484,355.586676 454.028484,355.731676 453.997484,355.874676 C453.892484,356.369676 453.794484,356.866676 453.709484,357.365676 C453.671484,357.588676 453.638484,357.812676 453.603484,358.036676 C453.537484,358.467676 453.477484,358.900676 453.426484,359.334676 C453.398484,359.568676 453.371484,359.803676 453.347484,360.038676 C453.302484,360.488676 453.267484,360.941676 453.237484,361.394676 C453.223484,361.603676 453.206484,361.810676 453.196484,362.019676 C453.163484,362.677676 453.142484,363.336676 453.142484,363.999676 C453.142484,385.504676 470.637484,402.999676 492.142484,402.999676 C492.754484,402.999676 493.362484,402.982676 493.970484,402.954676 C494.160484,402.945676 494.349484,402.931676 494.539484,402.919676 C494.963484,402.894676 495.386484,402.863676 495.807484,402.823676 C496.018484,402.804676 496.228484,402.782676 496.438484,402.759676 C496.857484,402.713676 497.275484,402.660676 497.692484,402.600676 C497.880484,402.573676 498.069484,402.549676 498.257484,402.519676 C498.841484,402.427676 499.422484,402.325676 500.001484,402.207676 C500.012484,402.204676 500.023484,402.203676 500.034484,402.200676 C500.623484,402.079676 501.208484,401.940676 501.791484,401.791676 C501.973484,401.745676 502.153484,401.693676 502.335484,401.644676 C502.741484,401.533676 503.147484,401.418676 503.550484,401.294676 C503.753484,401.232676 503.955484,401.168676 504.156484,401.103676 C504.309484,401.053676 504.463484,401.009676 504.615484,400.958676 C507.620484,409.663676 509.142484,418.746676 509.142484,427.999676 C509.142484,447.217676 502.559484,464.916676 491.553484,478.999676 L491.553484,478.999676 Z M531.142484,363.999676 C531.142484,342.495676 513.647484,324.999676 492.142484,324.999676 C478.033484,324.999676 464.969484,332.743676 458.116484,344.945676 C447.923484,341.015676 437.186484,338.999676 426.142484,338.999676 C377.068484,338.999676 337.142484,378.925676 337.142484,427.999676 C337.142484,477.074676 377.068484,516.999676 426.142484,516.999676 C475.217484,516.999676 515.142484,477.074676 515.142484,427.999676 C515.142484,417.934676 513.443484,408.063676 510.127484,398.606676 C522.981484,391.927676 531.142484,378.637676 531.142484,363.999676 Z M345.925884,323.678276 C346.240884,321.161276 345.555884,318.671276 343.997884,316.668276 C342.440884,314.665276 340.195884,313.389276 337.677884,313.074276 C332.478884,312.423276 327.722884,316.124276 327.073884,321.322276 C326.424884,326.519276 330.123884,331.276276 335.321884,331.926276 C335.719884,331.976276 336.114884,332.000276 336.506884,332.000276 C341.222884,332.000276 345.325884,328.477276 345.925884,323.678276 Z M339.971884,322.934276 C339.732884,324.849276 337.988884,326.213276 336.065884,325.972276 C334.150884,325.733276 332.787884,323.980276 333.027884,322.066276 C333.142884,321.139276 333.613884,320.311276 334.350884,319.738276 C335.088884,319.164276 336.004884,318.912276 336.933884,319.028276 C337.861884,319.143276 338.687884,319.614276 339.261884,320.351276 C339.835884,321.089276 340.087884,322.006276 339.971884,322.934276 Z M364.021184,340.363976 L365.452184,338.932976 C365.680184,338.963976 365.908184,338.999976 366.143184,338.999976 C366.377184,338.999976 366.605184,338.963976 366.833184,338.932976 L368.264184,340.363976 L372.506184,336.121976 L371.075184,334.690976 C371.107184,334.461976 371.143184,334.234976 371.143184,333.999976 C371.143184,333.765976 371.107184,333.537976 371.075184,333.309976 L372.506184,331.878976 L368.264184,327.635976 L366.833184,329.067976 C366.605184,329.035976 366.377184,328.999976 366.143184,328.999976 C365.908184,328.999976 365.680184,329.035976 365.452184,329.067976 L364.021184,327.635976 L359.779184,331.878976 L361.210184,333.309976 C361.178184,333.537976 361.143184,333.765976 361.143184,333.999976 C361.143184,334.234976 361.178184,334.461976 361.210184,334.690976 L359.779184,336.121976 L364.021184,340.363976 Z" id="05"></path>
            </g>
        </g>
    </g>
</svg>