<?xml version="1.0" encoding="UTF-8" standalone="no"?>
<svg width="210px" height="210px" viewBox="0 0 210 210" version="1.1" xmlns="http://www.w3.org/2000/svg" xmlns:xlink="http://www.w3.org/1999/xlink">
     <style type="text/css">
        .cor{fill:url(#MyGradient)}
      </style>
      <defs>
        <linearGradient id="MyGradient">
          <stop offset="5%" stop-color="#584b88" />
          <stop offset="95%" stop-color="#ae4bcf" />
        </linearGradient>
      </defs>
    <!-- Generator: Sketch 40.3 (33839) - http://www.bohemiancoding.com/sketch -->
    <title>06</title>
    <desc>Created with Sketch.</desc>
    <defs></defs>
    <g id="Page-1" stroke="none" stroke-width="1" fill="none" fill-rule="evenodd">
        <g id="Artboard" transform="translate(-771.000000, -446.000000)" fill="#000000">
            <g id="celestial-bodies" transform="translate(123.000000, 136.000000)">
                <path class="cor" d="M754.4919,400.0756 C761.8119,400.8216 767.4919,407.0186 767.9959,415.0826 C767.9509,423.3156 761.2429,429.9996 752.9999,429.9996 C752.4959,429.9996 751.9989,429.9736 751.5079,429.9246 C744.1879,429.1786 738.5079,422.9816 738.0039,414.9166 C738.0499,406.6846 744.7569,399.9996 752.9999,399.9996 C753.5039,399.9996 754.0009,400.0266 754.4919,400.0756 M751.8999,388.2086 C738.3929,393.5306 731.6089,405.8906 732.0029,414.9366 C732.0029,414.9576 731.9999,414.9786 731.9999,414.9996 C731.9999,415.0286 732.0039,415.0556 732.0039,415.0836 C732.0059,415.1126 732.0029,415.1436 732.0049,415.1726 C732.0059,415.1976 732.0109,415.2216 732.0129,415.2466 C732.1299,425.2996 739.3369,433.6756 748.8629,435.5866 C749.1369,435.6416 749.4199,435.6696 749.6969,435.7136 C750.0929,435.7766 750.4849,435.8526 750.8879,435.8926 C751.3979,435.9446 751.9179,435.9586 752.4379,435.9726 C752.2559,436.0486 752.0859,436.1356 751.8999,436.2086 C743.9849,439.3276 734.1149,440.4956 723.7639,440.4946 C693.1289,440.4936 658.3229,430.2636 657.8569,430.1246 L656.1429,435.8746 C656.3029,435.9226 672.3949,440.6886 692.2789,443.7936 C703.9109,445.6106 714.3939,446.5186 723.6849,446.5186 C735.9309,446.5176 746.1059,444.9406 754.0999,441.7906 C767.6069,436.4696 774.3909,424.1096 773.9969,415.0636 C773.9969,415.0416 773.9999,415.0216 773.9999,414.9996 C773.9999,414.9716 773.9959,414.9446 773.9959,414.9156 C773.9939,414.8876 773.9969,414.8566 773.9949,414.8276 C773.9939,414.8026 773.9889,414.7786 773.9879,414.7536 C773.8699,404.7006 766.6629,396.3246 757.1369,394.4136 C756.8629,394.3586 756.5799,394.3306 756.3029,394.2856 C755.9069,394.2226 755.5149,394.1476 755.1119,394.1066 C754.6019,394.0556 754.0819,394.0416 753.5619,394.0276 C753.7449,393.9516 753.9139,393.8646 754.0999,393.7906 C785.4409,381.4446 847.5199,399.6896 848.1429,399.8746 L849.8569,394.1246 C849.6969,394.0776 833.6049,389.3116 813.7209,386.2056 C786.7569,381.9956 765.9579,382.6686 751.8999,388.2086 Z M753,352 C760.906,352 768.614,353.445 775.91,356.294 L778.093,350.706 C770.098,347.583 761.656,346 753,346 C714.953,346 684,376.953 684,415 L690,415 C690,380.262 718.262,352 753,352 Z M753,478 C745.094,478 737.386,476.555 730.09,473.706 L727.907,479.294 C735.902,482.417 744.344,484 753,484 C791.047,484 822,453.047 822,415 L816,415 C816,449.738 787.738,478 753,478 Z M753,376 L753,370 C728.187,370 708,390.187 708,415 C708,419.376 708.627,423.703 709.865,427.859 L715.616,426.147 C714.543,422.546 714,418.796 714,415 C714,393.495 731.495,376 753,376 Z M753,454 L753,460 C777.813,460 798,439.813 798,415 C798,410.624 797.373,406.297 796.135,402.141 L790.384,403.853 C791.457,407.454 792,411.204 792,415 C792,436.505 774.505,454 753,454 Z M786,361 C787.657,361 789,359.657 789,358 C789,356.343 787.657,355 786,355 C784.343,355 783,356.343 783,358 C783,359.657 784.343,361 786,361 Z M720,469 C718.343,469 717,470.343 717,472 C717,473.657 718.343,475 720,475 C721.657,475 723,473.657 723,472 C723,470.343 721.657,469 720,469 Z M843,310 C834.729,310 828,316.729 828,325 C828,333.271 834.729,340 843,340 C851.271,340 858,333.271 858,325 C858,316.729 851.271,310 843,310 Z M843,334 C838.038,334 834,329.962 834,325 C834,320.038 838.038,316 843,316 C847.962,316 852,320.038 852,325 C852,329.962 847.962,334 843,334 Z M818.3218,363.9259 C818.7218,363.9759 819.1218,364.0009 819.5188,364.0009 C821.6188,364.0009 823.6478,363.3079 825.3318,361.9979 C827.3348,360.4409 828.6108,358.1959 828.9258,355.6779 C829.2408,353.1609 828.5558,350.6709 826.9978,348.6679 C825.4408,346.6649 823.1958,345.3889 820.6778,345.0739 C818.1578,344.7589 815.6708,345.4439 813.6678,347.0019 C811.6648,348.5599 810.3888,350.8039 810.0738,353.3219 C809.7588,355.8389 810.4438,358.3289 812.0018,360.3319 C813.5598,362.3349 815.8038,363.6109 818.3218,363.9259 Z M816.0278,354.0659 C816.1438,353.1389 816.6138,352.3119 817.3518,351.7379 C817.9718,351.2549 818.7188,350.9999 819.4928,350.9999 C819.6388,350.9999 819.7868,351.0089 819.9338,351.0279 C820.8608,351.1439 821.6888,351.6139 822.2618,352.3519 C822.8358,353.0899 823.0888,354.0069 822.9718,354.9339 C822.8568,355.8609 822.3858,356.6889 821.6488,357.2619 C820.9108,357.8359 819.9958,358.0899 819.0658,357.9719 C818.1388,357.8569 817.3118,357.3859 816.7378,356.6489 C816.1638,355.9099 815.9118,354.9929 816.0278,354.0659 Z M663,490 C654.729,490 648,496.729 648,505 C648,513.271 654.729,520 663,520 C671.271,520 678,513.271 678,505 C678,496.729 671.271,490 663,490 Z M663,514 C658.038,514 654,509.962 654,505 C654,500.038 658.038,496 663,496 C667.962,496 672,500.038 672,505 C672,509.962 667.962,514 663,514 Z M687.6782,466.0741 C685.1602,465.7611 682.6702,466.4441 680.6682,468.0021 C678.6652,469.5591 677.3892,471.8041 677.0742,474.3221 C676.7592,476.8391 677.4442,479.3291 679.0022,481.3321 C680.5592,483.3351 682.8042,484.6111 685.3222,484.9261 C685.7222,484.9761 686.1222,485.0011 686.5192,485.0011 C688.6192,485.0011 690.6472,484.3081 692.3322,482.9981 C694.3352,481.4401 695.6112,479.1961 695.9262,476.6781 C696.2412,474.1611 695.5562,471.6711 693.9982,469.6681 C692.4402,467.6651 690.1962,466.3891 687.6782,466.0741 Z M689.9722,475.9341 C689.8562,476.8611 689.3862,477.6881 688.6482,478.2621 C687.9102,478.8361 686.9942,479.0891 686.0662,478.9721 C685.1392,478.8561 684.3112,478.3861 683.7382,477.6481 C683.1642,476.9101 682.9112,475.9931 683.0282,475.0661 C683.1432,474.1391 683.6142,473.3111 684.3512,472.7381 C684.9722,472.2551 685.7192,472.0001 686.4932,472.0001 C686.6392,472.0001 686.7862,472.0091 686.9342,472.0281 C687.8612,472.1431 688.6882,472.6141 689.2622,473.3511 C689.8362,474.0901 690.0882,475.0071 689.9722,475.9341 Z" id="06"></path>
            </g>
        </g>
    </g>
</svg>