<?xml version="1.0" encoding="UTF-8" standalone="no"?>
<svg width="208px" height="210px" viewBox="0 0 208 210" version="1.1" xmlns="http://www.w3.org/2000/svg" xmlns:xlink="http://www.w3.org/1999/xlink">
    <!-- Generator: Sketch 40.3 (33839) - http://www.bohemiancoding.com/sketch -->
    <style type="text/css">
        .cor{fill:url(#MyGradient)}
      </style>
      <defs>
        <linearGradient id="MyGradient">
          <stop offset="5%" stop-color="#584b88" />
          <stop offset="95%" stop-color="#ae4bcf" />
        </linearGradient>
      </defs>
    <title>07</title>
    <desc>Created with Sketch.</desc>
    <defs></defs>
    <g id="Page-1" stroke="none" stroke-width="1" fill="none" fill-rule="evenodd">
        <g id="Artboard" transform="translate(-124.000000, -758.000000)" fill="#000000">
            <g id="celestial-bodies" transform="translate(123.000000, 136.000000)">
                <path class="cor" d="M103,749.1982 L82.842,724.0002 L103,698.8022 L123.158,724.0002 L103,749.1982 Z M75.158,724.0002 L103,758.8022 L130.842,724.0002 L103,689.1982 L75.158,724.0002 Z M70.842,649.0006 L55,629.1986 L39.158,649.0006 L55,668.8026 L70.842,649.0006 Z M55,638.8026 L63.158,649.0006 L55,659.1986 L46.842,649.0006 L55,638.8026 Z M208.842,691.8756 L198.5,678.9486 L188.158,691.8756 L198.5,704.8026 L208.842,691.8756 Z M198.5,688.5526 L201.158,691.8756 L198.5,695.1986 L195.842,691.8756 L198.5,688.5526 Z M147.1211,687.6366 L145.6891,689.0686 C145.2311,689.0056 144.7691,689.0056 144.3111,689.0686 L142.8791,687.6366 L138.6371,691.8786 L140.0671,693.3096 C140.0361,693.5376 140.0001,693.7656 140.0001,694.0006 C140.0001,694.2346 140.0361,694.4626 140.0671,694.6906 L138.6371,696.1216 L142.8791,700.3646 L144.3111,698.9316 C144.5401,698.9636 144.7691,698.9976 145.0001,698.9976 C145.2311,698.9976 145.4601,698.9636 145.6891,698.9316 L147.1211,700.3646 L151.3631,696.1216 L149.9321,694.6906 C149.9641,694.4626 150.0001,694.2346 150.0001,694.0006 C150.0001,693.7656 149.9641,693.5376 149.9321,693.3096 L151.3631,691.8786 L147.1211,687.6366 Z M118,661.9748 L118,664.0008 L124,664.0008 L124,661.9748 C124.369,661.6958 124.695,661.3688 124.974,661.0008 L127,661.0008 L127,655.0008 L124.974,655.0008 C124.695,654.6318 124.369,654.3048 124,654.0258 L124,652.0008 L118,652.0008 L118,654.0258 C117.631,654.3048 117.305,654.6318 117.026,655.0008 L115,655.0008 L115,661.0008 L117.026,661.0008 C117.305,661.3688 117.631,661.6958 118,661.9748 Z M184,642.026 L184,640 L178,640 L178,642.026 C177.631,642.305 177.305,642.632 177.026,643 L175,643 L175,649 L177.026,649 C177.305,649.369 177.631,649.696 178,649.975 L178,652 L184,652 L184,649.975 C184.369,649.696 184.695,649.369 184.974,649 L187,649 L187,643 L184.974,643 C184.695,642.632 184.369,642.305 184,642.026 Z M163,763.0004 L163,760.9674 C163.406,760.7024 163.758,760.3694 164.071,760.0004 L166,760.0004 L166,754.0004 L164.421,754.0004 C164.047,753.4444 163.561,752.9734 163,752.6064 L163,751.0004 L157,751.0004 L157,753.0374 C156.672,753.3244 156.368,753.6374 156.124,754.0004 L154,754.0004 L154,760.0004 L156.474,760.0004 C156.637,760.1924 156.81,760.3714 157,760.5364 L157,763.0004 L163,763.0004 Z M207.6982,765.2724 C207.6982,765.0384 207.6622,764.8104 207.6312,764.5824 L209.0622,763.1504 L204.8202,758.9084 L203.3892,760.3394 C203.1602,760.3084 202.9332,760.2724 202.6982,760.2724 C202.4642,760.2724 202.2362,760.3084 202.0082,760.3394 L200.5772,758.9084 L196.3352,763.1504 L197.7662,764.5814 C197.7342,764.8104 197.6982,765.0374 197.6982,765.2724 C197.6982,765.5074 197.7342,765.7344 197.7662,765.9634 L196.3352,767.3944 L200.5772,771.6364 L202.0082,770.2054 C202.2362,770.2364 202.4642,770.2724 202.6982,770.2724 C202.9332,770.2724 203.1602,770.2364 203.3892,770.2054 L204.8202,771.6364 L209.0622,767.3944 L207.6312,765.9624 C207.6622,765.7344 207.6982,765.5064 207.6982,765.2724 Z M170.8789,817.8202 L169.4469,819.2522 C168.9889,819.1892 168.5259,819.1892 168.0679,819.2522 L166.6359,817.8202 L162.3939,822.0622 L163.8259,823.4952 C163.7629,823.9532 163.7629,824.4152 163.8259,824.8732 L162.3939,826.3052 L166.6359,830.5482 L168.0679,829.1152 C168.2969,829.1472 168.5259,829.1812 168.7569,829.1812 C168.9879,829.1812 169.2179,829.1472 169.4469,829.1152 L170.8789,830.5482 L175.1209,826.3052 L173.6889,824.8732 C173.7519,824.4152 173.7519,823.9532 173.6889,823.4942 L175.1209,822.0622 L170.8789,817.8202 Z M27.1211,687.6366 L25.6891,689.0686 C25.2311,689.0056 24.7691,689.0056 24.3111,689.0686 L22.8791,687.6366 L18.6371,691.8786 L20.0671,693.3096 C20.0361,693.5376 20.0001,693.7656 20.0001,694.0006 C20.0001,694.2346 20.0361,694.4626 20.0671,694.6906 L18.6371,696.1216 L22.8791,700.3646 L24.3111,698.9316 C24.5401,698.9636 24.7691,698.9976 25.0001,698.9976 C25.2311,698.9976 25.4601,698.9636 25.6891,698.9316 L27.1211,700.3646 L31.3631,696.1216 L29.9321,694.6906 C29.9641,694.4626 30.0001,694.2346 30.0001,694.0006 C30.0001,693.7656 29.9641,693.5376 29.9321,693.3096 L31.3631,691.8786 L27.1211,687.6366 Z M73.1211,782.6366 L71.6891,784.0686 C71.2311,784.0056 70.7691,784.0056 70.3111,784.0686 L68.8791,782.6366 L64.6371,786.8786 L66.0671,788.3096 C66.0361,788.5376 66.0001,788.7656 66.0001,789.0006 C66.0001,789.2346 66.0361,789.4626 66.0671,789.6906 L64.6371,791.1216 L68.8791,795.3646 L70.3111,793.9316 C70.5401,793.9636 70.7691,793.9976 71.0001,793.9976 C71.2311,793.9976 71.4601,793.9636 71.6891,793.9316 L73.1211,795.3646 L77.3631,791.1216 L75.9321,789.6906 C75.9641,789.4626 76.0001,789.2346 76.0001,789.0006 C76.0001,788.7656 75.9641,788.5376 75.9321,788.3096 L77.3631,786.8786 L73.1211,782.6366 Z M28,822.026 L28,820 L22,820 L22,822.026 C21.631,822.305 21.305,822.632 21.026,823 L19,823 L19,829 L21.026,829 C21.305,829.369 21.631,829.696 22,829.975 L22,832 L28,832 L28,829.975 C28.369,829.696 28.695,829.369 28.974,829 L31,829 L31,823 L28.974,823 C28.695,822.632 28.369,822.305 28,822.026 Z M10,624.026 L10,622 L4,622 L4,624.026 C3.631,624.305 3.305,624.632 3.026,625 L1,625 L1,631 L3.026,631 C3.305,631.369 3.631,631.696 4,631.975 L4,634 L10,634 L10,631.975 C10.369,631.696 10.695,631.369 10.974,631 L13,631 L13,625 L10.974,625 C10.695,624.632 10.369,624.305 10,624.026 Z M58,736.0004 C56.343,736.0004 55,737.3434 55,739.0004 C55,740.6574 56.343,742.0004 58,742.0004 C59.657,742.0004 61,740.6574 61,739.0004 C61,737.3434 59.657,736.0004 58,736.0004 Z M106,640.0004 C107.657,640.0004 109,638.6574 109,637.0004 C109,635.3434 107.657,634.0004 106,634.0004 C104.343,634.0004 103,635.3434 103,637.0004 C103,638.6574 104.343,640.0004 106,640.0004 Z M4,772.0004 C2.343,772.0004 1,773.3434 1,775.0004 C1,776.6574 2.343,778.0004 4,778.0004 C5.657,778.0004 7,776.6574 7,775.0004 C7,773.3434 5.657,772.0004 4,772.0004 Z M40,796.0004 C38.343,796.0004 37,797.3434 37,799.0004 C37,800.6574 38.343,802.0004 40,802.0004 C41.657,802.0004 43,800.6574 43,799.0004 C43,797.3434 41.657,796.0004 40,796.0004 Z M148,772.0004 C146.343,772.0004 145,773.3434 145,775.0004 C145,776.6574 146.343,778.0004 148,778.0004 C149.657,778.0004 151,776.6574 151,775.0004 C151,773.3434 149.657,772.0004 148,772.0004 Z" id="07"></path>
            </g>
        </g>
    </g>
</svg>