<?xml version="1.0" encoding="UTF-8" standalone="no"?>
<svg width="206px" height="207px" viewBox="0 0 206 207" version="1.1" xmlns="http://www.w3.org/2000/svg" xmlns:xlink="http://www.w3.org/1999/xlink">
    <!-- Generator: Sketch 40.3 (33839) - http://www.bohemiancoding.com/sketch -->
    <title>08</title>
    <desc>Created with Sketch.</desc>
    <defs></defs>
    <g id="Page-1" stroke="none" stroke-width="1" fill="none" fill-rule="evenodd">
        <g id="Artboard" transform="translate(-449.000000, -760.000000)" fill="#000000">
            <g id="celestial-bodies" transform="translate(123.000000, 136.000000)">
                <path d="M482.609528,791.331648 C483.458528,790.691648 484.293528,790.032648 485.118528,789.360648 C485.268528,789.238648 485.414528,789.110648 485.563528,788.987648 C486.406528,788.291648 487.235528,787.576648 488.051528,786.847648 C488.299528,786.626648 488.546528,786.406648 488.790528,786.182648 C489.728528,785.324648 490.655528,784.453648 491.554528,783.554648 C492.448528,782.659648 493.315528,781.738648 494.169528,780.805648 C494.402528,780.550648 494.632528,780.292648 494.862528,780.034648 C495.579528,779.231648 496.281528,778.416648 496.967528,777.587648 C497.098528,777.428648 497.235528,777.273648 497.365528,777.112648 C498.035528,776.289648 498.693528,775.456648 499.331528,774.609648 C503.671528,784.216648 504.692528,791.315648 502.004528,794.003648 C499.316528,796.691648 492.217528,795.670648 482.609528,791.331648 Z M393.509528,791.823648 C393.750528,791.685648 393.995528,791.540648 394.238528,791.399648 C394.806528,791.070648 395.376528,790.736648 395.952528,790.392648 C396.244528,790.218648 396.537528,790.040648 396.831528,789.862648 C397.374528,789.533648 397.921528,789.198648 398.472528,788.855648 C398.773528,788.668648 399.075528,788.481648 399.378528,788.290648 C399.953528,787.928648 400.533528,787.558648 401.115528,787.183648 C401.390528,787.006648 401.663528,786.831648 401.939528,786.652648 C402.657528,786.184648 403.380528,785.705648 404.108528,785.218648 C404.249528,785.123648 404.389528,785.032648 404.531528,784.937648 C405.408528,784.347648 406.292528,783.742648 407.181528,783.125648 C407.395528,782.977648 407.611528,782.823648 407.826528,782.673648 C408.497528,782.204648 409.170528,781.730648 409.847528,781.246648 C410.156528,781.026648 410.467528,780.801648 410.777528,780.577648 C411.372528,780.149648 411.968528,779.716648 412.567528,779.277648 C412.899528,779.033648 413.231528,778.788648 413.564528,778.541648 C414.161528,778.099648 414.760528,777.651648 415.360528,777.199648 C415.682528,776.956648 416.004528,776.715648 416.327528,776.469648 C416.993528,775.963648 417.662528,775.448648 418.332528,774.930648 C418.584528,774.735648 418.836528,774.543648 419.089528,774.345648 C420.019528,773.621648 420.952528,772.887648 421.887528,772.140648 C421.976528,772.070648 422.064528,771.997648 422.153528,771.927648 C422.992528,771.256648 423.834528,770.576648 424.677528,769.887648 C424.973528,769.646648 425.270528,769.400648 425.566528,769.156648 C426.213528,768.625648 426.860528,768.090648 427.508528,767.549648 C427.839528,767.272648 428.171528,766.993648 428.503528,766.714648 C429.127528,766.189648 429.751528,765.660648 430.376528,765.126648 C430.708528,764.843648 431.039528,764.560648 431.371528,764.275648 C431.581528,764.094648 431.790528,763.917648 432.000528,763.736648 C432.210528,763.917648 432.420528,764.094648 432.629528,764.275648 C432.961528,764.560648 433.293528,764.843648 433.624528,765.126648 C434.249528,765.660648 434.873528,766.189648 435.497528,766.714648 C435.829528,766.993648 436.161528,767.272648 436.492528,767.549648 C437.140528,768.090648 437.788528,768.625648 438.434528,769.156648 C438.731528,769.400648 439.027528,769.646648 439.323528,769.887648 C440.160528,770.570648 440.995528,771.245648 441.828528,771.911648 C441.924528,771.987648 442.020528,772.066648 442.115528,772.143648 C443.051528,772.888648 443.982528,773.622648 444.911528,774.345648 C445.164528,774.543648 445.416528,774.735648 445.669528,774.930648 C446.338528,775.448648 447.007528,775.963648 447.673528,776.469648 C447.996528,776.715648 448.318528,776.956648 448.640528,777.199648 C449.241528,777.651648 449.839528,778.099648 450.436528,778.541648 C450.769528,778.788648 451.102528,779.033648 451.433528,779.277648 C452.032528,779.716648 452.628528,780.149648 453.223528,780.577648 C453.533528,780.801648 453.844528,781.026648 454.153528,781.246648 C454.830528,781.730648 455.504528,782.204648 456.175528,782.673648 C456.389528,782.823648 456.605528,782.977648 456.819528,783.125648 C457.709528,783.742648 458.592528,784.347648 459.469528,784.937648 C459.612528,785.033648 459.753528,785.124648 459.896528,785.220648 C460.621528,785.706648 461.343528,786.184648 462.059528,786.650648 C462.337528,786.831648 462.612528,787.006648 462.888528,787.184648 C463.469528,787.559648 464.048528,787.929648 464.623528,788.290648 C464.926528,788.481648 465.227528,788.668648 465.528528,788.855648 C466.079528,789.198648 466.626528,789.533648 467.170528,789.862648 C467.463528,790.040648 467.757528,790.218648 468.048528,790.392648 C468.624528,790.736648 469.194528,791.070648 469.762528,791.399648 C470.005528,791.540648 470.250528,791.685648 470.492528,791.823648 C470.577528,791.872648 470.665528,791.925648 470.751528,791.974648 C446.724528,805.724648 417.276528,805.724648 393.249528,791.974648 C393.335528,791.925648 393.423528,791.872648 393.509528,791.823648 Z M364.669528,774.609648 C365.307528,775.456648 365.965528,776.289648 366.635528,777.113648 C366.766528,777.274648 366.903528,777.430648 367.035528,777.589648 C367.719528,778.417648 368.420528,779.230648 369.135528,780.031648 C369.368528,780.292648 369.600528,780.552648 369.836528,780.810648 C370.668528,781.719648 371.513528,782.616648 372.383528,783.487648 C372.404528,783.509648 372.424528,783.532648 372.445528,783.553648 C372.466528,783.574648 372.488528,783.593648 372.509528,783.614648 C373.381528,784.485648 374.278528,785.329648 375.187528,786.161648 C375.447528,786.398648 375.708528,786.633648 375.971528,786.867648 C376.768528,787.578648 377.577528,788.275648 378.400528,788.956648 C378.565528,789.092648 378.725528,789.232648 378.891528,789.367648 C379.713528,790.037648 380.545528,790.693648 381.391528,791.331648 C371.782528,795.670648 364.684528,796.690648 361.996528,794.003648 C359.309528,791.315648 360.329528,784.216648 364.669528,774.609648 Z M364.702528,686.409648 C364.999528,686.921648 365.299528,687.433648 365.608528,687.952648 C365.814528,688.296648 366.025528,688.643648 366.236528,688.990648 C366.537528,689.486648 366.840528,689.982648 367.152528,690.483648 C367.376528,690.845648 367.604528,691.208648 367.834528,691.573648 C368.147528,692.069648 368.466528,692.568648 368.789528,693.069648 C369.028528,693.440648 369.268528,693.812648 369.512528,694.186648 C369.846528,694.696648 370.187528,695.211648 370.530528,695.726648 C370.774528,696.092648 371.016528,696.457648 371.265528,696.825648 C371.637528,697.377648 372.019528,697.933648 372.402528,698.490648 C372.635528,698.827648 372.862528,699.162648 373.098528,699.501648 C373.580528,700.193648 374.073528,700.889648 374.571528,701.588648 C374.719528,701.796648 374.862528,702.002648 375.011528,702.211648 C375.655528,703.110648 376.313528,704.014648 376.982528,704.923648 C377.208528,705.230648 377.441528,705.539648 377.670528,705.847648 C378.126528,706.461648 378.583528,707.075648 379.050528,707.693648 C379.334528,708.069648 379.624528,708.446648 379.911528,708.823648 C380.336528,709.379648 380.763528,709.936648 381.196528,710.496648 C381.503528,710.892648 381.815528,711.289648 382.126528,711.687648 C382.555528,712.235648 382.986528,712.783648 383.423528,713.333648 C383.741528,713.734648 384.062528,714.136648 384.384528,714.538648 C384.827528,715.090648 385.275528,715.643648 385.725528,716.197648 C386.049528,716.596648 386.373528,716.995648 386.702528,717.394648 C387.170528,717.965648 387.645528,718.537648 388.121528,719.110648 C388.439528,719.491648 388.755528,719.872648 389.076528,720.254648 C389.605528,720.884648 390.141528,721.515648 390.679528,722.146648 C390.954528,722.469648 391.225528,722.791648 391.503528,723.114648 C392.322528,724.068648 393.149528,725.023648 393.987528,725.978648 L396.242528,724.000648 L393.987528,725.979648 C399.467528,732.223648 405.335528,738.478648 411.429528,744.571648 C416.685528,749.828648 422.062528,754.917648 427.450528,759.734648 C426.880528,760.225648 426.490528,760.554648 426.100528,760.886648 C425.550528,761.354648 424.999528,761.823648 424.450528,762.285648 C424.035528,762.634648 423.621528,762.976648 423.207528,763.321648 C422.682528,763.758648 422.156528,764.195648 421.632528,764.625648 C421.211528,764.971648 420.791528,765.313648 420.370528,765.654648 C419.855528,766.074648 419.339528,766.491648 418.825528,766.904648 C418.406528,767.240648 417.988528,767.574648 417.570528,767.905648 C417.054528,768.315648 416.540528,768.720648 416.026528,769.123648 C415.614528,769.445648 415.203528,769.767648 414.792528,770.085648 C414.271528,770.489648 413.753528,770.886648 413.234528,771.282648 C412.837528,771.586648 412.438528,771.891648 412.042528,772.191648 C411.506528,772.595648 410.973528,772.992648 410.441528,773.389648 C410.067528,773.667648 409.692528,773.948648 409.319528,774.223648 C408.743528,774.646648 408.172528,775.060648 407.600528,775.473648 C407.276528,775.708648 406.949528,775.947648 406.626528,776.179648 C405.863528,776.725648 405.105528,777.259648 404.351528,777.786648 C404.224528,777.875648 404.095528,777.968648 403.968528,778.056648 C403.094528,778.664648 402.227528,779.257648 401.366528,779.837648 C401.071528,780.036648 400.780528,780.226648 400.487528,780.422648 C399.918528,780.802648 399.348528,781.181648 398.786528,781.548648 C398.442528,781.772648 398.103528,781.988648 397.762528,782.207648 C397.257528,782.532648 396.752528,782.857648 396.253528,783.171648 C395.894528,783.397648 395.539528,783.616648 395.183528,783.837648 C394.707528,784.131648 394.233528,784.423648 393.763528,784.708648 C393.402528,784.927648 393.044528,785.141648 392.686528,785.353648 C392.231528,785.624648 391.778528,785.891648 391.328528,786.152648 C390.969528,786.361648 390.612528,786.566648 390.257528,786.768648 C389.816528,787.019648 389.378528,787.264648 388.943528,787.505648 C388.592528,787.700648 388.241528,787.894648 387.894528,788.082648 C387.755528,788.157648 387.619528,788.228648 387.480528,788.302648 C387.140528,788.066648 386.799528,787.833648 386.462528,787.591648 C386.042528,787.290648 385.622528,786.988648 385.208528,786.678648 C384.599528,786.222648 384.001528,785.752648 383.404528,785.278648 C383.019528,784.972648 382.631528,784.670648 382.251528,784.357648 C381.609528,783.826648 380.982528,783.278648 380.357528,782.727648 C380.041528,782.450648 379.719528,782.180648 379.408528,781.898648 C378.483528,781.056648 377.573528,780.196648 376.689528,779.311648 C372.951528,775.573648 369.586528,771.457648 366.690528,767.078648 C350.328528,742.328648 349.440528,710.739648 364.026528,685.248648 C364.336528,685.786648 364.521528,686.099648 364.702528,686.409648 Z M366.688528,652.516648 C370.275528,652.516648 375.334528,653.933648 381.391528,656.669648 C380.543528,657.308648 379.708528,657.966648 378.883528,658.638648 C378.732528,658.761648 378.586528,658.890648 378.435528,659.014648 C377.593528,659.710648 376.765528,660.423648 375.949528,661.152648 C375.702528,661.373648 375.454528,661.594648 375.209528,661.818648 C374.271528,662.676648 373.345528,663.546648 372.446528,664.445648 C371.552528,665.340648 370.686528,666.261648 369.832528,667.194648 C369.599528,667.449648 369.368528,667.707648 369.137528,667.965648 C368.421528,668.768648 367.720528,669.582648 367.035528,670.410648 C366.903528,670.570648 366.766528,670.726648 366.634528,670.888648 C365.964528,671.711648 365.307528,672.543648 364.669528,673.390648 C360.329528,663.783648 359.309528,656.684648 361.996528,653.996648 C362.989528,653.003648 364.585528,652.516648 366.688528,652.516648 Z M437.924528,646.003648 C451.207528,646.998648 463.947528,651.331648 475.077528,658.690648 C479.457528,661.585648 483.573528,664.949648 487.312528,668.689648 C490.634528,672.011648 493.639528,675.644648 496.304528,679.481648 C490.340528,690.607648 481.201528,703.546648 469.697528,717.149648 C467.443528,715.794648 464.816528,715.000648 462.000528,715.000648 C453.729528,715.000648 447.000528,721.729648 447.000528,730.000648 C447.000528,733.198648 448.037528,736.262648 449.859528,738.784648 C449.350528,739.299648 448.844528,739.814648 448.329528,740.329648 C442.972528,745.687648 437.488528,750.849648 432.000528,755.736648 C426.512528,750.849648 421.028528,745.687648 415.671528,740.329648 C409.670528,734.327648 403.892528,728.168648 398.497528,722.021648 C397.650528,721.056648 396.814528,720.091648 395.987528,719.128648 C395.670528,718.758648 395.360528,718.389648 395.046528,718.020648 C394.540528,717.424648 394.031528,716.829648 393.533528,716.235648 C393.177528,715.811648 392.830528,715.388648 392.478528,714.965648 C392.033528,714.428648 391.585528,713.892648 391.147528,713.357648 C390.780528,712.909648 390.422528,712.464648 390.061528,712.018648 C389.647528,711.508648 389.231528,710.997648 388.824528,710.489648 C388.462528,710.035648 388.107528,709.584648 387.750528,709.132648 C387.356528,708.635648 386.961528,708.137648 386.574528,707.641648 C386.217528,707.184648 385.868528,706.730648 385.517528,706.275648 C385.141528,705.788648 384.764528,705.300648 384.395528,704.815648 C384.049528,704.360648 383.710528,703.907648 383.369528,703.454648 C383.008528,702.974648 382.647528,702.493648 382.293528,702.016648 C381.957528,701.562648 381.628528,701.111648 381.298528,700.660648 C380.953528,700.188648 380.608528,699.716648 380.270528,699.248648 C379.946528,698.798648 379.629528,698.351648 379.311528,697.904648 C378.981528,697.439648 378.651528,696.974648 378.327528,696.511648 C378.018528,696.069648 377.714528,695.629648 377.412528,695.190648 C377.094528,694.730648 376.779528,694.271648 376.469528,693.814648 C376.174528,693.378648 375.884528,692.946648 375.596528,692.514648 C375.293528,692.060648 374.994528,691.608648 374.699528,691.158648 C374.419528,690.732648 374.144528,690.308648 373.872528,689.886648 C373.582528,689.436648 373.296528,688.989648 373.015528,688.544648 C372.754528,688.130648 372.495528,687.719648 372.241528,687.309648 C371.965528,686.864648 371.693528,686.421648 371.426528,685.981648 C371.181528,685.579648 370.940528,685.179648 370.703528,684.781648 C370.441528,684.342648 370.185528,683.906648 369.932528,683.472648 C369.706528,683.083648 369.481528,682.695648 369.262528,682.310648 C369.015528,681.876648 368.775528,681.447648 368.538528,681.019648 C368.329528,680.644648 368.121528,680.269648 367.920528,679.898648 C367.844528,679.757648 367.773528,679.620648 367.698528,679.480648 C367.941528,679.130648 368.181528,678.778648 368.429528,678.432648 C368.720528,678.027648 369.011528,677.622648 369.310528,677.223648 C369.775528,676.601648 370.256528,675.989648 370.740528,675.381648 C371.038528,675.006648 371.332528,674.628648 371.637528,674.259648 C372.176528,673.606648 372.733528,672.968648 373.293528,672.332648 C373.563528,672.026648 373.824528,671.714648 374.098528,671.412648 C374.941528,670.485648 375.802528,669.574648 376.689528,668.688648 C380.430528,664.947648 384.546528,661.583648 388.923528,658.690648 C392.633528,656.237648 396.576528,654.119648 400.657528,652.335648 C403.681528,659.194648 410.536528,664.000648 418.500528,664.000648 C428.745528,664.000648 437.152528,656.053648 437.924528,646.003648 Z M432.000528,644.500648 C432.000528,651.943648 425.944528,658.000648 418.500528,658.000648 C411.056528,658.000648 405.000528,651.943648 405.000528,644.500648 C405.000528,637.056648 411.056528,631.000648 418.500528,631.000648 C425.944528,631.000648 432.000528,637.056648 432.000528,644.500648 Z M499.331528,673.390648 C496.956528,670.239648 494.353528,667.244648 491.554528,664.446648 C488.756528,661.648648 485.761528,659.044648 482.609528,656.669648 C492.217528,652.329648 499.315528,651.308648 502.004528,653.996648 C504.692528,656.684648 503.671528,663.783648 499.331528,673.390648 Z M462.000528,739.000648 C460.417528,739.000648 458.861528,738.584648 457.502528,737.797648 C454.725528,736.190648 453.000528,733.203648 453.000528,730.000648 C453.000528,725.037648 457.037528,721.000648 462.000528,721.000648 C466.963528,721.000648 471.000528,725.037648 471.000528,730.000648 C471.000528,734.962648 466.963528,739.000648 462.000528,739.000648 Z M487.312528,779.311648 C486.425528,780.198648 485.514528,781.059648 484.587528,781.902648 C484.283528,782.178648 483.969528,782.441648 483.661528,782.712648 C483.028528,783.269648 482.393528,783.824648 481.744528,784.361648 C481.368528,784.671648 480.983528,784.970648 480.601528,785.273648 C480.002528,785.750648 479.400528,786.222648 478.789528,786.681648 C478.376528,786.990648 477.958528,787.290648 477.539528,787.590648 C477.202528,787.832648 476.860528,788.066648 476.520528,788.302648 C476.381528,788.228648 476.245528,788.157648 476.106528,788.082648 C475.759528,787.894648 475.408528,787.700648 475.057528,787.505648 C474.622528,787.264648 474.185528,787.019648 473.744528,786.768648 C473.388528,786.566648 473.031528,786.361648 472.672528,786.152648 C472.222528,785.891648 471.769528,785.624648 471.314528,785.353648 C470.956528,785.141648 470.598528,784.927648 470.237528,784.708648 C469.766528,784.423648 469.291528,784.130648 468.814528,783.835648 C468.460528,783.615648 468.107528,783.397648 467.750528,783.172648 C467.249528,782.857648 466.743528,782.532648 466.236528,782.206648 C465.896528,781.987648 465.557528,781.772648 465.215528,781.548648 C464.652528,781.181648 464.083528,780.802648 463.514528,780.422648 C463.220528,780.226648 462.930528,780.036648 462.635528,779.837648 C461.773528,779.257648 460.906528,778.664648 460.032528,778.056648 C459.905528,777.968648 459.776528,777.875648 459.649528,777.786648 C458.895528,777.259648 458.137528,776.725648 457.374528,776.179648 C457.051528,775.947648 456.724528,775.708648 456.400528,775.473648 C455.828528,775.060648 455.257528,774.646648 454.681528,774.223648 C454.309528,773.948648 453.933528,773.667648 453.559528,773.389648 C453.027528,772.992648 452.494528,772.595648 451.958528,772.191648 C451.562528,771.891648 451.164528,771.586648 450.766528,771.282648 C450.248528,770.886648 449.729528,770.489648 449.208528,770.085648 C448.798528,769.767648 448.387528,769.446648 447.975528,769.124648 C447.460528,768.720648 446.944528,768.313648 446.427528,767.902648 C446.011528,767.572648 445.595528,767.241648 445.179528,766.907648 C444.663528,766.492648 444.146528,766.074648 443.628528,765.653648 C443.208528,765.312648 442.789528,764.971648 442.368528,764.625648 C441.844528,764.195648 441.319528,763.758648 440.793528,763.321648 C440.379528,762.976648 439.965528,762.634648 439.551528,762.285648 C439.001528,761.823648 438.451528,761.354648 437.900528,760.886648 C437.510528,760.554648 437.121528,760.225648 436.730528,759.890648 C441.938528,754.917648 447.315528,749.828648 452.571528,744.571648 C453.144528,743.999648 453.708528,743.425648 454.275528,742.852648 C454.350528,742.898648 454.421528,742.947648 454.497528,742.991648 C456.770528,744.305648 459.364528,745.000648 462.000528,745.000648 C470.272528,745.000648 477.000528,738.271648 477.000528,730.000648 C477.000528,726.713648 475.925528,723.679648 474.125528,721.205648 C484.975528,708.393648 493.812528,696.100648 499.976528,685.252648 C514.560528,710.742648 513.671528,742.330648 497.310528,767.077648 C494.415528,771.456648 491.051528,775.571648 487.312528,779.311648 Z M506.246528,649.753648 C501.098528,644.606648 491.223528,645.626648 476.908528,652.746648 C465.012528,645.231648 451.500528,640.860648 437.445528,639.962648 C435.392528,631.395648 427.688528,625.000648 418.500528,625.000648 C407.748528,625.000648 399.000528,633.747648 399.000528,644.500648 C399.000528,645.167648 399.035528,645.827648 399.100528,646.477648 C394.942528,648.241648 390.923528,650.343648 387.106528,652.753648 C372.784528,645.627648 362.902528,644.604648 357.754528,649.753648 C352.610528,654.898648 353.625528,664.762648 360.730528,679.058648 C343.386528,706.584648 343.391528,741.443648 360.747528,768.908648 C353.626528,783.222648 352.606528,793.098648 357.754528,798.246648 C359.911528,800.403648 362.896528,801.480648 366.689528,801.480648 C371.939528,801.480648 378.758528,799.389648 387.054528,795.267648 C400.846528,803.939648 416.420528,808.287648 432.000528,808.287648 C447.580528,808.287648 463.154528,803.939648 476.884528,795.268648 C485.243528,799.389648 492.062528,801.480648 497.312528,801.480648 C501.105528,801.480648 504.090528,800.402648 506.246528,798.246648 C511.394528,793.097648 510.374528,783.222648 503.254528,768.908648 C520.614528,741.435648 520.614528,706.564648 503.254528,679.091648 C510.374528,664.777648 511.394528,654.902648 506.246528,649.753648 Z M474.668328,813.774248 C472.665328,815.332248 471.389328,817.577248 471.075328,820.095248 C470.759328,822.612248 471.444328,825.102248 473.002328,827.105248 C474.560328,829.108248 476.804328,830.384248 479.323328,830.699248 C479.723328,830.749248 480.122328,830.773248 480.520328,830.773248 C482.619328,830.773248 484.649328,830.081248 486.332328,828.771248 C488.335328,827.213248 489.612328,824.969248 489.926328,822.451248 C490.242328,819.933248 489.557328,817.443248 487.998328,815.441248 C486.441328,813.438248 484.197328,812.162248 481.678328,811.847248 C479.161328,811.535248 476.670328,812.216248 474.668328,813.774248 Z M482.649328,824.035248 C481.911328,824.609248 480.993328,824.860248 480.067328,824.745248 C479.139328,824.629248 478.312328,824.159248 477.738328,823.421248 C477.164328,822.684248 476.912328,821.767248 477.028328,820.839248 C477.144328,819.911248 477.614328,819.084248 478.352328,818.511248 C478.972328,818.028248 479.719328,817.773248 480.493328,817.773248 C480.639328,817.773248 480.786328,817.782248 480.934328,817.801248 C481.862328,817.916248 482.689328,818.387248 483.263328,819.124248 C483.836328,819.862248 484.088328,820.779248 483.973328,821.707248 C483.857328,822.634248 483.387328,823.461248 482.649328,824.035248 Z M329.668328,753.002248 C327.665328,754.559248 326.389328,756.804248 326.075328,759.322248 C325.759328,761.839248 326.444328,764.329248 328.002328,766.332248 C329.560328,768.335248 331.804328,769.611248 334.323328,769.926248 C334.723328,769.976248 335.122328,770.001248 335.520328,770.001248 C337.619328,770.001248 339.649328,769.308248 341.332328,767.998248 C343.335328,766.440248 344.612328,764.196248 344.926328,761.678248 C345.242328,759.161248 344.557328,756.671248 342.998328,754.668248 C341.441328,752.665248 339.197328,751.389248 336.678328,751.074248 C334.163328,750.762248 331.670328,751.444248 329.668328,753.002248 Z M337.649328,763.262248 C336.910328,763.836248 335.992328,764.087248 335.067328,763.972248 C334.139328,763.856248 333.312328,763.386248 332.738328,762.648248 C332.164328,761.911248 331.912328,760.994248 332.028328,760.066248 C332.144328,759.139248 332.615328,758.311248 333.352328,757.738248 C333.972328,757.255248 334.719328,757.000248 335.493328,757.000248 C335.639328,757.000248 335.786328,757.009248 335.934328,757.028248 C336.862328,757.143248 337.689328,757.614248 338.263328,758.351248 C338.836328,759.089248 339.088328,760.006248 338.973328,760.934248 C338.857328,761.861248 338.386328,762.688248 337.649328,763.262248 Z M523.678328,624.074248 C521.164328,623.761248 518.671328,624.444248 516.668328,626.002248 C514.665328,627.559248 513.389328,629.804248 513.075328,632.322248 C512.759328,634.839248 513.444328,637.329248 515.002328,639.332248 C516.560328,641.335248 518.804328,642.611248 521.323328,642.926248 C521.723328,642.976248 522.122328,643.001248 522.520328,643.001248 C524.619328,643.001248 526.649328,642.308248 528.332328,640.998248 C530.335328,639.440248 531.612328,637.196248 531.926328,634.678248 C532.242328,632.161248 531.557328,629.671248 529.998328,627.668248 C528.441328,625.665248 526.197328,624.389248 523.678328,624.074248 Z M524.649328,636.262248 C523.910328,636.836248 522.994328,637.088248 522.067328,636.972248 C521.139328,636.856248 520.312328,636.386248 519.738328,635.648248 C519.164328,634.911248 518.912328,633.994248 519.028328,633.066248 C519.144328,632.139248 519.615328,631.311248 520.352328,630.738248 C520.972328,630.255248 521.719328,630.000248 522.493328,630.000248 C522.639328,630.000248 522.786328,630.009248 522.934328,630.028248 C523.862328,630.143248 524.689328,630.614248 525.263328,631.351248 C525.836328,632.089248 526.088328,633.006248 525.973328,633.934248 C525.857328,634.861248 525.386328,635.688248 524.649328,636.262248 Z" id="08"></path>
            </g>
        </g>
    </g>
</svg>