<?xml version="1.0" encoding="UTF-8" standalone="no"?>
<svg width="196px" height="206px" viewBox="0 0 196 206" version="1.1" xmlns="http://www.w3.org/2000/svg" xmlns:xlink="http://www.w3.org/1999/xlink">
    <!-- Generator: Sketch 40.3 (33839) - http://www.bohemiancoding.com/sketch -->
    <title>09</title>
    <desc>Created with Sketch.</desc>
    <defs></defs>
    <g id="Page-1" stroke="none" stroke-width="1" fill="none" fill-rule="evenodd">
        <g id="Artboard" transform="translate(-778.000000, -760.000000)" fill="#000000">
            <g id="celestial-bodies" transform="translate(123.000000, 136.000000)">
                <path d="M760.8422,811.3642 C733.0922,811.3642 707.7522,797.8892 692.2472,775.1062 C692.2702,775.0982 692.2922,775.0882 692.3152,775.0802 C692.4772,775.0272 692.6322,774.9592 692.7932,774.9032 C693.3162,774.7182 693.8342,774.5252 694.3412,774.3082 C694.5832,774.2042 694.8162,774.0872 695.0542,773.9762 C695.4682,773.7832 695.8802,773.5862 696.2812,773.3722 C696.5352,773.2362 696.7822,773.0922 697.0302,772.9482 C697.4022,772.7332 697.7702,772.5122 698.1302,772.2782 C698.3772,772.1192 698.6192,771.9552 698.8602,771.7872 C699.2092,771.5432 699.5492,771.2912 699.8852,771.0312 C700.1142,770.8542 700.3422,770.6772 700.5642,770.4922 C700.9012,770.2122 701.2262,769.9202 701.5492,769.6242 C701.7492,769.4402 701.9522,769.2602 702.1472,769.0702 C702.4962,768.7282 702.8282,768.3702 703.1572,768.0082 C703.3042,767.8462 703.4592,767.6922 703.6022,767.5272 C704.0632,766.9952 704.5042,766.4452 704.9192,765.8772 C704.9932,765.7762 705.0572,765.6682 705.1302,765.5662 C705.4662,765.0912 705.7922,764.6082 706.0962,764.1112 C706.2272,763.8962 706.3442,763.6732 706.4692,763.4552 C706.6972,763.0562 706.9212,762.6562 707.1282,762.2452 C707.2552,761.9932 707.3702,761.7362 707.4882,761.4792 C707.6702,761.0862 707.8452,760.6912 708.0072,760.2882 C708.1162,760.0162 708.2182,759.7422 708.3182,759.4662 C708.4642,759.0612 708.5992,758.6532 708.7252,758.2402 C708.8112,757.9592 708.8952,757.6792 708.9712,757.3952 C709.0852,756.9672 709.1832,756.5332 709.2762,756.0962 C709.3342,755.8202 709.3972,755.5462 709.4462,755.2672 C709.5312,754.7852 709.5932,754.2972 709.6502,753.8082 C709.6782,753.5672 709.7172,753.3302 709.7392,753.0882 C709.8032,752.3532 709.8422,751.6132 709.8422,750.8642 C709.8422,736.8032 698.4032,725.3642 684.3422,725.3642 C683.8282,725.3642 683.3172,725.3822 682.8092,725.4132 C682.6462,725.4222 682.4842,725.4392 682.3222,725.4522 C681.9752,725.4792 681.6282,725.5102 681.2842,725.5512 C681.0972,725.5732 680.9112,725.6012 680.7242,725.6272 C680.4032,725.6732 680.0832,725.7242 679.7642,725.7822 C679.5762,725.8162 679.3882,725.8512 679.2012,725.8902 C678.8762,725.9572 678.5532,726.0322 678.2312,726.1112 C678.1112,726.1412 677.9892,726.1632 677.8702,726.1942 C678.9562,684.1322 711.4902,649.7522 752.7782,645.7532 C752.7652,645.7782 752.7562,645.8052 752.7442,645.8302 C752.6802,645.9662 752.6222,646.1042 752.5652,646.2432 C752.5112,646.3742 752.4602,646.5062 752.4122,646.6402 C752.3672,646.7652 752.3232,646.8892 752.2842,647.0162 C752.2312,647.1832 752.1862,647.3542 752.1422,647.5262 C752.1162,647.6282 752.0872,647.7292 752.0652,647.8322 C752.0042,648.1122 751.9522,648.3962 751.9162,648.6862 C751.6012,651.2032 752.2862,653.6932 753.8432,655.6962 C755.4012,657.6992 757.6462,658.9752 760.1642,659.2902 C760.5322,659.3362 760.8972,659.3552 761.2602,659.3582 C761.2892,659.3592 761.3192,659.3642 761.3492,659.3642 C761.4892,659.3642 761.6272,659.3512 761.7662,659.3452 C761.8972,659.3392 762.0282,659.3382 762.1582,659.3262 C762.3442,659.3102 762.5262,659.2822 762.7082,659.2562 C762.8232,659.2392 762.9402,659.2282 763.0542,659.2072 C763.3162,659.1592 763.5742,659.0982 763.8292,659.0282 C763.9042,659.0082 763.9772,658.9852 764.0502,658.9632 C764.2892,658.8922 764.5262,658.8152 764.7582,658.7252 C764.8602,658.6852 764.9592,658.6372 765.0602,658.5932 C765.2302,658.5212 765.4002,658.4492 765.5652,658.3662 C765.6752,658.3122 765.7802,658.2502 765.8872,658.1912 C766.0382,658.1082 766.1892,658.0262 766.3352,657.9352 C766.4422,657.8692 766.5452,657.7972 766.6492,657.7262 C766.7882,657.6322 766.9272,657.5382 767.0612,657.4362 C767.1632,657.3592 767.2612,657.2782 767.3602,657.1972 C767.4882,657.0922 767.6152,656.9852 767.7382,656.8732 C767.8332,656.7862 767.9252,656.6972 768.0172,656.6062 C768.1352,656.4902 768.2502,656.3702 768.3632,656.2472 C768.4492,656.1522 768.5342,656.0562 768.6162,655.9582 C768.7242,655.8292 768.8272,655.6982 768.9282,655.5642 C769.0062,655.4622 769.0822,655.3592 769.1552,655.2542 C769.2522,655.1142 769.3432,654.9702 769.4322,654.8252 C769.4982,654.7172 769.5652,654.6102 769.6282,654.4992 C769.7132,654.3472 769.7912,654.1912 769.8682,654.0332 C769.9232,653.9212 769.9802,653.8112 770.0302,653.6962 C770.1042,653.5282 770.1692,653.3562 770.2332,653.1832 C770.2752,653.0722 770.3202,652.9642 770.3582,652.8512 C770.4222,652.6562 770.4742,652.4562 770.5262,652.2562 C770.5522,652.1582 770.5832,652.0632 770.6052,651.9642 C770.6732,651.6632 770.7292,651.3562 770.7682,651.0422 C770.8202,650.6322 770.8352,650.2232 770.8332,649.8172 C770.8332,649.7192 770.8302,649.6232 770.8272,649.5272 C770.8142,649.1462 770.7832,648.7692 770.7252,648.3962 C770.7232,648.3782 770.7222,648.3592 770.7192,648.3412 C770.6522,647.9292 770.5552,647.5232 770.4342,647.1242 C770.4212,647.0822 770.4062,647.0412 770.3932,646.9992 C770.2782,646.6362 770.1412,646.2812 769.9822,645.9332 C769.9732,645.9122 769.9672,645.8882 769.9572,645.8672 C807.4742,650.0272 837.9972,679.5372 843.0722,717.2202 L843.0722,717.2202 C842.8472,717.1512 842.6172,717.0992 842.3902,717.0382 C842.1512,716.9742 841.9152,716.9022 841.6742,716.8472 C841.6652,716.8462 841.6572,716.8452 841.6482,716.8432 C840.7172,716.6322 839.7672,716.4902 838.8062,716.4182 C838.3202,716.3822 837.8322,716.3642 837.3422,716.3642 C826.5902,716.3642 817.8422,725.1122 817.8422,735.8642 C817.8422,746.6162 826.5902,755.3642 837.3422,755.3642 C838.0132,755.3642 838.6792,755.3292 839.3402,755.2622 C839.3482,755.2612 839.3572,755.2612 839.3652,755.2602 C827.9792,788.5432 796.4072,811.3642 760.8422,811.3642 L760.8422,811.3642 Z M679.3842,732.0062 C679.4902,731.9792 679.5962,731.9532 679.7032,731.9272 C680.1292,731.8232 680.5592,731.7302 680.9922,731.6552 C681.0382,731.6472 681.0842,731.6362 681.1302,731.6282 C681.5982,731.5512 682.0712,731.4952 682.5472,731.4512 C682.6602,731.4412 682.7742,731.4322 682.8882,731.4242 C683.3702,731.3882 683.8542,731.3642 684.3422,731.3642 C695.0942,731.3642 703.8422,740.1122 703.8422,750.8642 C703.8422,751.4512 703.8132,752.0322 703.7612,752.6072 C703.7442,752.7982 703.7102,752.9852 703.6872,753.1742 C703.6412,753.5562 703.5962,753.9372 703.5282,754.3122 C703.4882,754.5352 703.4322,754.7512 703.3842,754.9712 C703.3112,755.3072 703.2402,755.6422 703.1492,755.9712 C703.0872,756.2012 703.0102,756.4262 702.9392,756.6532 C702.8412,756.9642 702.7442,757.2752 702.6312,757.5792 C702.5472,757.8072 702.4522,758.0292 702.3602,758.2532 C702.2382,758.5472 702.1152,758.8402 701.9792,759.1272 C701.8752,759.3482 701.7622,759.5652 701.6502,759.7832 C701.5062,760.0612 701.3582,760.3372 701.2012,760.6072 C701.0782,760.8192 700.9492,761.0282 700.8182,761.2352 C700.6522,761.4982 700.4802,761.7582 700.3022,762.0122 C700.1612,762.2132 700.0172,762.4122 699.8692,762.6072 C699.6812,762.8552 699.4862,763.0982 699.2872,763.3372 C699.1312,763.5242 698.9732,763.7102 698.8102,763.8912 C698.6002,764.1242 698.3832,764.3492 698.1622,764.5722 C697.9922,764.7442 697.8232,764.9162 697.6472,765.0812 C697.4152,765.2992 697.1742,765.5062 696.9322,765.7132 C696.7512,765.8662 696.5732,766.0222 696.3872,766.1692 C696.1312,766.3722 695.8642,766.5622 695.5972,766.7522 C695.4102,766.8852 695.2272,767.0232 695.0362,767.1492 C694.7472,767.3402 694.4472,767.5152 694.1472,767.6902 C693.9652,767.7972 693.7872,767.9122 693.6002,768.0132 C693.2532,768.2022 692.8932,768.3712 692.5322,768.5392 C692.3822,768.6092 692.2382,768.6882 692.0862,768.7552 C691.5692,768.9802 691.0402,769.1842 690.4992,769.3642 C690.4202,769.3912 690.3372,769.4082 690.2582,769.4342 C689.8212,769.5732 689.3792,769.7002 688.9292,769.8092 C688.8732,769.7122 688.8142,769.6162 688.7592,769.5192 C688.5772,769.2012 688.4012,768.8792 688.2242,768.5592 C687.9822,768.1232 687.7422,767.6872 687.5092,767.2462 C687.3312,766.9122 687.1592,766.5752 686.9862,766.2382 C686.7642,765.8042 686.5442,765.3702 686.3302,764.9332 C686.1622,764.5892 685.9962,764.2452 685.8332,763.8992 C685.6252,763.4602 685.4222,763.0202 685.2232,762.5782 C685.0662,762.2302 684.9102,761.8822 684.7582,761.5322 C684.5632,761.0842 684.3742,760.6342 684.1872,760.1822 C684.0432,759.8352 683.8992,759.4882 683.7602,759.1382 C683.5742,758.6722 683.3962,758.2022 683.2192,757.7322 C683.0922,757.3942 682.9612,757.0572 682.8382,756.7182 C682.6532,756.2062 682.4782,755.6902 682.3032,755.1742 C682.2012,754.8742 682.0932,754.5752 681.9952,754.2742 C681.7572,753.5482 681.5312,752.8172 681.3142,752.0852 C681.2692,751.9342 681.2242,751.7842 681.1802,751.6332 C680.9582,750.8692 680.7462,750.1032 680.5462,749.3322 C680.4672,749.0272 680.3962,748.7202 680.3212,748.4132 C680.1892,747.8812 680.0572,747.3502 679.9362,746.8152 C679.8562,746.4642 679.7842,746.1112 679.7092,745.7592 C679.6042,745.2642 679.4992,744.7702 679.4032,744.2742 C679.3312,743.9052 679.2662,743.5352 679.1992,743.1662 C679.1122,742.6812 679.0262,742.1962 678.9482,741.7102 C678.8872,741.3342 678.8302,740.9582 678.7752,740.5812 C678.7032,740.0962 678.6352,739.6112 678.5722,739.1242 C678.5232,738.7462 678.4762,738.3682 678.4322,737.9892 C678.3752,737.5002 678.3242,737.0102 678.2762,736.5192 C678.2392,736.1432 678.2022,735.7662 678.1702,735.3882 C678.1282,734.8872 678.0942,734.3862 678.0612,733.8842 C678.0362,733.5172 678.0102,733.1502 677.9912,732.7822 C677.9852,732.6662 677.9822,732.5502 677.9772,732.4342 C677.9932,732.4282 678.0092,732.4212 678.0252,732.4162 C678.4742,732.2622 678.9272,732.1272 679.3842,732.0062 L679.3842,732.0062 Z M764.8142,650.2982 C764.6052,651.9742 763.2362,653.2312 761.6162,653.3542 C761.3842,653.3722 761.1472,653.3672 760.9082,653.3362 C760.6702,653.3062 760.4412,653.2532 760.2222,653.1792 C760.1892,653.1682 760.1612,653.1492 760.1292,653.1382 C759.9432,653.0692 759.7612,652.9922 759.5922,652.8942 C759.5872,652.8912 759.5822,652.8862 759.5762,652.8832 C758.8062,652.4302 758.2342,651.6962 757.9842,650.8392 C757.9812,650.8302 757.9762,650.8222 757.9742,650.8132 C757.9222,650.6292 757.8932,650.4362 757.8722,650.2422 C757.8682,650.2052 757.8562,650.1702 757.8532,650.1332 C757.8352,649.9032 757.8402,649.6682 757.8702,649.4302 C757.9862,648.5022 758.4562,647.6762 759.1942,647.1022 C759.8142,646.6192 760.5612,646.3642 761.3352,646.3642 C761.4812,646.3642 761.6292,646.3732 761.7762,646.3922 C762.7042,646.5082 763.5302,646.9782 764.1042,647.7162 C764.6782,648.4532 764.9302,649.3702 764.8142,650.2982 L764.8142,650.2982 Z M843.7972,731.0382 C843.7882,731.3332 843.7692,731.6272 843.7562,731.9222 C843.7302,732.5192 843.7052,733.1162 843.6662,733.7122 C843.6432,734.0622 843.6112,734.4102 843.5842,734.7602 C843.5422,735.3002 843.5012,735.8412 843.4492,736.3802 C843.4122,736.7522 843.3682,737.1242 843.3272,737.4952 C843.2702,738.0112 843.2122,738.5272 843.1452,739.0412 C843.0952,739.4252 843.0392,739.8082 842.9832,740.1912 C842.9112,740.6922 842.8382,741.1932 842.7562,741.6922 C842.6932,742.0822 842.6242,742.4712 842.5552,742.8602 C842.4682,743.3512 842.3782,743.8422 842.2822,744.3322 C842.2052,744.7262 842.1232,745.1202 842.0402,745.5132 C841.9392,745.9942 841.8332,746.4742 841.7232,746.9532 C841.6322,747.3512 841.5382,747.7482 841.4412,748.1452 C841.3892,748.3562 841.3332,748.5662 841.2802,748.7772 C840.9092,748.8902 840.5342,748.9852 840.1562,749.0662 C840.0452,749.0892 839.9332,749.1072 839.8222,749.1282 C839.5232,749.1842 839.2212,749.2292 838.9172,749.2642 C838.8002,749.2782 838.6832,749.2932 838.5652,749.3032 C838.1602,749.3402 837.7532,749.3642 837.3422,749.3642 C829.8982,749.3642 823.8422,743.3082 823.8422,735.8642 C823.8422,728.4202 829.8982,722.3642 837.3422,722.3642 C837.8452,722.3642 838.3432,722.4012 838.8382,722.4552 C838.9332,722.4662 839.0282,722.4752 839.1222,722.4872 C839.5982,722.5502 840.0692,722.6372 840.5332,722.7502 C840.6192,722.7702 840.7042,722.7952 840.7902,722.8182 C841.2492,722.9392 841.7032,723.0792 842.1472,723.2482 C842.1712,723.2572 842.1952,723.2642 842.2192,723.2732 C842.6752,723.4502 843.1192,723.6602 843.5552,723.8872 C843.6052,723.9132 843.6552,723.9392 843.7052,723.9662 C843.7062,723.9802 843.7072,723.9962 843.7082,724.0102 C843.7122,724.0912 843.7152,724.1672 843.7202,724.2472 C843.7412,724.6432 843.7602,725.0282 843.7762,725.4032 C843.7822,725.5402 843.7862,725.6742 843.7912,725.8082 C843.8032,726.1332 843.8132,726.4502 843.8202,726.7622 C843.8232,726.8852 843.8272,727.0092 843.8292,727.1312 C843.8372,727.5492 843.8422,727.9602 843.8422,728.3642 C843.8422,729.2562 843.8262,730.1472 843.7972,731.0382 L843.7972,731.0382 Z M849.8422,721.9932 L849.8422,721.9922 L849.6142,720.5412 L849.5132,720.5152 C845.5122,674.8932 806.8592,639.3642 760.8732,639.3642 C711.7992,639.3642 671.8582,679.2892 671.8582,728.3642 C671.8582,728.8512 671.8652,729.3342 671.8822,729.8172 L672.0092,735.0912 L672.1322,735.0332 C673.0672,747.5822 676.6412,759.7832 682.6032,770.7792 L682.4632,770.7992 L684.8562,774.7142 L685.8782,776.3872 L685.9122,776.3832 C702.3872,802.0792 730.2452,817.3642 760.8422,817.3642 C800.3642,817.3642 835.2702,791.0752 846.2702,753.2602 L846.3062,753.2452 L846.6892,751.8432 L848.3202,745.8672 L848.0802,745.9702 C849.2492,740.1702 849.8422,734.2712 849.8422,728.3642 C849.8422,728.2552 849.8392,728.1422 849.8392,728.0322 L850.1532,728.1602 L849.8422,721.9932 Z M797.8422,695.3642 C792.8802,695.3642 788.8422,691.3262 788.8422,686.3642 C788.8422,681.4022 792.8802,677.3642 797.8422,677.3642 C802.8042,677.3642 806.8422,681.4022 806.8422,686.3642 C806.8422,691.3262 802.8042,695.3642 797.8422,695.3642 Z M797.8422,671.3642 C789.5712,671.3642 782.8422,678.0932 782.8422,686.3642 C782.8422,694.6352 789.5712,701.3642 797.8422,701.3642 C806.1132,701.3642 812.8422,694.6352 812.8422,686.3642 C812.8422,678.0932 806.1132,671.3642 797.8422,671.3642 Z M718.8422,707.3642 C713.8802,707.3642 709.8422,703.3262 709.8422,698.3642 C709.8422,693.4022 713.8802,689.3642 718.8422,689.3642 C723.8042,689.3642 727.8422,693.4022 727.8422,698.3642 C727.8422,703.3262 723.8042,707.3642 718.8422,707.3642 Z M733.8422,698.3642 C733.8422,690.0932 727.1132,683.3642 718.8422,683.3642 C710.5712,683.3642 703.8422,690.0932 703.8422,698.3642 C703.8422,706.6352 710.5712,713.3642 718.8422,713.3642 C727.1132,713.3642 733.8422,706.6352 733.8422,698.3642 Z M790.8422,785.3642 C785.8802,785.3642 781.8422,781.3262 781.8422,776.3642 C781.8422,771.4022 785.8802,767.3642 790.8422,767.3642 C795.8042,767.3642 799.8422,771.4022 799.8422,776.3642 C799.8422,781.3262 795.8042,785.3642 790.8422,785.3642 Z M790.8422,761.3642 C782.5712,761.3642 775.8422,768.0932 775.8422,776.3642 C775.8422,784.6352 782.5712,791.3642 790.8422,791.3642 C799.1132,791.3642 805.8422,784.6352 805.8422,776.3642 C805.8422,768.0932 799.1132,761.3642 790.8422,761.3642 Z M737.6164,785.3535 C737.3844,785.3715 737.1474,785.3665 736.9084,785.3365 C735.9804,785.2205 735.1534,784.7505 734.5804,784.0125 C734.0054,783.2745 733.7534,782.3575 733.8704,781.4305 C733.9854,780.5025 734.4564,779.6755 735.1934,779.1015 C735.8144,778.6195 736.5614,778.3645 737.3354,778.3645 C737.4814,778.3645 737.6284,778.3735 737.7764,778.3925 C738.0144,778.4215 738.2434,778.4755 738.4624,778.5495 C738.4954,778.5605 738.5234,778.5785 738.5554,778.5905 C738.7414,778.6595 738.9234,778.7365 739.0914,778.8335 C739.0974,778.8375 739.1024,778.8425 739.1084,778.8455 C739.8784,779.2975 740.4504,780.0315 740.7004,780.8895 C740.7034,780.8975 740.7074,780.9055 740.7104,780.9145 C740.7624,781.0995 740.7914,781.2925 740.8124,781.4865 C740.8164,781.5225 740.8284,781.5575 740.8314,781.5945 C740.8484,781.8255 740.8444,782.0605 740.8144,782.2985 C740.6054,783.9735 739.2384,785.2275 737.6164,785.3535 Z M738.5204,772.4375 C738.2054,772.3995 737.8914,772.3755 737.5784,772.3675 C737.3604,772.3625 737.1464,772.3735 736.9314,772.3825 C736.8324,772.3865 736.7324,772.3835 736.6344,772.3905 C736.4594,772.4035 736.2884,772.4315 736.1154,772.4535 C735.9764,772.4715 735.8354,772.4835 735.6974,772.5075 C735.5724,772.5295 735.4514,772.5625 735.3274,772.5895 C735.1444,772.6295 734.9604,772.6655 734.7794,772.7155 C734.7054,772.7365 734.6334,772.7655 734.5604,772.7875 C734.3354,772.8565 734.1124,772.9275 733.8934,773.0125 C733.8664,773.0225 733.8414,773.0365 733.8144,773.0475 C732.9994,773.3745 732.2224,773.8115 731.5104,774.3655 C730.0374,775.5115 728.9614,777.0295 728.3684,778.7535 C728.3604,778.7755 728.3504,778.7955 728.3434,778.8175 C728.2604,779.0645 728.1924,779.3185 728.1294,779.5745 C728.1154,779.6295 728.0964,779.6825 728.0834,779.7385 C728.0124,780.0495 727.9564,780.3655 727.9164,780.6855 C727.6014,783.2035 728.2864,785.6935 729.8434,787.6965 C731.4014,789.6995 733.6464,790.9755 736.1644,791.2905 C736.5624,791.3405 736.9574,791.3645 737.3494,791.3645 C742.0654,791.3645 746.1684,787.8415 746.7684,783.0425 C747.0834,780.5245 746.3984,778.0355 744.8404,776.0325 C743.2834,774.0295 741.0384,772.7525 738.5204,772.4375 Z M765.3422,749.3642 C756.2442,749.3642 748.8422,741.9622 748.8422,732.8642 C748.8422,723.7662 756.2442,716.3642 765.3422,716.3642 C774.4402,716.3642 781.8422,723.7662 781.8422,732.8642 C781.8422,741.9622 774.4402,749.3642 765.3422,749.3642 Z M787.8422,732.8642 C787.8422,720.4572 777.7492,710.3642 765.3422,710.3642 C752.9352,710.3642 742.8422,720.4572 742.8422,732.8642 C742.8422,745.2712 752.9352,755.3642 765.3422,755.3642 C777.7492,755.3642 787.8422,745.2712 787.8422,732.8642 Z M670.842,633.5622 L655,653.3642 L670.842,673.1662 L686.684,653.3642 L670.842,633.5622 Z M662.684,653.3642 L670.842,643.1662 L679,653.3642 L670.842,663.5622 L662.684,653.3642 Z M708.7206,636.728 L710.1516,635.297 C710.3796,635.328 710.6076,635.364 710.8426,635.364 C711.0766,635.364 711.3046,635.328 711.5326,635.297 L712.9636,636.728 L717.2056,632.486 L715.7746,631.055 C715.8066,630.826 715.8426,630.599 715.8426,630.364 C715.8426,630.13 715.8066,629.902 715.7746,629.674 L717.2056,628.243 L712.9636,624 L711.5326,625.432 C711.3046,625.4 711.0766,625.364 710.8426,625.364 C710.6076,625.364 710.3796,625.4 710.1516,625.432 L708.7206,624 L704.4786,628.243 L705.9096,629.674 C705.8776,629.902 705.8426,630.13 705.8426,630.364 C705.8426,630.599 705.8776,630.826 705.9096,631.055 L704.4786,632.486 L708.7206,636.728 Z M700.9638,817.0005 L699.5328,818.4315 C699.3048,818.4005 699.0768,818.3645 698.8418,818.3645 C698.6078,818.3645 698.3798,818.4005 698.1518,818.4315 L696.7208,817.0005 L692.4788,821.2425 L693.9098,822.6735 C693.8778,822.9025 693.8418,823.1295 693.8418,823.3645 C693.8418,823.5985 693.8778,823.8265 693.9098,824.0545 L692.4788,825.4855 L696.7208,829.7285 L698.1518,828.2965 C698.3798,828.3285 698.6078,828.3645 698.8418,828.3645 C699.0768,828.3645 699.3048,828.3285 699.5328,828.2965 L700.9638,829.7285 L705.2058,825.4855 L703.7748,824.0545 C703.8068,823.8265 703.8418,823.5985 703.8418,823.3645 C703.8418,823.1295 703.8068,822.9025 703.7748,822.6735 L705.2058,821.2425 L700.9638,817.0005 Z M849.2628,641.3642 C848.8888,640.8092 848.4028,640.3372 847.8418,639.9702 L847.8418,638.3642 L841.8418,638.3642 L841.8418,640.4012 C841.5138,640.6882 841.2098,641.0012 840.9658,641.3642 L838.8418,641.3642 L838.8418,647.3642 L841.3158,647.3642 C841.4788,647.5562 841.6528,647.7352 841.8418,647.9012 L841.8418,650.3642 L847.8418,650.3642 L847.8418,648.3312 C848.2478,648.0652 848.5998,647.7332 848.9128,647.3642 L850.8418,647.3642 L850.8418,641.3642 L849.2628,641.3642 Z" id="09"></path>
            </g>
        </g>
    </g>
</svg>