<?xml version="1.0" encoding="UTF-8" standalone="no"?>
<svg width="209px" height="201px" viewBox="0 0 209 201" version="1.1" xmlns="http://www.w3.org/2000/svg" xmlns:xlink="http://www.w3.org/1999/xlink">
    <!-- Generator: Sketch 40.3 (33839) - http://www.bohemiancoding.com/sketch -->
    <title>10</title>
    <desc>Created with Sketch.</desc>
    <defs></defs>
    <g id="Page-1" stroke="none" stroke-width="1" fill="none" fill-rule="evenodd">
        <g id="Artboard" transform="translate(-124.000000, -1075.000000)" fill="#000000">
            <g id="celestial-bodies" transform="translate(123.000000, 136.000000)">
                <path d="M195.950323,999.1934 C193.950323,999.2124 192.049323,998.4514 190.615323,997.0484 C189.181323,995.6444 188.381323,993.7664 188.360323,991.7594 C188.317323,987.6174 191.652323,984.2124 195.794323,984.1694 C197.845323,984.1504 199.695323,984.9114 201.129323,986.3144 C202.562323,987.7184 203.363323,989.5964 203.384323,991.6034 C203.427323,995.7454 200.092323,999.1504 195.950323,999.1934 L195.950323,999.1934 Z M114.711323,1028.6284 C113.307323,1030.0614 111.429323,1030.8624 109.423323,1030.8824 C107.407323,1030.8974 105.521323,1030.1414 104.088323,1028.7374 C102.655323,1027.3344 101.853323,1025.4554 101.833323,1023.4484 C101.812323,1021.4424 102.574323,1019.5474 103.978323,1018.1144 C105.382323,1016.6804 107.260323,1015.8804 109.267323,1015.8594 C111.298323,1015.8384 113.168323,1016.6004 114.601323,1018.0044 C116.035323,1019.4084 116.836323,1021.2864 116.856323,1023.2934 C116.877323,1025.2994 116.116323,1027.1944 114.711323,1028.6284 L114.711323,1028.6284 Z M53.9433225,1087.8184 L19.0293225,1061.2404 L98.1443225,1030.9334 C98.6503225,1031.6784 99.2313225,1032.3804 99.8893225,1033.0244 C101.679323,1034.7774 103.873323,1035.9594 106.251323,1036.5144 L102.557323,1069.8854 L53.9433225,1087.8184 Z M205.327323,982.0274 C202.748323,979.5034 199.347323,978.1244 195.732323,978.1694 C191.869323,978.2094 188.406323,979.8844 185.968323,982.5174 L164.986323,969.9404 L127.597323,981.5024 L113.471323,1010.5024 C112.118323,1010.0714 110.688323,1009.8434 109.204323,1009.8594 C105.596323,1009.8974 102.217323,1011.3374 99.6913225,1013.9164 C97.1663225,1016.4944 95.7963225,1019.9014 95.8333225,1023.5114 C95.8393225,1024.1284 95.9013225,1024.7344 95.9883225,1025.3344 L6.82532253,1059.4904 L52.9303225,1094.5884 L108.113323,1074.2314 L112.283323,1036.5584 C114.817323,1035.9984 117.139323,1034.7234 118.998323,1032.8264 C121.524323,1030.2474 122.894323,1026.8394 122.856323,1023.2304 C122.819323,1019.6214 121.378323,1016.2434 118.800323,1013.7174 C118.750323,1013.6694 118.696323,1013.6284 118.646323,1013.5804 L131.853323,986.4654 L164.199323,976.4644 L182.960323,987.7094 C182.559323,989.0094 182.345323,990.3904 182.360323,991.8214 C182.398323,995.4304 183.838323,998.7124 186.417323,1001.2374 C188.961323,1003.7294 192.313323,1004.9994 195.869323,1004.9994 L196.012323,1004.9994 C203.463323,1004.9994 209.461323,998.8944 209.384323,991.4444 C209.346323,987.8354 207.906323,984.5534 205.327323,982.0274 Z M52.1227225,1122.3932 L50.6917225,1123.8242 C50.4637225,1123.7932 50.2357225,1123.7572 50.0007225,1123.7572 C49.7667225,1123.7572 49.5387225,1123.7932 49.3107225,1123.8242 L47.8797225,1122.3932 L43.6377225,1126.6352 L45.0687225,1128.0662 C45.0367225,1128.2952 45.0007225,1128.5222 45.0007225,1128.7572 C45.0007225,1128.9912 45.0367225,1129.2192 45.0687225,1129.4472 L43.6377225,1130.8782 L47.8797225,1135.1212 L49.3107225,1133.6892 C49.5387225,1133.7212 49.7667225,1133.7572 50.0007225,1133.7572 C50.2357225,1133.7572 50.4637225,1133.7212 50.6917225,1133.6892 L52.1227225,1135.1212 L56.3647225,1130.8782 L54.9337225,1129.4472 C54.9657225,1129.2192 55.0007225,1128.9912 55.0007225,1128.7572 C55.0007225,1128.5222 54.9657225,1128.2952 54.9337225,1128.0662 L56.3647225,1126.6352 L52.1227225,1122.3932 Z M68.1227225,994.3932 L66.6917225,995.8242 C66.4637225,995.7932 66.2357225,995.7572 66.0007225,995.7572 C65.7667225,995.7572 65.5387225,995.7932 65.3107225,995.8242 L63.8797225,994.3932 L59.6377225,998.6352 L61.0687225,1000.0662 C61.0367225,1000.2952 61.0007225,1000.5222 61.0007225,1000.7572 C61.0007225,1000.9912 61.0367225,1001.2192 61.0687225,1001.4472 L59.6377225,1002.8782 L63.8797225,1007.1212 L65.3107225,1005.6892 C65.5387225,1005.7212 65.7667225,1005.7572 66.0007225,1005.7572 C66.2357225,1005.7572 66.4637225,1005.7212 66.6917225,1005.6892 L68.1227225,1007.1212 L72.3647225,1002.8782 L70.9337225,1001.4472 C70.9657225,1001.2192 71.0007225,1000.9912 71.0007225,1000.7572 C71.0007225,1000.5222 70.9657225,1000.2952 70.9337225,1000.0662 L72.3647225,998.6352 L68.1227225,994.3932 Z M161.122723,1057.3932 L159.691723,1058.8242 C159.463723,1058.7932 159.235723,1058.7572 159.000723,1058.7572 C158.766723,1058.7572 158.538723,1058.7932 158.310723,1058.8242 L156.879723,1057.3932 L152.637723,1061.6352 L154.068723,1063.0662 C154.036723,1063.2952 154.000723,1063.5222 154.000723,1063.7572 C154.000723,1063.9912 154.036723,1064.2192 154.068723,1064.4472 L152.637723,1065.8782 L156.879723,1070.1212 L158.310723,1068.6892 C158.538723,1068.7212 158.766723,1068.7572 159.000723,1068.7572 C159.235723,1068.7572 159.463723,1068.7212 159.691723,1068.6892 L161.122723,1070.1212 L165.364723,1065.8782 L163.933723,1064.4472 C163.965723,1064.2192 164.000723,1063.9912 164.000723,1063.7572 C164.000723,1063.5222 163.965723,1063.2952 163.933723,1063.0662 L165.364723,1061.6352 L161.122723,1057.3932 Z M24.0011225,1106.9996 C22.3441225,1106.9996 21.0011225,1108.3426 21.0011225,1109.9996 C21.0011225,1111.6566 22.3441225,1112.9996 24.0011225,1112.9996 C25.6581225,1112.9996 27.0011225,1111.6566 27.0011225,1109.9996 C27.0011225,1108.3426 25.6581225,1106.9996 24.0011225,1106.9996 Z M10.5199225,1002.001 C12.6199225,1002.001 14.6489225,1001.308 16.3329225,999.998 C18.3359225,998.44 19.6129225,996.195 19.9269225,993.678 C20.2419225,991.16 19.5569225,988.67 17.9989225,986.668 C16.4419225,984.665 14.1969225,983.388 11.6789225,983.073 C9.15992253,982.76 6.67192253,983.443 4.66892253,985.002 C2.66592253,986.559 1.38992253,988.804 1.07492253,991.321 C0.759922533,993.839 1.44492253,996.329 3.00292253,998.332 C4.56092253,1000.335 6.80492253,1001.611 9.32292253,1001.926 C9.72292253,1001.976 10.1229225,1002.001 10.5199225,1002.001 Z M7.73892253,994.648 C7.16492253,993.91 6.91292253,992.993 7.02892253,992.065 C7.14492253,991.138 7.61492253,990.311 8.35292253,989.737 C8.97292253,989.255 9.71992253,989 10.4939225,989 C10.6399225,989 10.7879225,989.009 10.9349225,989.027 C11.8629225,989.143 12.6899225,989.613 13.2629225,990.351 C13.8369225,991.089 14.0899225,992.006 13.9729225,992.934 C13.8579225,993.861 13.3869225,994.688 12.6499225,995.262 C11.9119225,995.835 10.9949225,996.089 10.0669225,995.972 C9.13992253,995.856 8.31292253,995.386 7.73892253,994.648 Z M61.0011225,948.974 L61.0011225,951 L67.0011225,951 L67.0011225,948.974 C67.3701225,948.695 67.6961225,948.368 67.9751225,948 L70.0011225,948 L70.0011225,942 L67.9751225,942 C67.6961225,941.631 67.3701225,941.304 67.0011225,941.025 L67.0011225,939 L61.0011225,939 L61.0011225,941.025 C60.6321225,941.304 60.3061225,941.631 60.0271225,942 L58.0011225,942 L58.0011225,948 L60.0271225,948 C60.3061225,948.368 60.6321225,948.695 61.0011225,948.974 Z M185.501123,1100.9996 C174.749123,1100.9996 166.001123,1109.7476 166.001123,1120.4996 C166.001123,1131.2516 174.749123,1139.9996 185.501123,1139.9996 C196.253123,1139.9996 205.001123,1131.2516 205.001123,1120.4996 C205.001123,1109.7476 196.253123,1100.9996 185.501123,1100.9996 Z M185.501123,1133.9996 C178.057123,1133.9996 172.001123,1127.9436 172.001123,1120.4996 C172.001123,1113.0556 178.057123,1106.9996 185.501123,1106.9996 C192.945123,1106.9996 199.001123,1113.0556 199.001123,1120.4996 C199.001123,1127.9436 192.945123,1133.9996 185.501123,1133.9996 Z M184.001123,952.9996 C185.658123,952.9996 187.001123,951.6566 187.001123,949.9996 C187.001123,948.3426 185.658123,946.9996 184.001123,946.9996 C182.344123,946.9996 181.001123,948.3426 181.001123,949.9996 C181.001123,951.6566 182.344123,952.9996 184.001123,952.9996 Z" id="10"></path>
            </g>
        </g>
    </g>
</svg>