<?xml version="1.0" encoding="UTF-8" standalone="no"?>
<svg width="210px" height="210px" viewBox="0 0 210 210" version="1.1" xmlns="http://www.w3.org/2000/svg" xmlns:xlink="http://www.w3.org/1999/xlink">
    <!-- Generator: Sketch 40.3 (33839) - http://www.bohemiancoding.com/sketch -->
    <title>11</title>
    <desc>Created with Sketch.</desc>
    <defs></defs>
    <g id="Page-1" stroke="none" stroke-width="1" fill="none" fill-rule="evenodd">
        <g id="Artboard" transform="translate(-447.000000, -1070.000000)" fill="#000000">
            <g id="celestial-bodies" transform="translate(123.000000, 136.000000)">
                <path d="M361.5586,1006.1861 C374.5046,1014.0681 387.9306,1019.5091 400.9616,1024.7811 C410.1646,1028.5041 419.6816,1032.3541 428.9126,1037.0241 C451.6336,1048.5181 456.3336,1071.1641 461.3096,1095.1401 C462.0196,1098.5621 462.7556,1102.0901 463.5396,1105.5541 C456.4336,1109.2501 448.9076,1111.7561 441.1936,1113.0311 C438.0146,1091.4201 432.8476,1060.7511 414.0076,1046.6991 C398.7486,1035.3191 375.6566,1033.1961 354.2686,1032.6061 C354.6696,1028.0331 355.4776,1023.4631 356.7316,1018.9441 C357.9636,1014.5051 359.5936,1010.2471 361.5586,1006.1861 M382.6496,980.0231 C391.3056,992.6301 400.6446,1000.1551 407.0756,1004.2801 C415.0146,1009.3731 422.7606,1012.1031 429.1666,1012.1031 C429.8956,1012.1031 430.6066,1012.0681 431.2986,1011.9961 C436.5536,1011.4561 440.3816,1008.8001 442.0796,1004.5171 C444.5566,998.2631 443.4596,986.2421 425.3386,964.0611 C426.5186,964.0041 427.7006,963.9661 428.8846,963.9661 C435.0336,963.9661 441.2206,964.7401 447.3256,966.2821 C448.2116,970.2841 449.1466,974.1571 450.0576,977.9101 C452.9306,989.7481 455.6456,1000.9311 456.0076,1013.4621 C456.6356,1035.1531 473.1696,1053.0801 500.4196,1061.8481 C495.0236,1078.7661 484.0126,1092.9981 468.9996,1102.4411 C468.3736,1099.5991 467.7676,1096.7281 467.1846,1093.9211 C462.1386,1069.6091 456.9216,1044.4691 431.6216,1031.6701 C422.1646,1026.8871 412.5306,1022.9881 403.2116,1019.2191 C389.7276,1013.7631 376.9186,1008.5721 364.3916,1000.8881 C369.1046,992.8681 375.2656,985.8021 382.6496,980.0231 M392.0796,973.7171 C400.2666,969.0871 409.0696,966.0931 418.1026,964.7641 C439.1506,989.4371 437.5256,999.7201 436.5006,1002.3081 C435.6446,1004.4681 433.6886,1005.7201 430.6856,1006.0281 C417.1686,1007.4261 398.4546,992.3591 387.5246,976.5331 C389.0076,975.5521 390.5166,974.6011 392.0796,973.7171 M494.2836,1002.0791 C503.6356,1018.6181 506.3376,1037.6711 502.0216,1056.0601 C466.7776,1044.7231 462.2716,1022.5011 462.0056,1013.2881 C461.6246,1000.1271 458.8376,988.6481 455.8876,976.4941 C455.2396,973.8221 454.5846,971.0721 453.9386,968.2861 C471.0586,974.2961 485.2666,986.1371 494.2836,1002.0791 M425.7566,1113.9361 C424.6726,1100.6221 423.2516,1084.1581 409.6206,1076.2901 C396.8226,1068.9041 377.8596,1070.0611 368.1696,1082.8611 C366.5756,1080.6411 365.0816,1078.3331 363.7166,1075.9201 C357.1716,1064.3461 353.8986,1051.5381 353.9896,1038.5891 C371.0266,1039.0011 395.6136,1040.4661 410.4196,1051.5091 C427.2816,1064.0841 432.2006,1093.1471 435.2366,1113.7661 C432.0906,1114.0271 428.9266,1114.0801 425.7566,1113.9361 M372.0346,1087.8081 C378.1356,1078.4541 393.1716,1073.7221 406.6206,1081.4861 C417.2506,1087.6221 418.6856,1101.1651 419.6956,1113.4321 C416.0966,1112.9741 412.5046,1112.2571 408.9446,1111.2691 C394.3656,1107.2231 381.6406,1099.0671 372.0346,1087.8081 M358.4946,1078.8741 C369.1456,1097.7061 386.4926,1111.2651 407.3396,1117.0501 C414.5376,1119.0481 421.8536,1120.0361 429.1246,1120.0361 C442.9156,1120.0361 456.5416,1116.4801 468.8736,1109.5061 C487.7056,1098.8551 501.2646,1081.5081 507.0496,1060.6601 C512.8356,1039.8121 510.1566,1017.9591 499.5056,999.1261 C488.8546,980.2931 471.5076,966.7351 450.6606,960.9501 C429.8116,955.1631 407.9596,957.8431 389.1256,968.4941 C370.2936,979.1451 356.7356,996.4921 350.9506,1017.3401 C345.1636,1038.1881 347.8436,1060.0411 358.4946,1078.8741 Z M534,1039 C534,981.103 486.897,934 429,934 C402.475,934 377.152,943.916 357.697,961.922 L361.773,966.325 C380.115,949.349 403.99,940 429,940 C483.589,940 528,984.411 528,1039 C528,1060.527 521.247,1080.865 508.474,1098.013 C506.27,1096.74 503.723,1096 501,1096 C492.729,1096 486,1102.729 486,1111 C486,1113.662 486.715,1116.235 488.005,1118.477 C470.855,1131.245 450.506,1138 429,1138 C374.411,1138 330,1093.589 330,1039 C330,1021.595 334.579,1004.479 343.243,989.501 L338.05,986.497 C328.858,1002.387 324,1020.542 324,1039 C324,1096.897 371.103,1144 429,1144 C451.979,1144 473.714,1136.728 491.991,1122.988 C492.47,1123.349 492.971,1123.687 493.497,1123.992 C495.77,1125.306 498.364,1126 501,1126 C509.271,1126 516,1119.271 516,1111 C516,1107.624 514.865,1104.516 512.976,1102.006 C526.726,1083.729 534,1062.005 534,1039 Z M501,1120 C499.417,1120 497.861,1119.584 496.502,1118.798 C493.725,1117.191 492,1114.203 492,1111 C492,1106.038 496.037,1102 501,1102 C505.963,1102 510,1106.038 510,1111 C510,1115.962 505.963,1120 501,1120 Z M346,978.9744 L346,981.0004 L352,981.0004 L352,978.9744 C352.369,978.6954 352.695,978.3684 352.974,978.0004 L355,978.0004 L355,972.0004 L352.974,972.0004 C352.695,971.6314 352.369,971.3044 352,971.0254 L352,969.0004 L346,969.0004 L346,971.0254 C345.631,971.3044 345.305,971.6314 345.026,972.0004 L343,972.0004 L343,978.0004 L345.026,978.0004 C345.305,978.3684 345.631,978.6954 346,978.9744 Z" id="11"></path>
            </g>
        </g>
    </g>
</svg>