<?xml version="1.0" encoding="UTF-8" standalone="no"?>
<svg width="211px" height="210px" viewBox="0 0 211 210" version="1.1" xmlns="http://www.w3.org/2000/svg" xmlns:xlink="http://www.w3.org/1999/xlink">
    <!-- Generator: Sketch 40.3 (33839) - http://www.bohemiancoding.com/sketch -->
    <title>12</title>
    <desc>Created with Sketch.</desc>
    <defs></defs>
    <g id="Page-1" stroke="none" stroke-width="1" fill="none" fill-rule="evenodd">
        <g id="Artboard" transform="translate(-771.000000, -1071.000000)" fill="#000000">
            <g id="celestial-bodies" transform="translate(123.000000, 136.000000)">
                <path d="M686.2496,1059.9678 C691.8086,1055.1128 703.1306,1052.3138 718.9906,1052.3138 L719.0686,1052.3138 C727.9466,1052.3138 735.9746,1053.3558 739.8056,1053.8218 C740.6316,1067.1158 740.3976,1095.6028 731.9456,1107.2338 C729.9566,1099.5918 723.7546,1093.5488 715.5596,1091.9888 C704.1796,1089.8228 693.1676,1097.3458 691.0036,1108.7198 C690.7276,1110.1688 690.6166,1111.6568 690.6486,1113.1258 C687.8926,1111.4298 685.3426,1109.1958 683.1046,1106.6338 C671.1356,1092.9288 672.5456,1071.9388 686.2496,1059.9678 M697.0726,1116.1778 C696.5716,1114.1098 696.4936,1111.9938 696.8976,1109.8688 C697.6466,1105.9328 699.8836,1102.5248 703.1966,1100.2708 C706.5106,1098.0178 710.5026,1097.1888 714.4376,1097.9378 C721.4616,1099.2748 726.4456,1105.2718 726.6226,1112.2478 C717.7886,1118.3188 706.7646,1119.5478 697.0726,1116.1778 M678.5856,1110.6968 C686.2866,1119.5128 697.1066,1124.0238 707.9836,1124.0238 C717.0896,1124.0238 726.2346,1120.8608 733.6146,1114.4138 C749.5486,1100.4968 745.7796,1053.1448 745.6106,1051.1358 L745.4136,1048.7728 L743.0686,1048.2008 C742.6166,1048.1328 731.8596,1046.3138 719.0686,1046.3138 L719.0636,1046.3138 C701.4436,1046.3138 689.0746,1049.5328 682.3026,1055.4488 C666.1066,1069.5958 664.4396,1094.5008 678.5856,1110.6968 Z M695.2994,1070.4449 C695.9154,1068.5389 697.2364,1066.9869 699.0204,1066.0739 C700.0934,1065.5259 701.2564,1065.2469 702.4274,1065.2469 C703.2024,1065.2469 703.9824,1065.3689 704.7404,1065.6139 C708.6754,1066.8849 710.8424,1071.1199 709.5714,1075.0549 C708.9554,1076.9609 707.6344,1078.5129 705.8514,1079.4259 C704.0684,1080.3379 702.0344,1080.5009 700.1304,1079.8859 C698.2244,1079.2709 696.6724,1077.9489 695.7604,1076.1659 C694.8474,1074.3829 694.6844,1072.3509 695.2994,1070.4449 Z M698.2864,1085.5959 C699.6604,1086.0399 701.0544,1086.2499 702.4264,1086.2499 C708.1254,1086.2499 713.4374,1082.6079 715.2804,1076.8989 C717.5694,1069.8159 713.6674,1062.1929 706.5844,1059.9039 C703.1534,1058.7969 699.4954,1059.0909 696.2864,1060.7329 C693.0764,1062.3759 690.6984,1065.1699 689.5904,1068.6009 C687.3024,1075.6839 691.2034,1083.3079 698.2864,1085.5959 Z M669.816,1122.4971 C659.617,1112.2981 654,1098.7371 654,1084.3131 C654,1069.8901 659.617,1056.3291 669.816,1046.1301 L665.574,1041.8871 C654.241,1053.2191 648,1068.2871 648,1084.3131 C648,1100.3401 654.241,1115.4081 665.574,1126.7401 C677.27,1138.4371 692.635,1144.2851 708,1144.2851 C723.364,1144.2851 738.729,1138.4371 750.425,1126.7401 L746.183,1122.4971 C725.129,1143.5511 690.871,1143.5521 669.816,1122.4971 Z M675.9996,1039.3135 C677.6566,1039.3135 678.9996,1037.9705 678.9996,1036.3135 C678.9996,1034.6565 677.6566,1033.3135 675.9996,1033.3135 C674.3426,1033.3135 672.9996,1034.6565 672.9996,1036.3135 C672.9996,1037.9705 674.3426,1039.3135 675.9996,1039.3135 Z M816.9996,1059.3135 C815.3426,1059.3135 813.9996,1060.6565 813.9996,1062.3135 C813.9996,1063.9705 815.3426,1065.3135 816.9996,1065.3135 C818.6566,1065.3135 819.9996,1063.9705 819.9996,1062.3135 C819.9996,1060.6565 818.6566,1059.3135 816.9996,1059.3135 Z M843.9996,984.3135 C845.6566,984.3135 846.9996,982.9705 846.9996,981.3135 C846.9996,979.6565 845.6566,978.3135 843.9996,978.3135 C842.3426,978.3135 840.9996,979.6565 840.9996,981.3135 C840.9996,982.9705 842.3426,984.3135 843.9996,984.3135 Z M796.9098,939.627 L793.0898,935 L682.1738,1026.576 L685.9938,1031.203 L796.9098,939.627 Z M745.8492,1009.5533 L826.9102,942.6273 L823.0892,938.0003 L742.0292,1004.9263 L745.8492,1009.5533 Z M721.4605,1029.689 L735.7295,1017.909 L731.9085,1013.282 L717.6405,1025.062 L721.4605,1029.689 Z M741.1734,1033.5762 L744.9934,1038.2032 L780.5744,1008.8262 L776.7544,1004.1992 L741.1734,1033.5762 Z M758.8326,1055.0332 L836.5846,990.8392 L832.7646,986.2122 L755.0126,1050.4062 L758.8326,1055.0332 Z M817.9664,1036.21 L858.9024,1002.633 L855.0974,997.994 L814.1614,1031.571 L817.9664,1036.21 Z M767.0777,1078.2256 L806.1737,1045.9466 L802.3527,1041.3196 L763.2577,1073.5986 L767.0777,1078.2256 Z M752.9869,1115.5889 L757.0119,1120.0379 L809.5119,1072.5379 L805.4869,1068.0889 L752.9869,1115.5889 Z M823.6402,1052.0621 L827.4602,1056.6891 L841.7292,1044.9091 L837.9092,1040.2821 L823.6402,1052.0621 Z" id="12"></path>
            </g>
        </g>
    </g>
</svg>