<?xml version="1.0" encoding="utf-8"?>
<!-- Generator: Adobe Illustrator 19.1.0, SVG Export Plug-In . SVG Version: 6.00 Build 0)  -->
<svg version="1.1" id="Capa_1" xmlns="http://www.w3.org/2000/svg" xmlns:xlink="http://www.w3.org/1999/xlink" x="0px" y="0px"
	 viewBox="290 -190 210 430" style="enable-background:new 290 -190 210 430;" xml:space="preserve">
<style type="text/css">
	.st0{fill:#FFFFFF;}
</style>
<g>
	<path id="Facebook" class="st0" d="M338.1-106.7c0,10.8,0,59.2,0,59.2h-43.4v72.4h43.4v215.2h89.1V24.9H487c0,0,5.6-34.7,8.3-72.7
		c-7.8,0-67.8,0-67.8,0s0-42.1,0-49.5c0-7.4,9.7-17.4,19.3-17.4c9.6,0,29.8,0,48.6,0c0-9.9,0-43.9,0-75.4c-25,0-53.5,0-66,0
		C335.9-190,338.1-117.5,338.1-106.7z"/>
</g>
</svg>
