<svg xmlns="http://www.w3.org/2000/svg" xmlns:xlink="http://www.w3.org/1999/xlink" preserveAspectRatio="xMidYMid" width="500" height="400" viewBox="0 0 500 400">
  <defs>
    <style>
      .cls-1 {
        fill: url(#linear-gradient-1);
        fill-rule: evenodd;
      }
    </style>

    <linearGradient id="linear-gradient-1" gradientUnits="userSpaceOnUse" y1="200" x2="500" y2="200">
      <stop offset="0" stop-color="#584b88"/>
      <stop offset="1" stop-color="#af4bcf"/>
    </linearGradient>
  </defs>
  <path d="M484.136,326.346 L483.703,326.346 L437.037,326.346 L436.604,326.346 C427.842,326.346 420.740,319.243 420.740,310.482 C420.740,301.720 427.842,294.618 436.604,294.618 L437.037,294.618 L483.703,294.618 L484.136,294.618 C492.897,294.618 500.000,301.720 500.000,310.482 C500.000,319.243 492.897,326.346 484.136,326.346 ZM484.136,289.518 L483.455,289.518 L393.031,289.518 L392.350,289.518 C383.589,289.518 376.486,282.416 376.486,273.654 C376.486,264.893 383.589,257.790 392.350,257.790 L393.031,257.790 L483.455,257.790 L484.136,257.790 C492.897,257.790 500.000,264.893 500.000,273.654 C500.000,282.416 492.897,289.518 484.136,289.518 ZM484.136,31.728 L479.268,31.728 C470.507,31.728 463.404,24.625 463.404,15.864 C463.404,7.103 470.507,0.000 479.268,0.000 L484.136,0.000 C492.897,0.000 500.000,7.103 500.000,15.864 C500.000,24.625 492.897,31.728 484.136,31.728 ZM441.389,31.728 L436.501,31.728 C427.739,31.728 420.637,24.625 420.637,15.864 C420.637,7.103 427.739,0.000 436.501,0.000 L441.389,0.000 C450.151,0.000 457.253,7.103 457.253,15.864 C457.253,24.625 450.151,31.728 441.389,31.728 ZM399.592,68.555 L352.720,68.555 C343.959,68.555 336.856,61.453 336.856,52.691 C336.856,43.930 343.959,36.827 352.720,36.827 L399.592,36.827 C408.353,36.827 415.456,43.930 415.456,52.691 C415.456,61.453 408.353,68.555 399.592,68.555 ZM399.406,31.728 L394.538,31.728 C385.777,31.728 378.674,24.625 378.674,15.864 C378.674,7.103 385.777,0.000 394.538,0.000 L399.406,0.000 C408.167,0.000 415.270,7.103 415.270,15.864 C415.270,24.625 408.167,31.728 399.406,31.728 ZM357.320,31.728 L352.452,31.728 C343.690,31.728 336.588,24.625 336.588,15.864 C336.588,7.103 343.690,0.000 352.452,0.000 L357.320,0.000 C366.081,0.000 373.184,7.103 373.184,15.864 C373.184,24.625 366.081,31.728 357.320,31.728 ZM315.254,31.728 L310.365,31.728 C301.604,31.728 294.501,24.625 294.501,15.864 C294.501,7.103 301.604,0.000 310.365,0.000 L315.254,0.000 C324.015,0.000 331.118,7.103 331.118,15.864 C331.118,24.625 324.015,31.728 315.254,31.728 ZM273.147,31.728 L268.279,31.728 C259.518,31.728 252.415,24.625 252.415,15.864 C252.415,7.103 259.518,0.000 268.279,0.000 L273.147,0.000 C281.908,0.000 289.011,7.103 289.011,15.864 C289.011,24.625 281.908,31.728 273.147,31.728 ZM268.176,36.827 L315.047,36.827 C323.809,36.827 330.911,43.930 330.911,52.691 C330.911,61.453 323.809,68.555 315.047,68.555 L268.176,68.555 C259.414,68.555 252.312,61.453 252.312,52.691 C252.312,43.930 259.414,36.827 268.176,36.827 ZM231.164,68.555 L184.292,68.555 C175.531,68.555 168.428,61.453 168.428,52.691 C168.428,43.930 175.531,36.827 184.292,36.827 L231.164,36.827 C239.925,36.827 247.028,43.930 247.028,52.691 C247.028,61.453 239.925,68.555 231.164,68.555 ZM231.164,31.728 L226.296,31.728 C217.534,31.728 210.432,24.625 210.432,15.864 C210.432,7.103 217.534,0.000 226.296,0.000 L231.164,0.000 C239.925,0.000 247.028,7.103 247.028,15.864 C247.028,24.625 239.925,31.728 231.164,31.728 ZM189.057,31.728 L184.209,31.728 C175.448,31.728 168.345,24.625 168.345,15.864 C168.345,7.103 175.448,0.000 184.209,0.000 L189.057,0.000 C197.818,0.000 204.921,7.103 204.921,15.864 C204.921,24.625 197.818,31.728 189.057,31.728 ZM146.991,31.728 L142.123,31.728 C133.362,31.728 126.259,24.625 126.259,15.864 C126.259,7.103 133.362,0.000 142.123,0.000 L146.991,0.000 C155.752,0.000 162.855,7.103 162.855,15.864 C162.855,24.625 155.752,31.728 146.991,31.728 ZM104.905,31.728 L100.037,31.728 C91.275,31.728 84.173,24.625 84.173,15.864 C84.173,7.103 91.275,0.000 100.037,0.000 L104.905,0.000 C113.666,0.000 120.769,7.103 120.769,15.864 C120.769,24.625 113.666,31.728 104.905,31.728 ZM99.748,36.827 L146.619,36.827 C155.381,36.827 162.483,43.930 162.483,52.691 C162.483,61.453 155.381,68.555 146.619,68.555 L99.748,68.555 C90.986,68.555 83.884,61.453 83.884,52.691 C83.884,43.930 90.986,36.827 99.748,36.827 ZM62.839,31.728 L57.950,31.728 C49.189,31.728 42.086,24.625 42.086,15.864 C42.086,7.103 49.189,0.000 57.950,0.000 L62.839,0.000 C71.600,0.000 78.703,7.103 78.703,15.864 C78.703,24.625 71.600,31.728 62.839,31.728 ZM20.732,31.728 L15.864,31.728 C7.103,31.728 -0.000,24.625 -0.000,15.864 C-0.000,7.103 7.103,0.000 15.864,0.000 L20.732,0.000 C29.493,0.000 36.596,7.103 36.596,15.864 C36.596,24.625 29.493,31.728 20.732,31.728 ZM15.864,36.827 L62.736,36.827 C71.497,36.827 78.600,43.930 78.600,52.691 C78.600,61.453 71.497,68.555 62.736,68.555 L15.864,68.555 C7.103,68.555 -0.000,61.453 -0.000,52.691 C-0.000,43.930 7.103,36.827 15.864,36.827 ZM15.864,73.654 L16.525,73.654 L103.687,73.654 L104.347,73.654 C113.109,73.654 120.211,80.757 120.211,89.518 C120.211,98.280 113.109,105.382 104.347,105.382 L103.687,105.382 L16.525,105.382 L15.864,105.382 C7.103,105.382 -0.000,98.280 -0.000,89.518 C-0.000,80.757 7.103,73.654 15.864,73.654 ZM15.864,110.482 L16.752,110.482 L145.732,110.482 L146.619,110.482 C155.381,110.482 162.483,117.584 162.483,126.346 C162.483,135.107 155.381,142.210 146.619,142.210 L145.732,142.210 L16.752,142.210 L15.864,142.210 C7.103,142.210 -0.000,135.107 -0.000,126.346 C-0.000,117.584 7.103,110.482 15.864,110.482 ZM15.864,147.309 L17.206,147.309 L229.162,147.309 L230.503,147.309 C239.265,147.309 246.367,154.411 246.367,163.173 C246.367,171.934 239.265,179.037 230.503,179.037 L229.162,179.037 L17.206,179.037 L15.864,179.037 C7.103,179.037 -0.000,171.934 -0.000,163.173 C-0.000,154.411 7.103,147.309 15.864,147.309 ZM15.864,184.136 L17.433,184.136 L271.867,184.136 L273.436,184.136 C282.197,184.136 289.300,191.239 289.300,200.000 C289.300,208.761 282.197,215.864 273.436,215.864 L271.867,215.864 L17.433,215.864 L15.864,215.864 C7.103,215.864 -0.000,208.761 -0.000,200.000 C-0.000,191.239 7.103,184.136 15.864,184.136 ZM15.864,220.963 L17.660,220.963 L312.591,220.963 L314.387,220.963 C323.148,220.963 330.251,228.066 330.251,236.827 C330.251,245.589 323.148,252.691 314.387,252.691 L312.591,252.691 L17.660,252.691 L15.864,252.691 C7.103,252.691 -0.000,245.589 -0.000,236.827 C-0.000,228.066 7.103,220.963 15.864,220.963 ZM483.475,252.691 L482.588,252.691 L353.608,252.691 L352.720,252.691 C343.959,252.691 336.856,245.589 336.856,236.827 C336.856,228.066 343.959,220.963 352.720,220.963 L353.608,220.963 L482.588,220.963 L483.475,220.963 C492.237,220.963 499.339,228.066 499.339,236.827 C499.339,245.589 492.237,252.691 483.475,252.691 ZM483.475,215.864 L482.361,215.864 L311.563,215.864 L310.448,215.864 C301.686,215.864 294.584,208.761 294.584,200.000 C294.584,191.239 301.686,184.136 310.448,184.136 L311.563,184.136 L482.361,184.136 L483.475,184.136 C492.237,184.136 499.339,191.239 499.339,200.000 C499.339,208.761 492.237,215.864 483.475,215.864 ZM483.475,179.037 L482.134,179.037 L270.178,179.037 L268.836,179.037 C260.075,179.037 252.972,171.934 252.972,163.173 C252.972,154.411 260.075,147.309 268.836,147.309 L270.178,147.309 L482.134,147.309 L483.475,147.309 C492.237,147.309 499.339,154.411 499.339,163.173 C499.339,171.934 492.237,179.037 483.475,179.037 ZM268.836,73.654 L269.497,73.654 L356.659,73.654 L357.320,73.654 C366.081,73.654 373.184,80.757 373.184,89.518 C373.184,98.280 366.081,105.382 357.320,105.382 L356.659,105.382 L269.497,105.382 L268.836,105.382 C260.075,105.382 252.972,98.280 252.972,89.518 C252.972,80.757 260.075,73.654 268.836,73.654 ZM229.843,105.382 L142.680,105.382 L142.020,105.382 C133.258,105.382 126.156,98.280 126.156,89.518 C126.156,80.757 133.258,73.654 142.020,73.654 L142.680,73.654 L229.843,73.654 L230.503,73.654 C239.265,73.654 246.367,80.757 246.367,89.518 C246.367,98.280 239.265,105.382 230.503,105.382 L229.843,105.382 ZM315.047,110.482 C323.809,110.482 330.911,117.584 330.911,126.346 C330.911,135.107 323.809,142.210 315.047,142.210 L314.160,142.210 L185.180,142.210 L184.292,142.210 C175.531,142.210 168.428,135.107 168.428,126.346 C168.428,117.584 175.531,110.482 184.292,110.482 L185.180,110.482 L314.160,110.482 L315.047,110.482 ZM483.475,142.210 L482.588,142.210 L353.608,142.210 L352.720,142.210 C343.959,142.210 336.856,135.107 336.856,126.346 C336.856,117.584 343.959,110.482 352.720,110.482 L353.608,110.482 L482.588,110.482 L483.475,110.482 C492.237,110.482 499.339,117.584 499.339,126.346 C499.339,135.107 492.237,142.210 483.475,142.210 ZM483.475,68.555 L436.604,68.555 C427.842,68.555 420.740,61.453 420.740,52.691 C420.740,43.930 427.842,36.827 436.604,36.827 L483.475,36.827 C492.237,36.827 499.339,43.930 499.339,52.691 C499.339,61.453 492.237,68.555 483.475,68.555 ZM483.475,105.382 L482.815,105.382 L395.653,105.382 L394.992,105.382 C386.231,105.382 379.128,98.280 379.128,89.518 C379.128,80.757 386.231,73.654 394.992,73.654 L395.653,73.654 L482.815,73.654 L483.475,73.654 C492.237,73.654 499.339,80.757 499.339,89.518 C499.339,98.280 492.237,105.382 483.475,105.382 ZM15.864,257.790 L17.887,257.790 L355.297,257.790 L357.320,257.790 C366.081,257.790 373.184,264.893 373.184,273.654 C373.184,282.416 366.081,289.518 357.320,289.518 L355.297,289.518 L17.887,289.518 L15.864,289.518 C7.103,289.518 -0.000,282.416 -0.000,273.654 C-0.000,264.893 7.103,257.790 15.864,257.790 ZM15.864,294.618 L18.114,294.618 L397.342,294.618 L399.592,294.618 C408.353,294.618 415.456,301.720 415.456,310.482 C415.456,319.243 408.353,326.346 399.592,326.346 L397.342,326.346 L18.114,326.346 L15.864,326.346 C7.103,326.346 -0.000,319.243 -0.000,310.482 C-0.000,301.720 7.103,294.618 15.864,294.618 ZM15.864,331.445 L18.341,331.445 L438.726,331.445 L441.203,331.445 C449.965,331.445 457.067,338.547 457.067,347.309 C457.067,356.070 449.965,363.173 441.203,363.173 L438.726,363.173 L18.341,363.173 L15.864,363.173 C7.103,363.173 -0.000,356.070 -0.000,347.309 C-0.000,338.547 7.103,331.445 15.864,331.445 ZM484.136,363.173 L483.930,363.173 L479.082,363.173 L478.876,363.173 C470.114,363.173 463.012,356.070 463.012,347.309 C463.012,338.547 470.114,331.445 478.876,331.445 L479.082,331.445 L483.930,331.445 L484.136,331.445 C492.897,331.445 500.000,338.547 500.000,347.309 C500.000,356.070 492.897,363.173 484.136,363.173 ZM15.864,368.272 L18.568,368.272 L480.772,368.272 L483.475,368.272 C492.237,368.272 499.339,375.375 499.339,384.136 C499.339,392.897 492.237,400.000 483.475,400.000 L480.772,400.000 L18.568,400.000 L15.864,400.000 C7.103,400.000 -0.000,392.897 -0.000,384.136 C-0.000,375.375 7.103,368.272 15.864,368.272 Z" class="cls-1"/>
</svg>
