<svg xmlns="http://www.w3.org/2000/svg" xmlns:xlink="http://www.w3.org/1999/xlink" preserveAspectRatio="xMidYMid" width="568" height="108" viewBox="0 0 568 108">
  <defs>
    <style>
      .cls-1 {
        fill: url(#linear-gradient-1);
        fill-rule: evenodd;
      }
    </style>

    <linearGradient id="linear-gradient-1" gradientUnits="userSpaceOnUse" x1="284.5" y1="108" x2="284.5">
      <stop offset="0" stop-color="#584b88"/>
      <stop offset="1" stop-color="#af4bcf"/>
    </linearGradient>
  </defs>
  <path d="M558.009,50.113 C556.416,50.113 560.133,37.615 558.717,37.615 C551.904,37.615 545.710,54.900 550.930,54.900 C553.231,54.900 566.769,54.723 566.769,62.523 C566.769,70.412 552.523,83.088 547.303,83.088 C542.082,83.088 538.720,78.479 541.020,78.479 C545.268,78.479 557.478,65.360 557.478,62.169 C557.478,62.169 538.454,65.094 538.454,50.734 C538.454,43.022 546.241,29.105 552.612,29.105 C559.071,29.105 568.007,28.307 568.007,35.044 C568.007,41.692 559.513,50.113 558.009,50.113 ZM528.907,50.113 C527.314,50.113 531.030,37.615 529.615,37.615 C522.802,37.615 516.608,54.900 521.828,54.900 C524.129,54.900 537.667,54.723 537.667,62.523 C537.667,70.412 523.421,83.088 518.201,83.088 C512.980,83.088 509.618,78.479 511.918,78.479 C516.165,78.479 528.376,65.360 528.376,62.169 C528.376,62.169 518.018,63.754 512.590,58.815 C510.045,66.206 504.861,78.124 495.681,78.124 C486.833,78.124 481.170,66.246 481.170,54.191 C481.170,44.529 486.036,35.931 488.779,33.271 C491.434,30.523 498.689,29.903 500.636,31.853 C502.494,33.714 506.387,43.820 503.644,43.820 C500.901,43.820 499.928,36.019 498.335,36.019 C492.407,36.019 489.841,71.476 497.981,71.476 C505.442,71.476 509.001,61.742 510.696,56.435 C509.858,54.930 509.352,53.062 509.352,50.734 C509.352,43.022 517.139,29.105 523.509,29.105 C529.969,29.105 538.905,28.307 538.905,35.044 C538.905,41.692 530.411,50.113 528.907,50.113 ZM473.908,77.019 C470.304,77.019 469.076,73.542 468.994,70.792 C468.830,68.043 471.041,64.000 475.136,64.000 C480.706,64.000 482.999,68.771 482.999,72.329 C482.999,74.997 477.593,77.019 473.908,77.019 ZM458.094,81.847 C457.828,82.025 457.297,82.113 456.678,82.113 C448.361,82.113 446.326,64.828 445.706,64.828 C444.998,64.828 441.636,78.302 434.646,78.302 C427.656,78.302 421.993,73.604 421.993,61.282 C421.993,49.670 428.364,30.701 441.459,30.701 C450.573,30.701 457.032,30.701 457.032,43.642 C457.032,44.883 453.847,45.947 453.847,43.997 C453.847,41.958 453.227,34.778 449.953,34.778 C441.282,34.778 433.584,50.557 433.584,66.867 C433.584,70.147 433.938,75.465 436.593,75.465 C439.247,75.465 444.821,56.939 444.821,52.329 C444.821,50.557 444.821,47.365 450.130,47.365 C455.528,47.365 457.740,49.847 457.740,51.709 C457.740,52.241 457.740,52.684 457.740,53.127 C458.005,59.155 457.474,76.174 460.394,76.174 C462.252,76.174 471.986,48.163 472.605,46.213 C473.136,44.352 475.171,44.440 474.728,46.656 C474.286,48.695 465.615,79.188 458.094,81.847 ZM419.179,78.656 C407.588,78.656 407.765,54.545 407.765,54.545 C407.765,54.545 400.686,77.061 397.766,77.061 C394.846,77.061 387.591,75.731 387.591,67.842 C387.591,59.864 392.280,33.271 389.360,33.271 C384.228,33.271 380.423,65.714 377.592,76.086 C378.211,78.479 378.300,79.277 376.088,79.277 C363.877,79.277 365.647,54.723 365.647,45.504 C365.647,44.174 364.585,44.174 364.585,42.845 C364.585,40.185 377.061,41.692 377.061,46.834 C377.061,51.975 376.088,58.003 376.088,64.385 C376.088,65.714 376.088,66.867 376.176,67.842 C378.034,56.762 383.432,28.485 391.130,28.485 C406.349,28.485 398.297,64.296 399.359,64.296 C400.332,64.296 406.349,42.667 410.861,42.667 C415.374,42.667 420.506,43.820 420.506,48.606 C420.506,51.532 419.356,55.964 419.356,61.814 C419.356,74.667 422.895,78.656 419.179,78.656 ZM361.330,77.504 C355.667,77.504 349.208,73.604 349.208,63.587 C349.208,62.257 349.208,60.839 349.296,59.244 L342.572,76.174 C342.925,77.149 343.279,77.770 343.279,78.656 C343.279,81.050 330.007,79.099 330.007,63.410 C330.007,53.748 332.219,38.413 332.219,35.310 C332.219,33.183 329.742,30.523 333.635,30.523 C338.324,30.523 343.987,33.183 343.987,36.374 C343.987,39.565 340.625,50.202 340.625,62.789 C340.625,68.019 341.067,71.210 341.598,73.338 C343.368,69.260 347.438,59.421 349.650,52.329 C349.827,49.050 350.004,46.213 350.004,45.238 C350.004,43.642 350.358,41.338 352.482,41.338 C354.605,41.338 362.834,42.135 362.834,46.479 C362.834,49.316 361.418,51.354 361.418,64.385 C361.418,74.667 364.781,77.504 361.330,77.504 ZM327.003,64.119 C327.976,83.798 335.320,85.216 330.277,85.393 C325.322,85.659 316.562,77.327 315.854,61.194 C315.058,44.972 320.632,8.185 320.367,3.842 C320.102,-3.338 331.339,0.828 331.604,6.324 C331.870,11.908 326.472,51.266 327.003,64.119 ZM297.498,78.213 C292.366,78.213 287.411,74.933 292.366,74.933 C303.338,74.933 301.745,34.955 298.736,34.955 C293.162,34.955 287.499,58.003 285.641,66.424 C285.464,70.856 285.376,75.554 285.376,80.252 C285.376,103.122 292.100,107.997 287.676,107.997 C269.626,107.997 273.254,29.194 279.713,29.194 C283.075,29.194 287.588,29.194 287.588,32.828 C287.588,34.778 286.968,41.958 286.349,51.798 C288.384,43.199 291.216,34.069 293.428,31.764 C296.347,28.839 305.107,30.523 306.257,31.321 C317.495,38.856 316.964,78.213 297.498,78.213 ZM255.336,78.656 C244.895,78.656 242.418,66.778 242.418,57.825 C242.418,49.493 244.010,39.210 250.470,37.792 C252.593,31.853 257.991,31.232 262.149,31.232 C267.281,31.232 271.440,36.196 271.440,49.670 C271.440,63.232 266.927,78.656 255.336,78.656 ZM259.760,73.958 C265.335,73.958 270.997,36.640 261.530,36.640 C258.698,36.640 259.849,45.947 256.663,48.784 C256.752,59.509 254.274,73.958 259.760,73.958 ZM239.426,78.656 C227.835,78.656 228.012,54.545 228.012,54.545 C228.012,54.545 220.934,77.061 218.014,77.061 C215.094,77.061 207.838,75.731 207.838,67.842 C207.838,59.864 212.528,33.271 209.608,33.271 C204.476,33.271 200.671,65.714 197.840,76.086 C198.459,78.479 198.548,79.277 196.336,79.277 C184.125,79.277 185.895,54.723 185.895,45.504 C185.895,44.174 184.833,44.174 184.833,42.845 C184.833,40.185 197.309,41.692 197.309,46.834 C197.309,51.975 196.336,58.003 196.336,64.385 C196.336,65.714 196.336,66.867 196.424,67.842 C198.282,56.762 203.680,28.485 211.378,28.485 C226.596,28.485 218.545,64.296 219.606,64.296 C220.580,64.296 226.596,42.667 231.109,42.667 C235.622,42.667 240.754,43.820 240.754,48.606 C240.754,51.532 239.603,55.964 239.603,61.814 C239.603,74.667 243.143,78.656 239.426,78.656 ZM168.092,78.656 C159.054,78.656 155.985,69.756 155.323,61.556 C152.516,68.822 147.525,78.124 139.414,78.124 C131.482,78.124 126.113,68.578 125.086,57.916 C122.516,64.905 117.075,75.731 107.267,75.731 C94.968,75.731 87.624,64.651 87.624,55.786 C87.624,44.263 93.464,33.626 97.003,30.435 C100.631,27.244 109.125,27.775 111.868,29.105 C114.522,30.346 116.469,34.424 116.469,39.388 C116.469,48.695 112.045,53.570 106.294,53.570 C104.170,53.570 101.692,52.950 99.834,52.418 C99.126,61.194 104.524,70.147 109.390,70.147 C119.907,70.147 124.068,55.086 124.994,51.920 C125.663,43.206 129.987,35.720 132.512,33.271 C135.167,30.523 142.422,29.903 144.369,31.853 C146.227,33.714 150.120,43.820 147.377,43.820 C144.634,43.820 143.661,36.019 142.068,36.019 C136.140,36.019 133.574,71.476 141.714,71.476 C150.848,71.476 154.138,56.879 155.313,53.690 C155.815,46.409 157.808,38.982 163.226,37.792 C165.349,31.853 170.747,31.232 174.905,31.232 C180.037,31.232 184.196,36.196 184.196,49.670 C184.196,63.232 179.683,78.656 168.092,78.656 ZM108.506,35.753 C103.905,35.753 100.896,42.845 100.011,50.557 C111.249,55.343 113.018,35.753 108.506,35.753 ZM172.516,73.958 C178.091,73.958 183.754,36.640 174.286,36.640 C171.455,36.640 172.605,45.947 169.420,48.784 C169.508,59.509 167.031,73.958 172.516,73.958 ZM74.636,77.238 C74.282,78.390 73.043,78.390 71.539,77.681 C71.362,77.947 71.008,78.124 70.389,78.124 C65.320,78.124 57.649,70.007 53.813,55.171 C51.787,61.549 46.282,75.731 35.055,75.731 C22.756,75.731 15.412,64.651 15.412,55.786 C15.412,44.263 21.252,33.626 24.791,30.435 C28.419,27.244 36.914,27.775 39.657,29.105 C42.311,30.346 44.258,34.424 44.258,39.388 C44.258,48.695 39.833,53.570 34.082,53.570 C31.959,53.570 29.481,52.950 27.623,52.418 C26.915,61.194 32.312,70.147 37.179,70.147 C48.416,70.147 52.398,52.950 52.929,51.443 C52.935,51.425 52.944,51.412 52.950,51.395 C52.010,46.663 51.454,41.350 51.454,35.487 C51.454,33.803 50.303,30.435 53.754,30.435 C59.859,30.435 63.045,34.069 63.045,38.590 C63.045,50.911 65.699,60.219 68.088,66.689 C70.654,60.307 75.963,49.404 77.290,43.997 C80.830,30.789 79.326,31.144 79.945,28.573 C80.653,26.003 90.120,31.410 86.227,46.213 C82.334,61.105 74.636,77.238 74.636,77.238 ZM36.294,35.753 C31.693,35.753 28.685,42.845 27.800,50.557 C39.037,55.343 40.807,35.753 36.294,35.753 ZM12.232,64.119 C13.205,83.798 20.549,85.216 15.505,85.393 C10.550,85.659 1.791,77.327 1.083,61.194 C0.286,44.972 5.861,8.185 5.595,3.842 C5.330,-3.338 16.567,0.828 16.833,6.324 C17.098,11.908 11.701,51.266 12.232,64.119 Z" class="cls-1"/>
</svg>
