<svg xmlns="http://www.w3.org/2000/svg" xmlns:xlink="http://www.w3.org/1999/xlink" preserveAspectRatio="xMidYMid" width="152" height="253" viewBox="0 0 152 253">
  <defs>
    <style>
      .cls-1 {
        fill: #fff;
        fill-rule: evenodd;
      }
    </style>
  </defs>
  <path d="M151.961,162.117 C151.637,163.608 145.284,185.916 139.773,187.862 C139.578,187.991 139.189,188.056 138.735,188.056 C132.641,188.056 131.150,175.411 130.696,175.411 C130.178,175.411 127.714,185.268 122.592,185.268 C117.470,185.268 113.321,181.831 113.321,172.817 C113.321,164.322 117.989,150.444 127.584,150.444 C134.262,150.444 138.995,150.444 138.995,159.912 C138.995,160.820 136.661,161.598 136.661,160.172 C136.661,158.680 136.207,153.427 133.808,153.427 C127.455,153.427 121.814,164.970 121.814,176.902 C121.814,179.302 122.073,183.193 124.018,183.193 C125.963,183.193 130.048,169.639 130.048,166.267 C130.048,164.970 130.048,162.636 133.938,162.636 C137.893,162.636 139.513,164.452 139.513,165.813 C139.513,166.202 139.513,166.527 139.513,166.851 C139.708,171.261 139.319,183.712 141.458,183.712 C142.820,183.712 149.952,163.219 150.405,161.793 C150.794,160.431 152.285,160.496 151.961,162.117 ZM140.164,101.214 C145.289,101.214 149.443,106.178 149.443,119.654 C149.443,133.218 144.936,148.643 133.359,148.643 C122.931,148.643 120.457,136.764 120.457,127.810 C120.457,119.476 122.047,109.193 128.499,107.774 C130.620,101.834 136.010,101.214 140.164,101.214 ZM137.778,143.945 C143.345,143.945 149.001,106.622 139.545,106.622 C136.717,106.622 137.866,115.930 134.685,118.767 C134.773,129.494 132.299,143.945 137.778,143.945 ZM126.978,99.766 C112.650,99.766 104.095,86.920 104.095,76.644 C104.095,63.285 110.898,50.953 115.021,47.253 C119.247,43.554 129.143,44.170 132.338,45.712 C135.430,47.151 137.698,51.878 137.698,57.633 C137.698,68.423 132.544,74.075 125.844,74.075 C123.370,74.075 120.484,73.356 118.320,72.739 C117.495,82.913 123.783,93.292 129.452,93.292 C142.543,93.292 147.181,73.356 147.800,71.609 C148.521,69.656 150.583,70.375 149.861,72.533 C149.140,74.589 143.161,99.766 126.978,99.766 ZM128.421,53.419 C123.061,53.419 119.557,61.640 118.526,70.581 C131.617,76.130 133.678,53.419 128.421,53.419 ZM84.135,99.179 C83.503,100.426 82.081,100.181 80.493,99.074 C80.237,99.343 79.796,99.475 79.085,99.353 C73.808,98.445 67.379,89.491 65.112,74.626 C63.145,81.139 56.780,99.766 42.856,99.766 C28.528,99.766 19.973,86.920 19.973,76.644 C19.973,63.285 26.776,50.953 30.899,47.253 C35.125,43.554 45.021,44.170 48.216,45.712 C51.308,47.151 53.576,51.878 53.576,57.633 C53.576,68.423 48.422,74.075 41.722,74.075 C39.248,74.075 36.362,73.356 34.198,72.739 C33.373,82.913 39.661,93.292 45.330,93.292 C58.421,93.292 63.059,73.356 63.678,71.609 C63.901,71.004 64.253,70.656 64.611,70.528 C63.969,63.660 64.189,55.728 65.705,46.897 C66.035,44.972 65.375,40.896 69.337,41.578 C76.346,42.784 79.291,47.566 78.405,52.731 C75.989,66.809 77.212,77.968 78.686,85.833 C82.883,79.048 91.116,67.639 93.700,61.723 C100.353,47.332 98.557,47.440 99.772,44.625 C101.088,41.828 110.898,49.876 103.526,66.021 C96.136,82.267 84.135,99.179 84.135,99.179 ZM44.299,53.419 C38.939,53.419 35.435,61.640 34.404,70.581 C47.495,76.130 49.556,53.419 44.299,53.419 ZM16.268,74.302 C17.401,97.116 25.957,99.760 20.081,99.966 C14.309,100.274 4.105,89.614 3.280,70.911 C2.352,52.105 8.846,9.458 8.537,4.423 C8.228,-3.901 21.318,0.929 21.628,7.300 C21.937,13.774 15.649,59.402 16.268,74.302 ZM10.687,104.253 C13.338,101.505 20.584,100.884 22.529,102.834 C24.384,104.696 28.273,114.803 25.533,114.803 C22.794,114.803 21.822,107.001 20.231,107.001 C14.310,107.001 11.747,142.463 19.877,142.463 C28.745,142.463 32.090,128.701 33.348,125.000 C33.574,117.054 35.371,108.091 41.362,106.774 C43.483,100.834 48.874,100.214 53.028,100.214 C58.153,100.214 62.307,105.178 62.307,118.654 C62.307,132.218 57.800,147.643 46.223,147.643 C37.775,147.643 34.549,139.847 33.627,132.126 C30.854,139.448 25.837,149.112 17.580,149.112 C8.742,149.112 3.087,137.232 3.087,125.175 C3.087,115.512 7.947,106.912 10.687,104.253 ZM50.641,142.945 C56.209,142.945 61.865,105.621 52.409,105.621 C49.581,105.621 50.730,114.930 47.548,117.767 C47.637,128.494 45.162,142.945 50.641,142.945 ZM7.072,150.342 C9.534,150.264 12.842,150.342 12.842,153.001 C12.842,154.427 12.388,159.680 11.934,166.878 C13.425,160.588 15.500,153.909 17.121,152.223 C19.260,150.083 25.679,151.315 26.522,151.898 C34.755,157.410 34.426,196.993 20.163,196.993 C16.402,196.993 12.712,183.804 16.343,183.804 C24.382,183.804 23.366,158.988 21.161,158.988 C17.077,158.988 12.777,171.418 11.416,177.578 C11.286,180.821 11.221,184.258 11.221,187.695 C11.221,204.426 18.410,253.064 15.169,253.000 C-2.622,252.648 -4.014,150.691 7.072,150.342 ZM44.121,211.458 C40.491,211.653 34.072,205.557 33.553,193.755 C32.970,181.887 37.054,154.975 36.860,151.798 C36.665,146.545 44.899,149.593 45.094,153.614 C45.288,157.699 41.333,186.492 41.722,195.895 C42.436,210.291 47.817,211.329 44.121,211.458 ZM40.296,235.634 C47.692,235.634 50.737,241.992 50.737,246.733 C50.737,250.290 43.559,252.984 38.665,252.984 C33.880,252.984 32.248,248.350 32.140,244.686 C31.922,241.022 34.859,235.634 40.296,235.634 ZM111.259,184.527 C102.766,184.527 102.895,166.888 102.895,166.888 C102.895,166.888 97.709,183.360 95.569,183.360 C93.430,183.360 88.114,182.387 88.114,176.616 C88.114,170.779 91.550,151.325 89.410,151.325 C85.650,151.325 82.862,175.059 80.787,182.647 C81.241,184.397 81.306,184.981 79.685,184.981 C70.738,184.981 72.035,167.018 72.035,160.274 C72.035,159.301 71.257,159.301 71.257,158.328 C71.257,156.383 80.398,157.485 80.398,161.247 C80.398,165.008 79.685,169.417 79.685,174.087 C79.685,175.059 79.685,175.902 79.750,176.616 C81.112,168.510 85.066,147.823 90.707,147.823 C101.858,147.823 95.958,174.022 96.736,174.022 C97.449,174.022 101.858,158.199 105.165,158.199 C108.471,158.199 112.231,159.042 112.231,162.544 C112.231,164.684 111.389,167.926 111.389,172.206 C111.389,181.609 113.982,184.527 111.259,184.527 ZM60.314,165.267 C60.443,162.868 60.573,160.793 60.573,160.079 C60.573,158.912 60.832,157.226 62.388,157.226 C63.944,157.226 69.974,157.810 69.974,160.987 C69.974,163.062 68.937,164.554 68.937,174.087 C68.937,181.609 71.400,183.684 68.872,183.684 C64.722,183.684 59.990,180.831 59.990,173.503 C59.990,172.530 59.990,171.493 60.054,170.325 L55.127,182.711 C55.387,183.425 55.646,183.879 55.646,184.527 C55.646,186.278 45.921,184.851 45.921,173.373 C45.921,166.305 47.542,155.086 47.542,152.816 C47.542,151.260 45.726,149.314 48.579,149.314 C52.015,149.314 56.165,151.260 56.165,153.594 C56.165,155.929 53.701,163.711 53.701,172.919 C53.701,176.745 54.025,179.080 54.414,180.636 C55.711,177.653 58.693,170.455 60.314,165.267 ZM117.353,148.359 C105.834,148.359 106.009,124.142 106.009,124.142 C106.009,124.142 98.975,146.757 96.073,146.757 C93.171,146.757 85.961,145.421 85.961,137.497 C85.961,129.484 90.621,102.773 87.720,102.773 C82.620,102.773 78.839,135.360 76.025,145.777 C76.640,148.181 76.728,148.983 74.530,148.983 C62.395,148.983 64.154,124.320 64.154,115.060 C64.154,113.725 63.099,113.725 63.099,112.389 C63.099,109.718 75.497,111.232 75.497,116.396 C75.497,121.560 74.530,127.614 74.530,134.025 C74.530,135.360 74.530,136.518 74.618,137.497 C76.464,126.368 81.828,97.965 89.478,97.965 C104.603,97.965 96.601,133.936 97.656,133.936 C98.623,133.936 104.603,112.211 109.087,112.211 C113.572,112.211 118.672,113.368 118.672,118.176 C118.672,121.115 117.529,125.566 117.529,131.443 C117.529,144.353 121.046,148.359 117.353,148.359 ZM56.424,194.886 C59.791,191.410 68.995,190.625 71.464,193.092 C73.821,195.447 78.759,208.230 75.280,208.230 C71.800,208.230 70.566,198.362 68.546,198.362 C61.026,198.362 57.771,243.215 68.097,243.215 C78.118,243.215 82.593,229.399 84.583,223.057 C82.604,221.041 81.290,218.177 81.290,214.114 C81.290,205.174 90.280,189.041 97.636,189.041 C105.094,189.041 115.412,188.117 115.412,195.926 C115.412,203.633 105.604,213.394 103.868,213.394 C102.029,213.394 106.319,198.906 104.685,198.906 C96.819,198.906 89.667,218.943 95.695,218.943 C98.351,218.943 113.981,218.738 113.981,227.780 C113.981,236.925 97.534,251.620 91.506,251.620 C85.479,251.620 81.597,246.276 84.253,246.276 C89.157,246.276 103.255,231.068 103.255,227.369 C103.255,227.369 93.818,228.825 87.316,225.141 C84.386,234.125 77.726,251.625 65.179,251.625 C53.955,251.625 46.772,236.599 46.772,221.349 C46.772,209.127 52.945,198.250 56.424,194.886 ZM131.237,189.041 C138.694,189.041 149.012,188.117 149.012,195.926 C149.012,203.633 139.205,213.394 137.468,213.394 C135.629,213.394 139.920,198.906 138.286,198.906 C130.419,198.906 123.268,218.943 129.296,218.943 C131.952,218.943 147.582,218.738 147.582,227.780 C147.582,236.925 131.134,251.620 125.107,251.620 C119.080,251.620 115.197,246.276 117.854,246.276 C122.757,246.276 136.855,231.068 136.855,227.369 C136.855,227.369 114.891,230.760 114.891,214.114 C114.891,205.174 123.881,189.041 131.237,189.041 Z" class="cls-1"/>
</svg>
