<?xml version="1.0" encoding="utf-8"?>
<!-- Generator: Adobe Illustrator 19.1.0, SVG Export Plug-In . SVG Version: 6.00 Build 0)  -->
<svg version="1.1" id="Camada_1" xmlns="http://www.w3.org/2000/svg" xmlns:xlink="http://www.w3.org/1999/xlink" x="0px" y="0px"
	 viewBox="0 0 70 50" style="enable-background:new 0 0 70 50;" xml:space="preserve">
<style type="text/css">
	.st0{fill:#FFFFFF;}
</style>
<path id="Twitter__x28_alt_x29_" class="st0" d="M61.3,22.4c3.8-0.3,6.4-2.1,7.4-4.4c-1.4,0.8-5.7,1.8-8,0.9
	c-0.1-0.6-0.2-1.1-0.4-1.6c-1.8-6.6-8-11.9-14.4-11.3c0.5-0.2,1.1-0.4,1.6-0.6c0.7-0.3,4.9-0.9,4.2-2.4c-0.6-1.3-5.6,1-6.6,1.3
	c1.3-0.5,3.4-1.3,3.6-2.8c-1.9,0.3-3.8,1.2-5.3,2.5c0.5-0.6,0.9-1.3,1-2c-5.2,3.3-8.2,10-10.6,16.4c-1.9-1.9-3.6-3.3-5.1-4.1
	c-4.3-2.3-9.4-4.7-17.4-7.7c-0.2,2.7,1.3,6.2,5.8,8.5c-1-0.1-2.8,0.2-4.2,0.5c0.6,3,2.5,5.6,7.6,6.8c-2.3,0.2-3.6,0.7-4.7,1.8
	c1.1,2.1,3.7,4.6,8.4,4.1c-5.2,2.2-2.1,6.4,2.1,5.8C19,41.7,7.6,41.2,1,34.9c17.1,23.3,54.3,13.8,59.9-8.7c4.2,0,6.6-1.4,8.1-3.1
	C66.6,23.6,63.1,23.2,61.3,22.4z"/>
</svg>
